<svg id="Capa_1" xmlns="http://www.w3.org/2000/svg" width="273" height="37" viewBox="0 0 273 37"><style>.st0{opacity:.3}.st1{fill:#2d2969}.st2{opacity:.7}.st3,.st4{stroke:#2d2969;stroke-miterlimit:10}.st3{opacity:.55;fill:none;stroke-width:4.0674}.st4{fill:#fff;stroke-width:1.4985}.st5,.st6{opacity:.55}.st5{stroke:#2d2969;stroke-width:1.998;stroke-miterlimit:10;fill:none}.st6{fill:#2d2969}</style><g class="st0"><path class="st1" d="M32.2 29v-4.7l2.9-2.8-2.9-2.8V14l7.6 7.6-7.6 7.4zM67.8 14.8c-.1-.4-.3-.8-.6-1-.3-.3-.7-.5-1-.7-.4-.2-.8-.3-1.2-.4-.4-.1-.8-.1-1.2-.1-.4 0-.8.1-1.2.2-.4.1-.8.3-1.2.4-.4.2-.7.4-1 .7s-.5.6-.6 1.1c0 .1-.1.4-.1.7v8.6c0 .3.1.5.1.7.1.4.3.8.6 1.1.3.3.6.5 1 .7.4.2.8.4 1.2.4.4.1.8.1 1.2.1h.1c.4 0 .8 0 1.2-.2.4-.1.8-.2 1.2-.4.4-.2.7-.4 1-.7.3-.3.5-.7.6-1l2.6 1.7c-.7 1.3-1.6 2.2-2.8 2.8-1.2.6-2.5.9-3.8.9h-.1c-.7 0-1.5-.1-2.2-.2-.7-.2-1.4-.4-2-.8-.6-.3-1.1-.8-1.6-1.3s-.8-1.2-1.1-1.9c-.1-.3-.2-.5-.3-.8-.1-.3-.1-.6-.1-.9v-8.7c0-.6.1-1.2.4-1.8.6-1.5 1.5-2.5 2.7-3.2 1.2-.7 2.6-1 4.1-1h.1c1.5 0 2.9.3 4.1 1s2.1 1.7 2.7 3.2l-2.8.8zM89.2 29.9L87 23.7h-6.6l-2.2 6.2H75l7-20h3.4l7 20h-3.2zm-5.4-15.6l-2.2 6.3H86l-2.2-6.3zM109.7 29.9l-4.3-8.4h-4.3v8.4H98v-20h8.9l.9.1c1.5.1 2.6.6 3.4 1.6.8 1 1.2 2.3 1.2 4.1v.2c0 1.6-.3 2.8-.9 3.7-.6.9-1.5 1.5-2.7 1.8l4.5 8.6h-3.6zm-.4-14.2c0-.6-.1-1-.2-1.3-.1-.3-.3-.6-.6-.9-.4-.4-.9-.6-1.7-.6H101v5.5h5.8c.7 0 1.3-.2 1.7-.6.3-.3.5-.5.6-.8.1-.2.2-.7.2-1.3zM127.3 13v16.9h-3.1V13h-5.3v-3h13.5v3h-5.1zM151.2 29.9l-2.2-6.2h-6.6l-2.2 6.2H137l7-20h3.4l7 20h-3.2zm-5.4-15.6l-2.2 6.3h4.4l-2.2-6.3zM170.3 15.2l-.3-.9c-.1-.2-.2-.5-.5-.7-.2-.2-.5-.4-.9-.6-.3-.2-.7-.3-1.1-.4-.4-.1-.8-.2-1.2-.2-.4 0-.9.1-1.3.2s-.9.3-1.2.5c-.4.2-.7.5-.9.8-.3.3-.4.6-.5.9 0 .1-.1.3-.1.6V23.2c0 .5.1.9.1 1.1.1.3.3.6.5.9.3.3.6.6.9.8l1.2.6c.4.2.9.2 1.3.2.6 0 1.2-.1 1.8-.3s1.1-.5 1.4-.8c.3-.4.5-.7.5-1v-.4-2.5h-4V19h7.1V25.1c0 .2 0 .3-.1.5-.1.5-.3 1.1-.6 1.6s-.8 1-1.3 1.5c-.6.4-1.2.8-2.1 1.1s-1.8.4-2.8.4c-1.6 0-3-.4-4.3-1.1-1.2-.7-2.1-1.8-2.6-3.1-.1-.1-.1-.3-.2-.5 0-.2-.1-.4-.1-.6s-.1-.4-.1-.7v-8.6c0-.1 0-.3.1-.6 0-.4.1-.7.3-1.1.5-1.3 1.4-2.4 2.6-3.1 1.2-.7 2.6-1.1 4.3-1.1 1 0 1.8.1 2.6.3.8.2 1.4.5 1.9.9s1 .8 1.3 1.2.6.9.7 1.3l.3.8-2.7 1zM180.9 29.9V10h12.4v3H184v5.2h8.1v3.1H184v5.5h9.4v3.1h-12.5zM211.2 29.9l-8.3-14.2v14.1h-3.1V9.9h3.2l8.4 14.4V9.8h3v20.1h-3.2zM234.2 29.9l-2.2-6.2h-6.6l-2.2 6.2H220l7-20h3.4l7 20h-3.2zm-5.4-15.6l-2.2 6.3h4.4l-2.2-6.3z"/></g><path class="st1" d="M36.2 33.1v-4.7l2.9-2.8-2.9-2.8V18l7.6 7.6-7.6 7.5zM71.9 18.9c-.1-.4-.3-.8-.6-1-.3-.3-.7-.5-1-.7-.4-.2-.8-.3-1.2-.4-.4-.1-.8-.1-1.2-.1-.4 0-.8.1-1.2.2-.4.1-.8.3-1.2.4-.4.2-.7.4-1 .7s-.5.6-.6 1.1c0 .1-.1.4-.1.7v8.6c0 .3.1.5.1.7.1.4.3.8.6 1.1.3.3.6.5 1 .7.4.2.8.4 1.2.4.4.1.8.1 1.2.1h.1c.4 0 .8 0 1.2-.2.4-.1.8-.2 1.2-.4.4-.2.7-.4 1-.7.3-.3.5-.7.6-1l2.6 1.7c-.7 1.3-1.6 2.2-2.8 2.8-1.2.6-2.5.9-3.8.9h-.1c-.7 0-1.5-.1-2.2-.2-.7-.2-1.4-.4-2-.8-.7-.5-1.2-1-1.7-1.5s-.8-1.2-1.1-1.9c-.1-.3-.2-.5-.3-.8-.1-.3-.1-.6-.1-.9v-8.7c0-.6.1-1.2.4-1.8.6-1.5 1.5-2.5 2.7-3.2 1.2-.7 2.6-1 4.1-1h.1c1.5 0 2.9.3 4.1 1s2.1 1.7 2.7 3.2l-2.7 1zM93.3 34l-2.2-6.2h-6.6L82.4 34h-3.2l7-20h3.4l7 20h-3.3zm-5.4-15.6l-2.2 6.3H90l-2.1-6.3zM113.8 34l-4.3-8.4h-4.3V34h-3.1V14h8.9l.9.1c1.5.1 2.6.6 3.4 1.6.8 1 1.2 2.3 1.2 4.1v.2c0 1.6-.3 2.8-.9 3.7-.6.9-1.5 1.5-2.7 1.8l4.5 8.6h-3.6zm-.4-14.2c0-.6-.1-1-.2-1.3-.1-.3-.3-.6-.6-.9-.4-.4-.9-.6-1.7-.6h-5.8v5.5h5.8c.7 0 1.3-.2 1.7-.6.3-.3.5-.5.6-.8.1-.3.2-.7.2-1.3zM131.4 17v16.9h-3.1V17H123v-3h13.5v3h-5.1zM155.3 34l-2.2-6.2h-6.6l-2.2 6.2h-3.2l7-20h3.4l7 20h-3.2zm-5.4-15.6l-2.2 6.3h4.4l-2.2-6.3zM174.4 19.3l-.3-.9c-.1-.2-.2-.5-.5-.7-.2-.2-.5-.4-.9-.6-.3-.2-.7-.3-1.1-.4-.4-.1-.8-.2-1.2-.2-.4 0-.9.1-1.3.2s-.9.3-1.2.5c-.4.2-.7.5-.9.8-.3.3-.4.6-.5.9 0 .1-.1.3-.1.6V27.3c0 .5.1.9.1 1.1.1.3.3.6.5.9.3.3.6.6.9.8l1.2.6c.4.2.9.2 1.3.2.6 0 1.2-.1 1.8-.3s1.1-.5 1.4-.8c.3-.4.5-.7.5-1v-.4-2.5h-4v-3.1h7.1V28.9c0 .2 0 .3-.1.5-.1.5-.3 1.1-.6 1.6s-.8 1-1.3 1.5c-.6.4-1.2.8-2.1 1.1s-1.8.4-2.8.4c-1.6 0-3-.4-4.3-1.1-1.2-.7-2.1-1.8-2.6-3.1-.1-.1-.1-.3-.2-.5 0-.2-.1-.4-.1-.6s-.1-.4-.1-.7v-8.6c0-.1 0-.3.1-.6 0-.4.1-.7.3-1.1.5-1.3 1.4-2.4 2.6-3.1 1.2-.7 2.6-1.1 4.3-1.1 1 0 1.8.1 2.6.3.8.2 1.4.5 1.9.9s1 .8 1.3 1.2.6.9.7 1.3l.3.8-2.7 1.3zM184.9 33.9V14.1h12.4v3H188v5.2h8.1v3.1H188v5.5h9.4V34h-12.5zM215.3 34L207 19.8v14.1h-3V14h3.2l8.4 14.4V13.9h3V34h-3.3zM238.3 34l-2.2-6.2h-6.6l-2.2 6.2h-3.2l7-20h3.4l7 20h-3.2zm-5.5-15.6l-2.2 6.3h4.4l-2.2-6.3z"/><g class="st2"><path class="st1" d="M34.2 31.1v-4.7l2.9-2.8-2.9-2.8v-4.7l7.6 7.6-7.6 7.4zM69.9 16.9c-.1-.4-.3-.8-.6-1-.3-.3-.7-.5-1-.7-.4-.2-.8-.3-1.2-.4-.4-.1-.8-.1-1.2-.1-.4 0-.8.1-1.2.2-.4.1-.8.3-1.2.4-.4.2-.7.4-1 .7s-.5.6-.6 1.1c0 .1-.1.4-.1.7v8.6c0 .3.1.5.1.7.1.4.3.8.6 1.1.3.3.6.5 1 .7.4.2.8.4 1.2.4.4.1.8.1 1.2.1h.1c.4 0 .8 0 1.2-.2.4-.1.8-.2 1.2-.4.4-.2.7-.4 1-.7.3-.3.5-.7.6-1l2.6 1.7c-.7 1.3-1.6 2.2-2.8 2.8-1.2.6-2.5.9-3.8.9h-.1c-.7 0-1.5-.1-2.2-.2-.7-.2-1.4-.4-2-.8-.7-.6-1.2-1-1.7-1.5s-.8-1.2-1.1-1.9c-.1-.3-.2-.5-.3-.8-.1-.3-.1-.6-.1-.9v-8.7c0-.6.1-1.2.4-1.8.6-1.5 1.5-2.5 2.7-3.2 1.2-.7 2.6-1 4.1-1h.1c1.5 0 2.9.3 4.1 1s2.1 1.7 2.7 3.2l-2.7 1zM91.2 31.9L89 25.7h-6.6l-2.2 6.2H77l7-20h3.4l7 20h-3.2zm-5.4-15.5l-2.2 6.3H88l-2.2-6.3zM111.8 31.9l-4.3-8.4h-4.3v8.4h-3.1v-20h8.9l.9.1c1.5.1 2.6.6 3.4 1.6.8 1 1.2 2.3 1.2 4.1v.2c0 1.6-.3 2.8-.9 3.7-.6.9-1.5 1.5-2.7 1.8l4.5 8.6h-3.6zm-.4-14.2c0-.6-.1-1-.2-1.3-.1-.3-.3-.6-.6-.9-.4-.4-.9-.6-1.7-.6h-5.8v5.5h5.8c.7 0 1.3-.2 1.7-.6.3-.3.5-.5.6-.8.1-.2.2-.6.2-1.3zM129.3 15v16.9h-3.1V15H121v-3h13.5v3h-5.2zM153.3 31.9l-2.2-6.2h-6.6l-2.2 6.2h-3.2l7-20h3.4l7 20h-3.2zm-5.5-15.5l-2.2 6.3h4.4l-2.2-6.3zM172.4 17.3l-.3-.9c-.1-.2-.2-.5-.5-.7-.2-.2-.5-.4-.9-.6-.3-.2-.7-.3-1.1-.4-.4-.1-.8-.2-1.2-.2-.4 0-.9.1-1.3.2s-.9.3-1.2.5c-.4.2-.7.5-.9.8-.3.3-.4.6-.5.9 0 .1-.1.3-.1.6V25.3c0 .5.1.9.1 1.1.1.3.3.6.5.9.3.3.6.6.9.8l1.2.6c.4.2.9.2 1.3.2.6 0 1.2-.1 1.8-.3s1.1-.5 1.4-.8c.3-.4.5-.7.5-1v-.4-2.5h-4V21h7.1V27.1c0 .2 0 .3-.1.5-.1.5-.3 1.1-.6 1.6s-.8 1-1.3 1.5c-.6.4-1.2.8-2.1 1.1-.8.3-1.8.4-2.8.4-1.6 0-3-.4-4.3-1.1-1.2-.7-2.1-1.8-2.6-3.1-.1-.1-.1-.3-.2-.5 0-.2-.1-.4-.1-.6s-.1-.4-.1-.7v-8.6c0-.1 0-.3.1-.6 0-.4.1-.7.3-1.1.5-1.3 1.4-2.4 2.6-3.1 1.2-.7 2.6-1.1 4.3-1.1 1 0 1.8.1 2.6.3.8.2 1.4.5 1.9.9s1 .8 1.3 1.2.6.9.7 1.3l.3.8-2.7 1.1zM182.9 31.9V12.1h12.4v3H186v5.2h8.1v3.1H186v5.5h9.4V32h-12.5zM213.3 31.9L205 17.8v14.1h-3.1V12h3.2l8.4 14.4V11.9h3V32h-3.2zM236.2 31.9l-2.2-6.2h-6.6l-2.2 6.2H222l7-20h3.4l7 20h-3.2zm-5.4-15.5l-2.2 6.3h4.4l-2.2-6.3z"/></g><path id="XMLID_87_" class="st3" d="M245.2 22.6h12.9"/></svg>