<svg id="Capa_1" xmlns="http://www.w3.org/2000/svg" width="250" height="250" viewBox="0 0 250 250"><style>.st0{fill:#2d2969}.st1{fill:#2f2c66}.st2{clip-path:url(#XMLID_3_)}.st2,.st3{fill:#fff}</style><path class="st0" d="M55 80.8v-2c.4-.1.9-.2 1.4-.3 1.1-.1 1.9-.4 2.6-.6.2-.4.4-.7.4-1.1.1-.9.2-2.3.2-4V62.4c0-1.1-.1-3.9-.2-8.5 0-1.2-.1-2-.2-2.3-.1-.1-.1-.2-.2-.2-.3-.2-.8-.3-1.5-.3-.3 0-1.1-.1-2.4-.3l-.1-1.7 5.5-.1 8-.3H73c1.2 0 2.6.2 4 .6.5.1 1.2.4 2 .8s1.6.9 2.2 1.6c.6.6 1.1 1.4 1.4 2.2.3.8.4 1.7.4 2.6 0 1-.2 1.9-.7 2.7-.4.8-1.1 1.5-2 2.2-.5.3-1.5.9-3.2 1.6 2.5.6 4.4 1.6 5.6 3.1 1.3 1.5 1.9 3.1 1.9 4.9 0 1.1-.2 2.2-.6 3.4-.3.9-.8 1.7-1.5 2.5-.9 1-1.9 1.8-3 2.3-1 .5-2.5.9-4.3 1.3-.9.2-2.3.2-4.2.2l-4.2-.1c-1.8 0-3.9.1-6.3.2-.4-.2-2.4-.1-5.5 0zm11.4-18.6c.7.1 1.4.1 2.3.1 2.5 0 4.3-.5 5.6-1.4 1.3-.9 1.9-2.5 1.9-4.7 0-1.6-.6-2.9-1.8-3.9s-3-1.6-5.4-1.6c-.7 0-1.6.1-2.7.3 0 .4 0 .9.1 1.6.1 1.4.1 3.3.1 5.8v2.1c-.1.4-.1 1-.1 1.7zm.3 15.6c1.1.4 2.1.7 3 .7 1.9 0 3.4-.3 4.6-.8 1.2-.6 2-1.4 2.6-2.4.5-1 .8-2.3.8-3.8 0-1.6-.3-2.8-.9-3.8-.8-1.3-1.8-2.2-3-2.6-1.2-.4-2.9-.7-5.2-.7-1 0-1.7.1-2.1.2v6.6l.1 5.6c-.1.3 0 .7.1 1zM108.5 62.7c1 1 1.8 2.2 2.3 3.5.5 1.3.8 2.6.8 3.7 0 2.2-.3 4-1 5.3-1 2-2.4 3.5-4.1 4.5-1.7 1-3.7 1.4-6 1.4-2.6 0-4.7-.6-6.5-1.7-1.8-1.1-3-2.4-3.8-3.9-.8-1.5-1.1-3.3-1.1-5.4 0-1.1.2-2.2.5-3.3.4-1.1.9-2.1 1.5-2.9.6-.8 1.3-1.5 2.1-2.1 1.1-.8 2.2-1.3 3.3-1.7 1.1-.3 2.4-.5 4-.5 3.4.1 6.1 1.1 8 3.1zm-13.4 8.5c.1 2 .3 3.2.3 3.5.2 1.1.5 2 1 2.8.3.5.8 1 1.5 1.4.7.4 1.6.6 2.6.6 1.2 0 2.2-.4 3-1.1.8-.8 1.4-2 1.8-3.6.2-1.1.3-2.8.3-5.2 0-3-.5-5.1-1.5-6.3-1-1.2-2.3-1.9-3.9-1.9-1.3 0-2.3.4-3.1 1.1s-1.4 1.7-1.7 3.1c-.1.8-.3 2.7-.3 5.6zM134.7 62.7c1 1 1.8 2.2 2.3 3.5.5 1.3.8 2.6.8 3.7 0 2.2-.3 4-1 5.3-1 2-2.4 3.5-4.1 4.5-1.7 1-3.7 1.4-6 1.4-2.6 0-4.7-.6-6.5-1.7s-3-2.4-3.8-3.9c-.8-1.5-1.1-3.3-1.1-5.4 0-1.1.2-2.2.5-3.3.4-1.1.9-2.1 1.5-2.9.6-.8 1.3-1.5 2.1-2.1 1.1-.8 2.2-1.3 3.3-1.7 1.1-.3 2.4-.5 4-.5 3.4.1 6.1 1.1 8 3.1zm-13.4 8.5c.1 2 .3 3.2.3 3.5.2 1.1.5 2 1 2.8.3.5.8 1 1.5 1.4.7.4 1.6.6 2.6.6 1.2 0 2.2-.4 3-1.1.8-.8 1.4-2 1.8-3.6.2-1.1.3-2.8.3-5.2 0-3-.5-5.1-1.5-6.3-1-1.2-2.3-1.9-3.9-1.9-1.3 0-2.3.4-3.1 1.1-.8.7-1.4 1.7-1.7 3.1-.2.8-.3 2.7-.3 5.6zM140.4 79.2l.9-.3c.3 0 .5-.1.6-.1.9-.1 1.5-.2 1.6-.2.1-.3.2-.9.2-1.6l.1-10.4v-9.5c0-1.7-.1-2.9-.2-3.6 0-.2-.1-.4-.2-.8-.3-.3-.6-.5-1-.6-.3-.1-1-.2-2-.3v-.5-.8c.6-.2 2.4-.7 5.4-1.5.8-.2 1.5-.5 2.2-.8h1v10.9c0 .1 0 .6-.1 1.6v9.2c.8-.5 2.5-1.6 5.1-3.3.9-.6 1.9-1.3 3-2.2.5-.4.8-.6 1-.9-.3-.1-.5-.2-.8-.3-.6-.2-1.4-.4-2.2-.8v-.5c0-.2 0-.4.1-.7h1.8c.1 0 .6 0 1.3.1s1.4.1 2.1.1c.6 0 1.4 0 2.4-.1s1.7-.1 1.9-.1h1.2v.4c0 .2 0 .4-.1.7l-1.9.6c-1.1.3-1.9.6-2.4.9-1.4.8-3.7 2.2-6.9 4.4l1.2 1.2.6.6 1.8 1.8 4 4 2.3 2.3c.3.2 1 .6 2 1v1.4c-.2 0-.7 0-1.6-.1-.5-.1-.9-.1-1.3-.1-3.4 0-6.3 0-8.7.1 0-.2 0-.4-.1-.6v-.4c0-.1 0-.3.1-.5.4-.1 1-.2 1.6-.3.3 0 .6 0 .9-.1-.2-.4-.5-.9-.9-1.2l-6.4-6.8-1.3.7V78c.3.2.6.4.8.4.3.1.8.2 1.6.3.2 0 .4 0 .6.1v1.1c0 .1 0 .2-.1.4l-.2.1c-1.5-.1-2.7-.1-3.6-.2-.5 0-.9-.1-1.1-.1h-2.5l-2.1.2h-.6l-1.4.1c-.1-.3-.1-.5-.1-.8.4.1.4-.1.4-.4zM168.5 73.7c.5-.1.8-.1 1.1-.1h.5l.2.2c.9 1.6 1.5 2.5 1.7 2.8.6.7 1.1 1.2 1.7 1.6.4.3 1 .5 1.8.8.5.2 1.1.3 1.7.3 1 0 1.9-.3 2.7-1 .7-.7 1.1-1.4 1.1-2.1 0-.5-.1-1-.4-1.3-.3-.4-.8-.7-1.7-1.1-.4-.2-1.4-.5-3.1-.9-1.6-.4-2.6-.7-3-.8-.8-.3-1.5-.7-2-1.2-.6-.5-1.1-1.1-1.4-1.8-.4-.9-.6-1.7-.6-2.4 0-1.2.2-2.3.5-3.1.4-.8.9-1.5 1.5-2.1.5-.5 1.2-.9 2.1-1.3 1-.4 2-.6 3.1-.6 1.6 0 2.9.1 4.1.3 1.2.2 2.2.5 3 1 .1.4.2 1.2.4 2.6.2 1.4.3 2.2.3 2.4 0 .1 0 .2-.1.4-.4.1-.8.2-1.1.2h-.7c-.1-.2-.3-.6-.6-1-.8-1.5-1.6-2.5-2.4-3.1-.8-.6-1.8-.9-2.9-.9-1.1 0-2.1.3-2.8 1-.6.5-.8 1.1-.8 1.9 0 .5.3 1.1.9 1.6.6.6 1.6 1 3 1.3 2.1.5 3.7.9 4.7 1.4 1.5.7 2.5 1.5 3.1 2.4.6.9.9 2 .9 3.2 0 1.9-.7 3.5-2.1 4.7-1.4 1.3-3.5 1.9-6.3 1.9-.4 0-1.3-.1-2.8-.2-.7-.1-1.5-.2-2.4-.5-.2-.1-.8-.3-1.8-.7-.2-.1-.3-.2-.4-.4-.1-.1-.2-.8-.3-2-.2-1.8-.3-3-.4-3.4zM54.4 110.8v-1.9l5.9.4h3.6c1 0 2.6-.1 4.7-.2 1.2-.1 2-.1 2.3-.1 2.1 0 3.6.1 4.7.3 1.6.3 2.9.9 3.8 1.6.9.7 1.8 1.7 2.4 3.1.7 1.3 1 2.6 1 3.7 0 2.8-.9 5.2-2.7 6.9-1.8 1.8-4.1 2.7-6.8 2.7-.9 0-1.9-.1-2.7-.3-.9-.2-1.7-.6-2.4-1-.1-.5-.1-1.1-.1-2 .4 0 .7.1 1.1.1h.8c1.4 0 2.6-.4 3.5-1.2 1.3-1 1.9-2.6 1.9-4.9 0-1.6-.3-2.9-.8-3.9s-1.2-1.7-1.9-2.1c-1-.5-2.2-.7-3.5-.7-1.2 0-2.1.2-2.6.5l-.3.6.2 11.6v1l.1 1v10c0 .5 0 1.3.1 2.2l4.9.6c.1.4.1.7.1.9 0 .2 0 .6-.1 1-.4.1-.7.1-.9.1-.5 0-1.5-.1-2.9-.2s-3-.2-4.8-.2c-2 0-4 .1-5.8.4-.3 0-.8.1-1.5.1-.1-.5-.1-.8-.1-1.1v-.7l1.5-.5c1-.3 1.9-.7 2.7-1.1.1-.5.2-.9.2-1.3v-.6-2.1l-.1-6.9-.3-7.8c-.1-3.7-.2-5.7-.3-6-.1-.5-.3-.8-.6-1.1-.3-.3-.7-.5-1.4-.6-1.5 0-2.4-.2-2.9-.3zM85.3 127.9c.4-1.4.8-2.3 1.1-2.8.9-1.3 1.9-2.4 2.9-3.1s2-1.3 2.8-1.5c1.1-.3 2-.5 2.6-.5 1.5 0 2.8.1 3.7.4.9.2 1.7.6 2.4 1 .9.6 1.7 1.3 2.2 1.9.6.7 1 1.4 1.4 2.3.4.9.5 2 .6 3.2h-2.7c-.8 0-2.4-.1-5-.2-.9-.1-1.6-.1-2-.1H90.5c0 .2-.1.4-.1.6 0 .9.1 1.8.3 2.7.2 1 .5 1.8 1 2.5.4.7 1 1.4 1.6 1.9s1.3.9 2 1.1l1.4.5c1.3 0 2.1 0 2.5-.1.8-.2 1.5-.4 2.1-.6.6-.3 1.3-.7 2.2-1.3.6.4 1.1.8 1.5 1.2-1.4 1.6-2.9 2.7-4.5 3.4-1.5.7-3.3 1.1-5.2 1.1-1.3 0-2.3-.1-3.2-.3-1.1-.3-2.1-.7-3-1.4-.9-.6-1.6-1.4-2.3-2.3-.6-.9-1.1-1.8-1.4-2.8-.4-1.2-.6-2.2-.6-3 .1-1.4.2-2.7.5-3.8zm14.2-1c0-.9-.2-1.8-.5-2.6s-.9-1.5-1.6-2c-.7-.5-1.4-.7-2.2-.7-1.1 0-2.1.5-3 1.4-.9 1-1.4 2.3-1.5 3.9h5.6c.4 0 .9 0 1.5-.1.5 0 .8-.1 1-.1.2.1.4.1.7.2zM128 123c1 1 1.8 2.2 2.3 3.5.5 1.3.8 2.6.8 3.7 0 2.2-.3 4-1 5.3-1 2-2.4 3.5-4.1 4.5-1.7 1-3.7 1.4-6 1.4-2.6 0-4.7-.6-6.5-1.7-1.8-1.1-3-2.4-3.8-3.9-.8-1.5-1.1-3.3-1.1-5.4 0-1.1.2-2.2.5-3.3.4-1.1.9-2.1 1.5-2.9.6-.8 1.3-1.5 2.1-2.1 1.1-.8 2.2-1.3 3.3-1.7 1.1-.3 2.4-.5 4-.5 3.4.1 6.1 1.1 8 3.1zm-13.4 8.5c.1 2 .3 3.2.3 3.5.2 1.1.5 2 1 2.8.3.5.8 1 1.5 1.4.7.4 1.6.6 2.6.6 1.2 0 2.2-.4 3-1.1.8-.8 1.4-2 1.8-3.6.2-1.1.3-2.8.3-5.2 0-3-.5-5.1-1.5-6.3-1-1.2-2.3-1.9-3.9-1.9-1.3 0-2.3.4-3.1 1.1-.8.7-1.4 1.7-1.7 3.1-.2.8-.3 2.7-.3 5.6zM132.8 153.4v-1.1c.3-.2.5-.3.6-.4l1.9-.7c.8-.3 1.2-.6 1.3-.7.3-.5.4-1.4.3-2.6l-.2-9.8-.2-12.1c-.1-.9-.2-1.5-.6-1.9-.3-.4-1.2-.8-2.6-1.2v-1.3c1.6-.3 3-.7 4-1.2.8-.3 1.9-.9 3.3-1.9h1.3V122.6c1.4-.9 2.6-1.4 3.5-1.7 1.3-.4 2.8-.6 4.4-.6 1.7 0 3.1.4 4.4 1.3.1.1.2.2.4.3.8.6 1.4 1.2 1.8 1.7.8 1.2 1.4 2.3 1.8 3.4.3.9.4 1.9.4 3.2 0 1.7-.2 3.1-.7 4.3-.4 1.2-1.2 2.4-2.3 3.6-1.1 1.2-2.2 2-3.5 2.6s-2.5.8-3.9.8c-1.3 0-2.3-.1-2.9-.2-1.1-.3-2.2-.8-3.3-1.4 0 .3-.1.4-.1.5l.1.7v.7c0 .1 0 .8-.1 1.9l.1 4.5v1.3c0 .6 0 1 .1 1.3.1.2.2.3.4.5.2.1.3.1.5.2.5.1 1 .2 1.3.3.4.1.8.2 1.2.2.1.2.2.4.2.7v.8h-2.4l-3.7-.3h-1.8l-.9.1-1.3.1c-.5 0-1 .1-1.6.1-.6.1-1 .1-1.3.1l.1-.2zm9.3-17.6c.1.2.1.3.1.4.2.8.4 1.3.7 1.6.5.6 1.1 1 1.7 1.2 1 .3 1.8.4 2.6.4.9 0 1.7-.2 2.5-.5.8-.4 1.5-.8 2-1.4l.3-.3c.1-.3.2-.5.3-.6.7-1.3 1-2.6 1-4.1 0-2.7-.8-4.9-2.4-6.7-1.1-1.3-2.7-1.9-4.7-1.9-1.2 0-2.6.3-4.1.9V135.8zM160.8 139.8c.4-.2.8-.4 1.4-.5 1.1-.1 1.8-.3 2-.5.3-.4.5-1.3.5-2.6V116c0-1.3-.1-2.3-.3-3-.6-.3-1.2-.5-1.9-.5-.4 0-.8 0-1.1-.1 0-.4-.1-.7-.1-.9 0-.1 0-.3.1-.4 1.3-.1 2.6-.5 4-1s2.5-1 3.2-1.6H169.9c.1 5.7.1 9.5.1 11.6 0 .6 0 1.1-.1 1.5v.1l.1.5v15.1c0 .7.1 1.2.3 1.5.2.2.6.3 1.2.4.3 0 1 .1 2 .2.1.3.1.6.1.8v.7l-1.9-.1c-1.1-.1-2.4-.1-4.1-.1h-.9c-.9 0-2.3.1-4 .2h-1.8l-.1-1.1zM175.8 127.9c.4-1.4.8-2.3 1.1-2.8.9-1.3 1.9-2.4 2.9-3.1s2-1.3 2.8-1.5c1.1-.3 2-.5 2.6-.5 1.5 0 2.8.1 3.7.4.9.2 1.7.6 2.4 1 .9.6 1.7 1.3 2.2 1.9.6.7 1 1.4 1.4 2.3.4.9.5 2 .6 3.2h-2.7c-.8 0-2.4-.1-5-.2-.9-.1-1.6-.1-2-.1H181c0 .2-.1.4-.1.6 0 .9.1 1.8.3 2.7.2 1 .5 1.8 1 2.5s1 1.4 1.6 1.9c.6.5 1.3.9 2 1.1l1.4.5c1.3 0 2.1 0 2.5-.1.8-.2 1.5-.4 2.1-.6.6-.3 1.3-.7 2.2-1.3.6.4 1.1.8 1.5 1.2-1.4 1.6-2.9 2.7-4.5 3.4-1.5.7-3.3 1.1-5.2 1.1-1.3 0-2.3-.1-3.2-.3-1.1-.3-2.1-.7-3-1.4-.9-.6-1.6-1.4-2.3-2.3-.6-.9-1.1-1.8-1.4-2.8-.4-1.2-.6-2.2-.6-3 .2-1.4.3-2.7.5-3.8zm14.3-1c0-.9-.2-1.8-.5-2.6s-.9-1.5-1.6-2c-.7-.5-1.4-.7-2.2-.7-1.1 0-2.1.5-3 1.4-.9 1-1.4 2.3-1.5 3.9h5.6c.4 0 .9 0 1.5-.1.5 0 .8-.1 1-.1.2.1.4.1.7.2zM54.4 171.1v-1.9l5.9.4h3.6c1 0 2.6-.1 4.7-.2 1.2-.1 2-.1 2.3-.1 2.1 0 3.6.1 4.7.3 1.6.3 2.9.9 3.8 1.6.9.7 1.8 1.7 2.4 3.1.7 1.3 1 2.6 1 3.7 0 2.8-.9 5.2-2.7 6.9-1.8 1.8-4.1 2.7-6.8 2.7-.9 0-1.9-.1-2.7-.3-.9-.2-1.7-.6-2.4-1-.1-.5-.1-1.1-.1-2 .4 0 .7.1 1.1.1h.8c1.4 0 2.6-.4 3.5-1.2 1.3-1 1.9-2.6 1.9-4.9 0-1.6-.3-2.9-.8-3.9s-1.2-1.7-1.9-2.1c-1-.5-2.2-.7-3.5-.7-1.2 0-2.1.2-2.6.5l-.3.6.2 11.6v1l.1 1v10c0 .5 0 1.3.1 2.2l4.9.6c.1.4.1.7.1.9 0 .2 0 .6-.1 1-.4.1-.7.1-.9.1-.5 0-1.5-.1-2.9-.2s-3-.2-4.8-.2c-2 0-4 .1-5.8.4-.3 0-.8.1-1.5.1-.1-.5-.1-.8-.1-1.1v-.7l1.5-.5c1-.3 1.9-.7 2.7-1.1.1-.5.2-.9.2-1.3v-.6-2.1l-.1-6.9-.3-7.8c-.1-3.7-.2-5.7-.3-6-.1-.5-.3-.8-.6-1.1-.3-.3-.7-.5-1.4-.6-1.5 0-2.4-.2-2.9-.3zM84.3 200.1c.4-.2.8-.4 1.4-.5 1.1-.1 1.8-.3 1.9-.5.3-.4.5-1.3.5-2.6v-6.9L88 188v-11.7c0-1.3-.1-2.3-.3-3-.6-.3-1.2-.5-1.9-.5-.4 0-.8 0-1.1-.1-.1-.4-.1-.7-.1-.9v-.4c1.3-.1 2.6-.5 4-1s2.5-1 3.2-1.6H93.1c.1 5.7.1 9.5.1 11.6V197.6c0 .7.1 1.2.3 1.5.2.2.6.3 1.2.4.3 0 1 .1 2 .2.1.3.1.6.1.8v.7l-1.9-.1c-1.1-.1-2.4-.1-4.1-.1h-.9c-.9 0-2.3.1-4 .2h-1.8l.2-1.1zM119.9 196.6l.6.4c.1.1.2.3.3.4v.1c-.4 1.5-.9 2.5-1.5 3s-1.4.8-2.4.8-1.8-.3-2.5-.8-1.3-1.5-1.9-2.8c-.7 1.2-1.7 2.2-3 2.8-1.3.6-2.8.9-4.7.9-1.7 0-3-.4-3.8-1.1-.8-.7-1.2-1.6-1.2-2.8 0-.5.1-1.1.4-1.6.2-.6.6-1.1 1.2-1.7.5-.5 1.4-1.1 2.6-1.8.2-.1.8-.4 1.9-.8l6.1-2.5c.1-.6.1-1.3.1-1.9 0-2.2-.3-3.7-.8-4.5-.3-.5-.9-.7-1.7-.7-.8 0-1.6.2-2.3.5-.7.3-1.2.7-1.5 1.2-.2.4-.4 1-.6 2-.1.7-.2 1.1-.3 1.3-.2.3-.7.6-1.3.8s-1.1.4-1.3.6c-.9.4-1.6.6-2.1.6-.2-.2-.3-.5-.3-.8 0-.9.2-1.7.6-2.4.6-.9 1.5-1.9 2.7-2.8 1.2-.9 2.3-1.5 3.3-1.9 1.4-.5 3.1-.7 5.2-.7 1.3 0 2.4.2 3.4.7.9.5 1.6 1.2 2 2.1.4.9.6 2.7.6 5.1l-.1 4 .1 3v.8c0 .7.1 1.2.3 1.4.2.3.4.4.7.4.2 0 .3 0 .5-.1l.7-1.2zm-8.1-5.7c-.9.3-2 .8-3.2 1.6-1.2.7-2 1.5-2.4 2.2-.3.5-.5 1.2-.5 2 0 .7.2 1.3.6 1.7.4.5.9.7 1.5.7.9 0 1.7-.3 2.3-.8.9-.7 1.4-1.3 1.5-1.7.1-.4.2-1.6.2-3.5.1-.7.1-1.5 0-2.2zM142.3 194.8c.3.1.5.2.6.3.4.2.7.4.9.6-.4 1.6-1.5 3.1-3.2 4.2-1.7 1.2-3.9 1.8-6.5 1.8-1.6 0-3.3-.3-4.9-1-1.6-.7-2.9-1.6-3.8-2.7-.7-.9-1.3-1.9-1.7-3.2-.4-1.3-.6-2.3-.6-3.2 0-1.1.2-2.3.7-3.6.5-1.4 1.2-2.6 2.3-3.8 1.1-1.2 2.4-2.1 4.1-2.8 1.6-.7 3.5-1.1 5.6-1.1 2.8 0 4.8.4 5.9 1.3 1.1.9 1.7 1.8 1.7 2.7 0 .9-.2 1.6-.7 2-.5.5-1.1.7-1.9.7-.7 0-1.3-.2-1.9-.7-.6-.4-1-1.2-1.4-2.2-.3-.8-.7-1.3-1.1-1.6-.5-.3-1-.5-1.6-.5-1.5 0-2.9.7-4.1 2s-1.8 3.1-1.8 5.4c0 2.7.7 4.9 2.2 6.5 1.5 1.6 3.2 2.4 5 2.4.9 0 1.7-.1 2.4-.3.4-.1 1-.5 1.7-1 .2-.1.5-.5 1-1.1s.9-.9 1.1-1.1zM146.9 188.2c.4-1.4.8-2.3 1.1-2.8.9-1.3 1.9-2.4 2.9-3.1s2-1.3 2.8-1.5c1.1-.3 2-.5 2.6-.5 1.5 0 2.8.1 3.7.4s1.7.6 2.4 1c.9.6 1.7 1.3 2.2 1.9.6.7 1 1.4 1.4 2.3.4.9.5 2 .6 3.2h-2.7c-.8 0-2.4-.1-5-.2-.9-.1-1.6-.1-2-.1H152.1c0 .2-.1.4-.1.6 0 .9.1 1.8.3 2.7.2 1 .5 1.8 1 2.5.4.7 1 1.4 1.6 1.9.6.5 1.3.9 2 1.1l1.4.5c1.3 0 2.1 0 2.5-.1.8-.2 1.5-.4 2.1-.6.6-.3 1.3-.7 2.2-1.3.6.4 1.1.8 1.5 1.2-1.4 1.6-2.9 2.7-4.5 3.4-1.5.7-3.3 1.1-5.2 1.1-1.3 0-2.3-.1-3.2-.3-1.1-.3-2.1-.7-3-1.4-.9-.6-1.6-1.4-2.3-2.3-.6-.9-1.1-1.8-1.4-2.8-.4-1.2-.6-2.2-.6-3 .2-1.4.3-2.7.5-3.8zm14.3-1c0-.9-.2-1.8-.5-2.6s-.9-1.5-1.6-2c-.7-.5-1.4-.7-2.2-.7-1.1 0-2.1.5-3 1.4-.9 1-1.4 2.3-1.5 3.9h5.6c.4 0 .9 0 1.5-.1.5 0 .8-.1 1-.1.2.1.4.1.7.2zM170.6 194.3c.5-.1.8-.1 1.1-.1h.5l.2.2c.9 1.6 1.5 2.5 1.7 2.8.6.7 1.1 1.2 1.7 1.6.4.3 1 .5 1.8.8.5.2 1.1.3 1.7.3 1 0 1.9-.3 2.7-1 .7-.7 1.1-1.4 1.1-2.1 0-.5-.1-1-.4-1.3-.3-.4-.8-.7-1.7-1.1-.4-.2-1.4-.5-3.1-.9-1.6-.4-2.6-.7-3-.8-.8-.3-1.5-.7-2-1.2-.6-.5-1.1-1.1-1.4-1.8-.4-.9-.6-1.7-.6-2.4 0-1.2.2-2.3.5-3.1.4-.8.9-1.5 1.5-2.1.5-.5 1.2-.9 2.1-1.3 1-.4 2-.6 3.1-.6 1.6 0 2.9.1 4.1.3 1.2.2 2.2.5 3 1 .1.4.2 1.2.4 2.6.2 1.4.3 2.2.3 2.4 0 .1 0 .2-.1.4-.4.1-.8.2-1.1.2h-.7c-.1-.2-.3-.6-.6-1-.8-1.5-1.6-2.5-2.4-3.1-.8-.6-1.8-.9-2.9-.9-1.1 0-2.1.3-2.8 1-.6.5-.8 1.1-.8 1.9 0 .5.3 1.1.9 1.6.6.6 1.6 1 3 1.3 2.1.5 3.7.9 4.7 1.4 1.5.7 2.5 1.5 3.1 2.4.6.9.9 2 .9 3.2 0 1.9-.7 3.5-2.1 4.7-1.4 1.3-3.5 1.9-6.3 1.9-.4 0-1.3-.1-2.8-.2-.7-.1-1.5-.2-2.4-.5-.2-.1-.8-.3-1.8-.7-.2-.1-.3-.2-.4-.4-.1-.1-.2-.8-.3-2-.2-1.8-.4-3-.4-3.4z"/></svg>