<svg id="Capa_1" xmlns="http://www.w3.org/2000/svg" width="179.6" height="250" viewBox="0 0 179.6 250"><style>.st0{fill:#2d2969}</style><path transform="rotate(-44.992 52.699 75.57)" class="st0" d="M46.9 69.7h11.6v11.6H46.9z"/><path class="st0" d="M52.7 67.3l8.2 8.3-8.2 8.2 37.1-8.2z"/><path transform="rotate(-44.992 52.698 92.046)" class="st0" d="M46.9 86.2h11.6v11.6H46.9z"/><path transform="rotate(-44.992 89.77 83.809)" class="st0" d="M83.9 78h11.6v11.6H83.9z"/><path transform="rotate(-44.992 126.866 75.571)" class="st0" d="M121 69.7h11.6v11.6H121z"/><path class="st0" d="M118.6 75.6l8.3-8.3-37.1 8.3 37.1 8.2z"/><path transform="rotate(-44.992 126.864 92.048)" class="st0" d="M121 86.2h11.6v11.6H121z"/><path transform="rotate(-44.992 52.698 108.522)" class="st0" d="M46.9 102.7h11.6v11.6H46.9z"/><path transform="rotate(-44.992 52.698 124.996)" class="st0" d="M46.9 119.2h11.6v11.6H46.9z"/><path transform="rotate(-44.992 89.769 100.284)" class="st0" d="M83.9 94.5h11.6v11.6H83.9z"/><path transform="rotate(-44.992 89.767 116.76)" class="st0" d="M83.9 110.9h11.6v11.6H83.9z"/><path transform="rotate(-44.992 52.696 141.473)" class="st0" d="M46.9 135.7h11.6v11.6H46.9z"/><path transform="rotate(-44.992 52.696 157.948)" class="st0" d="M46.9 152.1h11.6v11.6H46.9z"/><path transform="rotate(-44.992 89.767 133.235)" class="st0" d="M83.9 127.4h11.6V139H83.9z"/><path transform="rotate(-44.992 89.768 149.712)" class="st0" d="M83.9 143.9h11.6v11.6H83.9z"/><path transform="rotate(-44.992 52.695 174.423)" class="st0" d="M46.9 168.6h11.6v11.6H46.9z"/><path transform="rotate(-44.992 89.767 166.189)" class="st0" d="M83.9 160.4h11.6V172H83.9z"/><path transform="rotate(-44.992 126.865 108.523)" class="st0" d="M121 102.7h11.6v11.6H121z"/><path transform="rotate(-44.992 126.865 124.998)" class="st0" d="M121 119.2h11.6v11.6H121z"/><path transform="rotate(-44.992 126.862 141.475)" class="st0" d="M121 135.7h11.6v11.6H121z"/><path transform="rotate(-44.992 126.862 157.95)" class="st0" d="M121 152.1h11.6v11.6H121z"/><path transform="rotate(-44.992 126.861 174.425)" class="st0" d="M121 168.6h11.6v11.6H121z"/></svg>