<?xml version="1.0" encoding="utf-8"?>
<!-- Generator: Adobe Illustrator 19.2.1, SVG Export Plug-In . SVG Version: 6.00 Build 0)  -->
<svg version="1.1" id="Capa_1" xmlns="http://www.w3.org/2000/svg" xmlns:xlink="http://www.w3.org/1999/xlink" x="0px" y="0px"
	 width="273px" height="37px" viewBox="0 0 273 37" style="enable-background:new 0 0 273 37;" xml:space="preserve">
<style type="text/css">
	.st0{opacity:0.3;}
	.st1{fill:#2D2969;}
	.st2{opacity:0.7;}
	.st3{opacity:0.55;fill:none;stroke:#2D2969;stroke-width:4.0674;stroke-miterlimit:10;enable-background:new    ;}
</style>
<g>
	<g class="st0">
		<g>
			<path class="st1" d="M32.2,29.1v-4.7l2.9-2.8l-2.9-2.8v-4.7l7.6,7.6L32.2,29.1z"/>
			<path class="st1" d="M72,24.2c0,1.8-0.4,3.2-1.3,4.2c-0.9,1-2.2,1.5-4.1,1.5h-9.2V10h8.3c0.8,0,1.5,0.1,2.2,0.4
				c0.7,0.3,1.2,0.6,1.7,1.1s0.9,1,1.1,1.7c0.3,0.7,0.4,1.4,0.4,2.1c0,0.5,0,1-0.1,1.6c0,0.6-0.2,1.1-0.4,1.6
				c-0.1,0.2-0.2,0.3-0.3,0.5s-0.2,0.3-0.4,0.5c0.8,0.7,1.3,1.4,1.6,2.1C71.8,22.3,72,23.2,72,24.2z M68.1,15.6
				c0-0.9-0.2-1.5-0.5-1.9s-1-0.7-1.9-0.7h-5.2v5.3h5.4c0.9,0,1.4-0.3,1.8-0.8C67.9,17.1,68.1,16.4,68.1,15.6z M68.9,24.1
				c0-0.8-0.2-1.4-0.6-2c-0.4-0.5-1-0.8-1.9-0.8h-6v5.5h6c0.9,0,1.5-0.3,1.9-0.8C68.7,25.6,68.9,24.9,68.9,24.1z"/>
			<path class="st1" d="M92.3,24.4c0,0,0,0.2-0.1,0.6c0,0.4-0.1,0.7-0.3,1.1c-0.5,1.3-1.4,2.4-2.6,3.1s-2.6,1.1-4.3,1.1l0,0
				c-1.6,0-3-0.3-4.3-1.1c-1.2-0.8-2.1-1.8-2.6-3.1c-0.2-0.4-0.3-0.7-0.3-1.1s-0.1-0.6-0.1-0.6l0,0l0,0v-8.8l0,0l0,0
				c0,0,0-0.2,0.1-0.6c0.1-0.4,0.1-0.7,0.3-1.1c0.5-1.4,1.4-2.4,2.6-3.1s2.6-1.1,4.3-1.1h0.1c1.6,0,3,0.3,4.3,1.1
				c1.2,0.7,2.1,1.8,2.6,3.2c0.1,0.3,0.2,0.7,0.3,1.1c0.1,0.4,0.1,0.6,0.1,0.6l0,0l0,0L92.3,24.4L92.3,24.4L92.3,24.4z M89.3,18.8
				c0-0.8,0-1.6,0-2.4s-0.1-1.3-0.1-1.6c-0.1-0.3-0.2-0.6-0.5-0.9c-0.3-0.3-0.6-0.5-0.9-0.8s-0.8-0.4-1.2-0.5
				c-0.4-0.1-0.9-0.2-1.4-0.2H85c-0.5,0-0.9,0.1-1.4,0.2s-0.9,0.3-1.2,0.5c-0.3,0.2-0.7,0.5-0.9,0.8c-0.2,0.3-0.4,0.6-0.5,0.9
				c-0.1,0.3-0.1,0.8-0.1,1.6c0,0.8,0,1.6,0,2.4V21c0,0.4,0,0.8,0,1.2s0,0.8,0,1.2c0,0.4,0,0.7,0,1S81,24.9,81,25
				c0.1,0.3,0.3,0.6,0.5,0.9s0.5,0.5,0.9,0.8c0.4,0.2,0.8,0.4,1.2,0.5s0.9,0.2,1.4,0.2h0.1c0.5,0,0.9-0.1,1.4-0.2
				c0.4-0.1,0.9-0.3,1.2-0.5c0.4-0.2,0.7-0.5,0.9-0.8c0.3-0.3,0.4-0.6,0.5-0.9c0-0.1,0.1-0.3,0.1-0.6c0-0.3,0-0.6,0-1s0-0.7,0-1.2
				s0-0.8,0-1.2v-2.2H89.3z"/>
			<path class="st1" d="M109.6,15.3l-0.3-0.9c-0.1-0.2-0.2-0.5-0.5-0.7c-0.2-0.2-0.5-0.4-0.9-0.6c-0.3-0.2-0.7-0.3-1.1-0.4
				c-0.4-0.1-0.8-0.2-1.2-0.2s-0.9,0.1-1.3,0.2c-0.4,0.1-0.9,0.3-1.2,0.5c-0.4,0.2-0.7,0.5-0.9,0.8c-0.3,0.3-0.4,0.6-0.5,0.9
				c0,0.1-0.1,0.3-0.1,0.6s0,0.6,0,0.9c0,0.4,0,0.7,0,1.1s0,0.8,0,1.2v2.7c0,0.8,0,1.4,0,1.9s0.1,0.9,0.1,1.1
				c0.1,0.3,0.3,0.6,0.5,0.9c0.3,0.3,0.6,0.6,0.9,0.8c0.4,0.2,0.8,0.4,1.2,0.6s0.9,0.2,1.3,0.2c0.6,0,1.2-0.1,1.8-0.3
				s1.1-0.5,1.4-0.8c0.3-0.4,0.5-0.7,0.5-1c0-0.1,0-0.2,0-0.4c0-0.2,0-0.3,0-0.4v-2.1h-4V19h7.1v5.7c0,0.1,0,0.2,0,0.4
				s0,0.3-0.1,0.5c-0.1,0.5-0.3,1.1-0.6,1.6s-0.8,1-1.3,1.5c-0.6,0.4-1.2,0.8-2.1,1.1c-0.9,0.3-1.8,0.4-2.8,0.4
				c-1.6,0-3-0.4-4.3-1.1c-1.2-0.7-2.1-1.8-2.6-3.1c-0.1-0.1-0.1-0.3-0.2-0.5c0-0.2-0.1-0.4-0.1-0.6s-0.1-0.4-0.1-0.7l0,0v-8.6l0,0
				c0-0.1,0-0.3,0.1-0.6c0-0.4,0.1-0.7,0.3-1.1c0.5-1.3,1.4-2.4,2.6-3.1c1.2-0.7,2.6-1.1,4.3-1.1c1,0,1.8,0.1,2.6,0.3
				s1.4,0.5,1.9,0.9s1,0.8,1.3,1.2s0.6,0.9,0.7,1.3l0.3,0.8L109.6,15.3z"/>
			<path class="st1" d="M133.8,24.4c0,0,0,0.2-0.1,0.6c0,0.4-0.1,0.7-0.3,1.1c-0.5,1.3-1.4,2.4-2.6,3.1c-1.2,0.7-2.6,1.1-4.3,1.1
				h-0.1c-1.6,0-3-0.3-4.3-1.1c-1.2-0.8-2.1-1.8-2.6-3.1c-0.2-0.4-0.3-0.7-0.3-1.1s-0.1-0.6-0.1-0.6l0,0l0,0v-8.8l0,0l0,0
				c0,0,0-0.2,0.1-0.6c0.1-0.4,0.1-0.7,0.3-1.1c0.5-1.4,1.4-2.4,2.6-3.1s2.6-1.1,4.3-1.1h0.1c1.6,0,3,0.3,4.3,1.1
				c1.2,0.7,2.1,1.8,2.6,3.2c0.1,0.3,0.2,0.7,0.3,1.1s0.1,0.6,0.1,0.6l0,0l0,0V24.4L133.8,24.4L133.8,24.4z M130.7,18.8
				c0-0.8,0-1.6,0-2.4s-0.1-1.3-0.1-1.6c-0.1-0.3-0.2-0.6-0.5-0.9c-0.3-0.3-0.6-0.5-0.9-0.8s-0.8-0.4-1.2-0.5
				c-0.4-0.1-0.9-0.2-1.4-0.2h-0.1c-0.5,0-0.9,0.1-1.4,0.2s-0.9,0.3-1.2,0.5c-0.3,0.2-0.7,0.5-0.9,0.8c-0.2,0.3-0.4,0.6-0.5,0.9
				c-0.1,0.3-0.1,0.8-0.1,1.6c0,0.8,0,1.6,0,2.4V21c0,0.4,0,0.8,0,1.2s0,0.8,0,1.2c0,0.4,0,0.7,0,1s0.1,0.5,0.1,0.6
				c0.1,0.3,0.3,0.6,0.5,0.9s0.5,0.5,0.9,0.8c0.4,0.2,0.8,0.4,1.2,0.5s0.9,0.2,1.4,0.2h0.1c0.5,0,0.9-0.1,1.4-0.2
				c0.4-0.1,0.9-0.3,1.2-0.5c0.4-0.2,0.7-0.5,0.9-0.8c0.3-0.3,0.4-0.6,0.5-0.9c0-0.1,0.1-0.3,0.1-0.6c0-0.3,0-0.6,0-1s0-0.7,0-1.2
				s0-0.8,0-1.2V18.8z"/>
			<path class="st1" d="M148.2,13v16.9h-3.1V13h-5.3v-3h13.5v3H148.2z"/>
			<path class="st1" d="M172.2,29.9l-2.2-6.2h-6.6l-2.2,6.2H158l7-19.9h3.4l7,19.9C175.4,29.9,172.2,29.9,172.2,29.9z M165.5,7.9
				l-1.8-1.8l3.9-4.1l1.8,1.8L165.5,7.9z M166.7,14.4l-2.2,6.3h4.4L166.7,14.4z"/>
		</g>
	</g>
	<g>
		<g>
			<path class="st1" d="M36.2,33.1v-4.7l2.9-2.8l-2.9-2.8V18l7.6,7.6L36.2,33.1z"/>
			<path class="st1" d="M76,28.3c0,1.8-0.4,3.2-1.3,4.2c-0.9,1-2.2,1.5-4.1,1.5h-9.2V14.1h8.3c0.8,0,1.5,0.1,2.2,0.4
				s1.2,0.6,1.7,1.1s0.9,1,1.1,1.7c0.3,0.7,0.4,1.4,0.4,2.1c0,0.5,0,1-0.1,1.6c0,0.6-0.2,1.1-0.4,1.6c-0.1,0.2-0.2,0.3-0.3,0.5
				s-0.2,0.3-0.4,0.5c0.8,0.7,1.3,1.4,1.6,2.1C75.9,26.4,76,27.3,76,28.3z M72.1,19.7c0-0.9-0.2-1.5-0.5-1.9s-1-0.7-1.9-0.7h-5.2
				v5.3h5.4c0.9,0,1.4-0.3,1.8-0.8C72,21.1,72.1,20.5,72.1,19.7z M73,28.2c0-0.8-0.2-1.4-0.6-2c-0.4-0.5-1-0.8-1.9-0.8h-6v5.5h6
				c0.9,0,1.5-0.3,1.9-0.8C72.8,29.6,73,29,73,28.2z"/>
			<path class="st1" d="M96.4,28.4c0,0,0,0.2-0.1,0.6c0,0.4-0.1,0.7-0.3,1.1c-0.5,1.3-1.4,2.4-2.6,3.1s-2.6,1.1-4.3,1.1H89
				c-1.6,0-3-0.3-4.3-1.1c-1.2-0.8-2.1-1.8-2.6-3.1c-0.2-0.4-0.3-0.7-0.3-1.1s-0.1-0.6-0.1-0.6l0,0l0,0v-8.8l0,0l0,0
				c0,0,0-0.2,0.1-0.6c0.1-0.4,0.1-0.7,0.3-1.1c0.5-1.4,1.4-2.4,2.6-3.1s2.6-1.1,4.3-1.1h0.1c1.6,0,3,0.3,4.3,1.1
				c1.2,0.7,2.1,1.8,2.6,3.2c0.1,0.3,0.2,0.7,0.3,1.1c0.1,0.4,0.1,0.6,0.1,0.6l0,0l0,0V28.4L96.4,28.4L96.4,28.4z M93.3,22.9
				c0-0.8,0-1.6,0-2.4s-0.1-1.3-0.1-1.6c-0.1-0.3-0.2-0.6-0.5-0.9s-0.6-0.5-0.9-0.8s-0.8-0.4-1.2-0.5c-0.4-0.1-0.9-0.2-1.4-0.2H89
				c-0.5,0-0.9,0.1-1.4,0.2s-0.9,0.3-1.2,0.5c-0.3,0.2-0.7,0.5-0.9,0.8c-0.2,0.3-0.4,0.6-0.5,0.9c-0.1,0.3-0.1,0.8-0.1,1.6
				c0,0.8,0,1.6,0,2.4v2.3c0,0.4,0,0.8,0,1.2s0,0.8,0,1.2c0,0.4,0,0.7,0,1s0.1,0.5,0.1,0.6c0.1,0.3,0.3,0.6,0.5,0.9
				c0.2,0.3,0.5,0.5,0.9,0.8c0.4,0.2,0.8,0.4,1.2,0.5s0.9,0.2,1.4,0.2h0.1c0.5,0,0.9-0.1,1.4-0.2c0.4-0.1,0.9-0.3,1.2-0.5
				c0.4-0.2,0.7-0.5,0.9-0.8c0.3-0.3,0.4-0.6,0.5-0.9c0-0.1,0.1-0.3,0.1-0.6c0-0.3,0-0.6,0-1s0-0.7,0-1.2s0-0.8,0-1.2v-2.3H93.3z"/>
			<path class="st1" d="M113.6,19.3l-0.3-0.9c-0.1-0.2-0.2-0.5-0.5-0.7c-0.2-0.2-0.5-0.4-0.9-0.6c-0.3-0.2-0.7-0.3-1.1-0.4
				c-0.4-0.1-0.8-0.2-1.2-0.2s-0.9,0.1-1.3,0.2c-0.4,0.1-0.9,0.3-1.2,0.5c-0.4,0.2-0.7,0.5-0.9,0.8c-0.3,0.3-0.4,0.6-0.5,0.9
				c0,0.1-0.1,0.3-0.1,0.6s0,0.6,0,0.9c0,0.4,0,0.7,0,1.1s0,0.8,0,1.2v2.7c0,0.8,0,1.4,0,1.9s0.1,0.9,0.1,1.1
				c0.1,0.3,0.3,0.6,0.5,0.9c0.3,0.3,0.6,0.6,0.9,0.8c0.4,0.2,0.8,0.4,1.2,0.6s0.9,0.2,1.3,0.2c0.6,0,1.2-0.1,1.8-0.3
				s1.1-0.5,1.4-0.8c0.3-0.4,0.5-0.7,0.5-1c0-0.1,0-0.2,0-0.4c0-0.2,0-0.3,0-0.4v-2.1h-4v-3.1h7.1v5.7c0,0.1,0,0.2,0,0.4
				s0,0.3-0.1,0.5c-0.1,0.5-0.3,1.1-0.6,1.6s-0.8,1-1.3,1.5c-0.6,0.4-1.2,0.8-2.1,1.1c-0.9,0.3-1.8,0.4-2.8,0.4
				c-1.6,0-3-0.4-4.3-1.1c-1.2-0.7-2.1-1.8-2.6-3.1c-0.1-0.1-0.1-0.3-0.2-0.5c0-0.2-0.1-0.4-0.1-0.6s-0.1-0.4-0.1-0.7l0,0v-8.6l0,0
				c0-0.1,0-0.3,0.1-0.6c0-0.4,0.1-0.7,0.3-1.1c0.5-1.3,1.4-2.4,2.6-3.1c1.2-0.7,2.6-1.1,4.3-1.1c1,0,1.8,0.1,2.6,0.3
				s1.4,0.5,1.9,0.9s1,0.8,1.3,1.2s0.6,0.9,0.7,1.3l0.3,0.8L113.6,19.3z"/>
			<path class="st1" d="M137.8,28.4c0,0,0,0.2-0.1,0.6c0,0.4-0.1,0.7-0.3,1.1c-0.5,1.3-1.4,2.4-2.6,3.1c-1.2,0.7-2.6,1.1-4.3,1.1
				h-0.1c-1.6,0-3-0.3-4.3-1.1c-1.2-0.8-2.1-1.8-2.6-3.1c-0.2-0.4-0.3-0.7-0.3-1.1s-0.1-0.6-0.1-0.6l0,0l0,0v-8.8l0,0l0,0
				c0,0,0-0.2,0.1-0.6c0.1-0.4,0.1-0.7,0.3-1.1c0.5-1.4,1.4-2.4,2.6-3.1s2.6-1.1,4.3-1.1h0.1c1.6,0,3,0.3,4.3,1.1
				c1.2,0.7,2.1,1.8,2.6,3.2c0.1,0.3,0.2,0.7,0.3,1.1s0.1,0.6,0.1,0.6l0,0l0,0V28.4L137.8,28.4L137.8,28.4z M134.8,22.9
				c0-0.8,0-1.6,0-2.4s-0.1-1.3-0.1-1.6c-0.1-0.3-0.2-0.6-0.5-0.9s-0.6-0.5-0.9-0.8s-0.8-0.4-1.2-0.5s-0.9-0.2-1.4-0.2h-0.1
				c-0.5,0-0.9,0.1-1.4,0.2s-0.9,0.3-1.2,0.5s-0.7,0.5-0.9,0.8c-0.2,0.3-0.4,0.6-0.5,0.9c-0.1,0.3-0.1,0.8-0.1,1.6
				c0,0.8,0,1.6,0,2.4v2.3c0,0.4,0,0.8,0,1.2s0,0.8,0,1.2c0,0.4,0,0.7,0,1s0.1,0.5,0.1,0.6c0.1,0.3,0.3,0.6,0.5,0.9
				c0.2,0.3,0.5,0.5,0.9,0.8c0.4,0.2,0.8,0.4,1.2,0.5s0.9,0.2,1.4,0.2h0.1c0.5,0,0.9-0.1,1.4-0.2c0.4-0.1,0.9-0.3,1.2-0.5
				c0.4-0.2,0.7-0.5,0.9-0.8c0.3-0.3,0.4-0.6,0.5-0.9c0-0.1,0.1-0.3,0.1-0.6c0-0.3,0-0.6,0-1s0-0.7,0-1.2s0-0.8,0-1.2V22.9z"/>
			<path class="st1" d="M152.3,17.1V34h-3.1V17.1h-5.3v-3h13.5v3H152.3z"/>
			<path class="st1" d="M176.2,34l-2.2-6.2h-6.6l-2.2,6.2H162l7-19.9h3.4l7,19.9H176.2z M169.6,12l-1.8-1.8l3.9-4.1l1.8,1.8
				L169.6,12z M170.8,18.4l-2.2,6.3h4.4L170.8,18.4z"/>
		</g>
	</g>
	<g class="st2">
		<g>
			<path class="st1" d="M34.2,31.1v-4.7l2.9-2.8l-2.9-2.8V16l7.6,7.6L34.2,31.1z"/>
			<path class="st1" d="M74,26.3c0,1.8-0.4,3.2-1.3,4.2c-0.9,1-2.2,1.5-4.1,1.5h-9.2V12h8.3c0.8,0,1.5,0.1,2.2,0.4
				c0.7,0.3,1.2,0.6,1.7,1.1s0.9,1,1.1,1.7c0.3,0.7,0.4,1.4,0.4,2.1c0,0.5,0,1-0.1,1.6c0,0.6-0.2,1.1-0.4,1.6
				c-0.1,0.2-0.2,0.3-0.3,0.5s-0.2,0.3-0.4,0.5c0.8,0.7,1.3,1.4,1.6,2.1C73.9,24.3,74,25.2,74,26.3z M70.1,17.7
				c0-0.9-0.2-1.5-0.5-1.9s-1-0.7-1.9-0.7h-5.2v5.3h5.4c0.9,0,1.4-0.3,1.8-0.8C69.9,19.1,70.1,18.5,70.1,17.7z M71,26.2
				c0-0.8-0.2-1.4-0.6-2c-0.4-0.5-1-0.8-1.9-0.8h-6v5.5h6c0.9,0,1.5-0.3,1.9-0.8C70.8,27.6,71,26.9,71,26.2z"/>
			<path class="st1" d="M94.4,26.4c0,0,0,0.2-0.1,0.6c0,0.4-0.1,0.7-0.3,1.1c-0.5,1.3-1.4,2.4-2.6,3.1s-2.6,1.1-4.3,1.1H87
				c-1.6,0-3-0.3-4.3-1.1c-1.2-0.8-2.1-1.8-2.6-3.1c-0.2-0.4-0.3-0.7-0.3-1.1s-0.1-0.6-0.1-0.6l0,0l0,0v-8.8l0,0l0,0
				c0,0,0-0.2,0.1-0.6c0.1-0.4,0.1-0.7,0.3-1.1c0.5-1.4,1.4-2.4,2.6-3.1s2.6-1.1,4.3-1.1h0.1c1.6,0,3,0.3,4.3,1.1
				c1.2,0.7,2.1,1.8,2.6,3.2c0.1,0.3,0.2,0.7,0.3,1.1c0.1,0.4,0.1,0.6,0.1,0.6l0,0l0,0V26.4L94.4,26.4L94.4,26.4z M91.3,20.8
				c0-0.8,0-1.6,0-2.4s-0.1-1.3-0.1-1.6c-0.1-0.3-0.2-0.6-0.5-0.9s-0.6-0.5-0.9-0.8s-0.8-0.4-1.2-0.5c-0.4-0.1-0.9-0.2-1.4-0.2H87
				c-0.5,0-0.9,0.1-1.4,0.2s-0.9,0.3-1.2,0.5c-0.3,0.2-0.7,0.5-0.9,0.8c-0.2,0.3-0.4,0.6-0.5,0.9c-0.1,0.3-0.1,0.8-0.1,1.6
				c0,0.8,0,1.6,0,2.4v2.3c0,0.4,0,0.8,0,1.2s0,0.8,0,1.2c0,0.4,0,0.7,0,1S83,27,83,27.1c0.1,0.3,0.3,0.6,0.5,0.9s0.5,0.5,0.9,0.8
				c0.4,0.2,0.8,0.4,1.2,0.5s0.9,0.2,1.4,0.2h0.1c0.5,0,0.9-0.1,1.4-0.2c0.4-0.1,0.9-0.3,1.2-0.5c0.4-0.2,0.7-0.5,0.9-0.8
				c0.3-0.3,0.4-0.6,0.5-0.9c0-0.1,0.1-0.3,0.1-0.6c0-0.3,0-0.6,0-1s0-0.7,0-1.2s0-0.8,0-1.2v-2.3H91.3z"/>
			<path class="st1" d="M111.6,17.3l-0.3-0.9c-0.1-0.2-0.2-0.5-0.5-0.7c-0.2-0.2-0.5-0.4-0.9-0.6c-0.3-0.2-0.7-0.3-1.1-0.4
				c-0.4-0.1-0.8-0.2-1.2-0.2s-0.9,0.1-1.3,0.2c-0.4,0.1-0.9,0.3-1.2,0.5c-0.4,0.2-0.7,0.5-0.9,0.8c-0.3,0.3-0.4,0.6-0.5,0.9
				c0,0.1-0.1,0.3-0.1,0.6s0,0.6,0,0.9c0,0.4,0,0.7,0,1.1s0,0.8,0,1.2v2.7c0,0.8,0,1.4,0,1.9s0.1,0.9,0.1,1.1
				c0.1,0.3,0.3,0.6,0.5,0.9c0.3,0.3,0.6,0.6,0.9,0.8c0.4,0.2,0.8,0.4,1.2,0.6s0.9,0.2,1.3,0.2c0.6,0,1.2-0.1,1.8-0.3
				s1.1-0.5,1.4-0.8c0.3-0.4,0.5-0.7,0.5-1c0-0.1,0-0.2,0-0.4c0-0.2,0-0.3,0-0.4v-2.1h-4v-3.1h7.1v5.7c0,0.1,0,0.2,0,0.4
				s0,0.3-0.1,0.5c-0.1,0.5-0.3,1.1-0.6,1.6s-0.8,1-1.3,1.5c-0.6,0.4-1.2,0.8-2.1,1.1c-0.9,0.3-1.8,0.4-2.8,0.4
				c-1.6,0-3-0.4-4.3-1.1c-1.2-0.7-2.1-1.8-2.6-3.1c-0.1-0.1-0.1-0.3-0.2-0.5c0-0.2-0.1-0.4-0.1-0.6s-0.1-0.4-0.1-0.7l0,0v-8.6l0,0
				c0-0.1,0-0.3,0.1-0.6c0-0.4,0.1-0.7,0.3-1.1c0.5-1.3,1.4-2.4,2.6-3.1c1.2-0.7,2.6-1.1,4.3-1.1c1,0,1.8,0.1,2.6,0.3
				s1.4,0.5,1.9,0.9s1,0.8,1.3,1.2s0.6,0.9,0.7,1.3l0.3,0.8L111.6,17.3z"/>
			<path class="st1" d="M135.8,26.4c0,0,0,0.2-0.1,0.6c0,0.4-0.1,0.7-0.3,1.1c-0.5,1.3-1.4,2.4-2.6,3.1c-1.2,0.7-2.6,1.1-4.3,1.1
				h-0.1c-1.6,0-3-0.3-4.3-1.1c-1.2-0.8-2.1-1.8-2.6-3.1c-0.2-0.4-0.3-0.7-0.3-1.1s-0.1-0.6-0.1-0.6l0,0l0,0v-8.8l0,0l0,0
				c0,0,0-0.2,0.1-0.6c0.1-0.4,0.1-0.7,0.3-1.1c0.5-1.4,1.4-2.4,2.6-3.1s2.6-1.1,4.3-1.1h0.1c1.6,0,3,0.3,4.3,1.1
				c1.2,0.7,2.1,1.8,2.6,3.2c0.1,0.3,0.2,0.7,0.3,1.1s0.1,0.6,0.1,0.6l0,0l0,0V26.4L135.8,26.4L135.8,26.4z M132.8,20.8
				c0-0.8,0-1.6,0-2.4s-0.1-1.3-0.1-1.6c-0.1-0.3-0.2-0.6-0.5-0.9s-0.6-0.5-0.9-0.8s-0.8-0.4-1.2-0.5s-0.9-0.2-1.4-0.2h-0.1
				c-0.5,0-0.9,0.1-1.4,0.2s-0.9,0.3-1.2,0.5c-0.3,0.2-0.7,0.5-0.9,0.8c-0.2,0.3-0.4,0.6-0.5,0.9c-0.1,0.3-0.1,0.8-0.1,1.6
				c0,0.8,0,1.6,0,2.4v2.3c0,0.4,0,0.8,0,1.2s0,0.8,0,1.2c0,0.4,0,0.7,0,1s0.1,0.5,0.1,0.6c0.1,0.3,0.3,0.6,0.5,0.9s0.5,0.5,0.9,0.8
				c0.4,0.2,0.8,0.4,1.2,0.5s0.9,0.2,1.4,0.2h0.1c0.5,0,0.9-0.1,1.4-0.2c0.4-0.1,0.9-0.3,1.2-0.5c0.4-0.2,0.7-0.5,0.9-0.8
				c0.3-0.3,0.4-0.6,0.5-0.9c0-0.1,0.1-0.3,0.1-0.6c0-0.3,0-0.6,0-1s0-0.7,0-1.2s0-0.8,0-1.2V20.8z"/>
			<path class="st1" d="M150.3,15v16.9h-3.1V15h-5.3v-3h13.5v3H150.3z"/>
			<path class="st1" d="M174.2,31.9l-2.2-6.2h-6.6l-2.2,6.2H160l7-19.9h3.4l7,19.9H174.2z M167.5,9.9l-1.8-1.8l3.9-4.1l1.8,1.8
				L167.5,9.9z M168.8,16.4l-2.2,6.3h4.4L168.8,16.4z"/>
		</g>
	</g>
	<line id="XMLID_2_" class="st3" x1="186.4" y1="22.6" x2="258.1" y2="22.6"/>
</g>
</svg>
