<?xml version="1.0" encoding="utf-8"?>
<!-- Generator: Adobe Illustrator 19.2.1, SVG Export Plug-In . SVG Version: 6.00 Build 0)  -->
<svg version="1.1" id="Capa_1" xmlns="http://www.w3.org/2000/svg" xmlns:xlink="http://www.w3.org/1999/xlink" x="0px" y="0px"
	 width="250px" height="250px" viewBox="0 0 250 250" style="enable-background:new 0 0 250 250;" xml:space="preserve">
<style type="text/css">
	.st0{fill:#2D2969;}
</style>
<g>
	<path class="st0" d="M32.8,129.2h7.9c-0.4,4.5-2,8.1-4.9,10.8c-2.9,2.7-6.7,4-11.3,4c-5.8,0-10.3-2-13.5-6.1
		c-2.7-3.4-4.1-7.7-4.1-12.8c0-5.6,1.6-10.2,4.9-13.8c3.3-3.6,7.5-5.3,12.7-5.3c5.1,0,9.3,1.7,12.4,5.2c2.1,2.3,3.2,4.9,3.4,7.9
		h-7.8c-0.8-4.2-3.6-6.4-8.2-6.4c-2.9,0-5.2,1.1-6.9,3.4c-1.7,2.2-2.6,5.2-2.6,9c0,3.8,0.9,6.8,2.6,9c1.7,2.2,4,3.4,6.9,3.4
		C29.4,137.4,32.2,134.7,32.8,129.2z"/>
	<path class="st0" d="M76.4,106.8l13.8,36.3h-8.3L79,135H65.5l-2.9,8.1h-8.2l13.8-36.3H76.4z M77,129.2l-2.3-6.5
		c-1-2.7-1.8-5.3-2.4-7.9c-0.2,0.9-0.6,2.2-1.2,3.9c-0.4,1.3-0.9,2.6-1.4,4l-2.3,6.5H77z"/>
	<path class="st0" d="M162.8,106.9h14.6c4.4,0,7.6,0.7,9.7,2.1c3.2,2.1,4.7,5.3,4.7,9.6c0,3.8-1.3,6.8-3.9,9c-2.1,1.7-5.1,2.6-9,2.6
		h-8.2v13h-7.9V106.9z M170.7,113.6v10.3h7.1c4.2,0,6.3-1.8,6.3-5.3c0-1.7-0.7-3.1-2-4c-0.9-0.7-2.5-1-4.7-1H170.7z"/>
	<path class="st0" d="M225.3,106c5.3,0,9.5,1.8,12.8,5.3c3.3,3.5,4.9,8.1,4.9,13.8c0,5.7-1.6,10.3-4.9,13.8c-3.3,3.5-7.6,5.2-13,5.2
		c-5.3,0-9.6-1.7-12.9-5.2c-3.3-3.5-4.9-8.1-4.9-13.8c0-5.7,1.6-10.3,4.9-13.8C215.5,107.7,219.9,106,225.3,106z M225.2,112.6
		c-3.1,0-5.5,1.1-7.3,3.3c-1.8,2.2-2.7,5.3-2.7,9.2c0,3.8,0.9,6.8,2.7,9c1.8,2.2,4.2,3.3,7.3,3.3c3,0,5.4-1.1,7.1-3.3
		c1.8-2.2,2.6-5.3,2.6-9.1c0-3.8-0.9-6.8-2.6-9.1C230.6,113.7,228.2,112.6,225.2,112.6z"/>
	<path class="st0" d="M105.9,143.1v-36.3h11l6.6,24.7l6.5-24.7h11v36.3h-6.8v-28.5l-7.2,28.5h-7l-7.2-28.5v28.5H105.9z"/>
</g>
</svg>
