<?xml version="1.0" encoding="utf-8"?>
<!-- Generator: Adobe Illustrator 19.2.1, SVG Export Plug-In . SVG Version: 6.00 Build 0)  -->
<svg version="1.1" id="Capa_1" xmlns="http://www.w3.org/2000/svg" xmlns:xlink="http://www.w3.org/1999/xlink" x="0px" y="0px"
	 width="273px" height="37px" viewBox="0 0 273 37" style="enable-background:new 0 0 273 37;" xml:space="preserve">
<style type="text/css">
	.st0{opacity:0.3;}
	.st1{fill:#2D2969;}
	.st2{opacity:0.7;}
	.st3{opacity:0.55;fill:none;stroke:#2D2969;stroke-width:4.0674;stroke-miterlimit:10;}
	.st4{fill:#FFFFFF;stroke:#2D2969;stroke-width:1.4985;stroke-miterlimit:10;}
	.st5{opacity:0.55;fill:none;stroke:#2D2969;stroke-width:1.998;stroke-miterlimit:10;}
	.st6{opacity:0.55;fill:#2D2969;}
</style>
<g class="st0">
	<g>
		<path class="st1" d="M32.2,29v-4.7l2.9-2.8l-2.9-2.8v-4.7l7.6,7.6L32.2,29z"/>
		<path class="st1" d="M67.8,14.8c-0.1-0.4-0.3-0.8-0.6-1c-0.3-0.3-0.7-0.5-1-0.7c-0.4-0.2-0.8-0.3-1.2-0.4
			c-0.4-0.1-0.8-0.1-1.2-0.1c-0.4,0-0.8,0.1-1.2,0.2c-0.4,0.1-0.8,0.3-1.2,0.4c-0.4,0.2-0.7,0.4-1,0.7s-0.5,0.6-0.6,1.1
			c0,0.1-0.1,0.4-0.1,0.7c0,0.3,0,0.6,0,1c0,0.3,0,0.7,0,1c0,0.3,0,0.5,0,0.7v3.4c0,0.2,0,0.4,0,0.7c0,0.3,0,0.6,0,0.9
			c0,0.3,0,0.6,0,0.9s0.1,0.5,0.1,0.7c0.1,0.4,0.3,0.8,0.6,1.1c0.3,0.3,0.6,0.5,1,0.7c0.4,0.2,0.8,0.4,1.2,0.4
			c0.4,0.1,0.8,0.1,1.2,0.1h0.1c0.4,0,0.8,0,1.2-0.2c0.4-0.1,0.8-0.2,1.2-0.4c0.4-0.2,0.7-0.4,1-0.7c0.3-0.3,0.5-0.7,0.6-1l2.6,1.7
			c-0.7,1.3-1.6,2.2-2.8,2.8c-1.2,0.6-2.5,0.9-3.8,0.9h0h-0.1c-0.7,0-1.5-0.1-2.2-0.2c-0.7-0.2-1.4-0.4-2-0.8
			c-0.6-0.3-1.1-0.8-1.6-1.3c-0.5-0.5-0.8-1.2-1.1-1.9c-0.1-0.3-0.2-0.5-0.3-0.8c-0.1-0.3-0.1-0.6-0.1-0.9v-8.7
			c0-0.6,0.1-1.2,0.4-1.8c0.6-1.5,1.5-2.5,2.7-3.2c1.2-0.7,2.6-1,4.1-1h0.1c1.5,0,2.9,0.3,4.1,1s2.1,1.7,2.7,3.2L67.8,14.8z"/>
		<path class="st1" d="M89.2,29.9L87,23.7h-6.6l-2.2,6.2h-3.2l7-20h3.4l7,20H89.2z M83.8,14.3l-2.2,6.3H86L83.8,14.3z"/>
		<path class="st1" d="M109.7,29.9l-4.3-8.4h-4.3v8.4h-3.1v-20h8.9l0.9,0.1c1.5,0.1,2.6,0.6,3.4,1.6c0.8,1,1.2,2.3,1.2,4.1v0.2
			c0,1.6-0.3,2.8-0.9,3.7c-0.6,0.9-1.5,1.5-2.7,1.8l4.5,8.6H109.7z M109.3,15.7c0-0.6-0.1-1-0.2-1.3c-0.1-0.3-0.3-0.6-0.6-0.9
			c-0.4-0.4-0.9-0.6-1.7-0.6h-5.8v5.5h5.8c0.7,0,1.3-0.2,1.7-0.6c0.3-0.3,0.5-0.5,0.6-0.8C109.2,16.8,109.3,16.3,109.3,15.7
			L109.3,15.7z"/>
		<path class="st1" d="M127.3,13v16.9h-3.1V13h-5.3v-3h13.5v3H127.3z"/>
		<path class="st1" d="M151.2,29.9l-2.2-6.2h-6.6l-2.2,6.2h-3.2l7-20h3.4l7,20H151.2z M145.8,14.3l-2.2,6.3h4.4L145.8,14.3z"/>
		<path class="st1" d="M170.3,15.2l-0.3-0.9c-0.1-0.2-0.2-0.5-0.5-0.7c-0.2-0.2-0.5-0.4-0.9-0.6c-0.3-0.2-0.7-0.3-1.1-0.4
			c-0.4-0.1-0.8-0.2-1.2-0.2c-0.4,0-0.9,0.1-1.3,0.2c-0.4,0.1-0.9,0.3-1.2,0.5c-0.4,0.2-0.7,0.5-0.9,0.8c-0.3,0.3-0.4,0.6-0.5,0.9
			c0,0.1-0.1,0.3-0.1,0.6s0,0.6,0,0.9c0,0.4,0,0.7,0,1.1s0,0.8,0,1.2v2.7c0,0.8,0,1.4,0,1.9s0.1,0.9,0.1,1.1
			c0.1,0.3,0.3,0.6,0.5,0.9c0.3,0.3,0.6,0.6,0.9,0.8c0.4,0.2,0.8,0.4,1.2,0.6s0.9,0.2,1.3,0.2c0.6,0,1.2-0.1,1.8-0.3
			s1.1-0.5,1.4-0.8c0.3-0.4,0.5-0.7,0.5-1c0-0.1,0-0.2,0-0.4c0-0.2,0-0.3,0-0.4v-2.1h-4V19h7.1l0,5.7c0,0.1,0,0.2,0,0.4
			s0,0.3-0.1,0.5c-0.1,0.5-0.3,1.1-0.6,1.6c-0.3,0.5-0.8,1-1.3,1.5c-0.6,0.4-1.2,0.8-2.1,1.1s-1.8,0.4-2.8,0.4c-1.6,0-3-0.4-4.3-1.1
			c-1.2-0.7-2.1-1.8-2.6-3.1c-0.1-0.1-0.1-0.3-0.2-0.5c0-0.2-0.1-0.4-0.1-0.6s-0.1-0.4-0.1-0.7v0v-8.6v0c0-0.1,0-0.3,0.1-0.6
			c0-0.4,0.1-0.7,0.3-1.1c0.5-1.3,1.4-2.4,2.6-3.1c1.2-0.7,2.6-1.1,4.3-1.1c1,0,1.8,0.1,2.6,0.3c0.8,0.2,1.4,0.5,1.9,0.9
			s1,0.8,1.3,1.2s0.6,0.9,0.7,1.3l0.3,0.8L170.3,15.2z"/>
		<path class="st1" d="M180.9,29.9V10h12.4v3h-9.3v5.2h8.1v3.1h-8.1v5.5h9.4v3.1H180.9z"/>
		<path class="st1" d="M211.2,29.9l-8.3-14.2v14.1h-3.1V9.9h3.2l8.4,14.4V9.8h3v20.1H211.2z"/>
		<path class="st1" d="M234.2,29.9l-2.2-6.2h-6.6l-2.2,6.2h-3.2l7-20h3.4l7,20H234.2z M228.8,14.3l-2.2,6.3h4.4L228.8,14.3z"/>
	</g>
</g>
<g>
	<g>
		<path class="st1" d="M36.2,33.1v-4.7l2.9-2.8l-2.9-2.8V18l7.6,7.6L36.2,33.1z"/>
		<path class="st1" d="M71.9,18.9c-0.1-0.4-0.3-0.8-0.6-1c-0.3-0.3-0.7-0.5-1-0.7c-0.4-0.2-0.8-0.3-1.2-0.4
			c-0.4-0.1-0.8-0.1-1.2-0.1c-0.4,0-0.8,0.1-1.2,0.2c-0.4,0.1-0.8,0.3-1.2,0.4c-0.4,0.2-0.7,0.4-1,0.7s-0.5,0.6-0.6,1.1
			c0,0.1-0.1,0.4-0.1,0.7c0,0.3,0,0.6,0,1c0,0.3,0,0.7,0,1c0,0.3,0,0.5,0,0.7v3.4c0,0.2,0,0.4,0,0.7c0,0.3,0,0.6,0,0.9
			c0,0.3,0,0.6,0,0.9s0.1,0.5,0.1,0.7c0.1,0.4,0.3,0.8,0.6,1.1c0.3,0.3,0.6,0.5,1,0.7c0.4,0.2,0.8,0.4,1.2,0.4
			c0.4,0.1,0.8,0.1,1.2,0.1h0.1c0.4,0,0.8,0,1.2-0.2c0.4-0.1,0.8-0.2,1.2-0.4c0.4-0.2,0.7-0.4,1-0.7c0.3-0.3,0.5-0.7,0.6-1l2.6,1.7
			c-0.7,1.3-1.6,2.2-2.8,2.8c-1.2,0.6-2.5,0.9-3.8,0.9h0h-0.1c-0.7,0-1.5-0.1-2.2-0.2c-0.7-0.2-1.4-0.4-2-0.8C63,33,62.5,32.5,62,32
			c-0.5-0.5-0.8-1.2-1.1-1.9c-0.1-0.3-0.2-0.5-0.3-0.8c-0.1-0.3-0.1-0.6-0.1-0.9v-8.7c0-0.6,0.1-1.2,0.4-1.8
			c0.6-1.5,1.5-2.5,2.7-3.2c1.2-0.7,2.6-1,4.1-1h0.1c1.5,0,2.9,0.3,4.1,1s2.1,1.7,2.7,3.2L71.9,18.9z"/>
		<path class="st1" d="M93.3,34l-2.2-6.2h-6.6L82.4,34h-3.2l7-20h3.4l7,20H93.3z M87.9,18.4l-2.2,6.3H90L87.9,18.4z"/>
		<path class="st1" d="M113.8,34l-4.3-8.4h-4.3V34h-3.1V14h8.9l0.9,0.1c1.5,0.1,2.6,0.6,3.4,1.6c0.8,1,1.2,2.3,1.2,4.1v0.2
			c0,1.6-0.3,2.8-0.9,3.7c-0.6,0.9-1.5,1.5-2.7,1.8l4.5,8.6H113.8z M113.4,19.8c0-0.6-0.1-1-0.2-1.3c-0.1-0.3-0.3-0.6-0.6-0.9
			c-0.4-0.4-0.9-0.6-1.7-0.6h-5.8v5.5h5.8c0.7,0,1.3-0.2,1.7-0.6c0.3-0.3,0.5-0.5,0.6-0.8C113.3,20.8,113.4,20.4,113.4,19.8
			L113.4,19.8z"/>
		<path class="st1" d="M131.4,17v16.9h-3.1V17H123v-3h13.5v3H131.4z"/>
		<path class="st1" d="M155.3,34l-2.2-6.2h-6.6l-2.2,6.2h-3.2l7-20h3.4l7,20H155.3z M149.9,18.4l-2.2,6.3h4.4L149.9,18.4z"/>
		<path class="st1" d="M174.4,19.3l-0.3-0.9c-0.1-0.2-0.2-0.5-0.5-0.7c-0.2-0.2-0.5-0.4-0.9-0.6c-0.3-0.2-0.7-0.3-1.1-0.4
			c-0.4-0.1-0.8-0.2-1.2-0.2c-0.4,0-0.9,0.1-1.3,0.2c-0.4,0.1-0.9,0.3-1.2,0.5c-0.4,0.2-0.7,0.5-0.9,0.8c-0.3,0.3-0.4,0.6-0.5,0.9
			c0,0.1-0.1,0.3-0.1,0.6s0,0.6,0,0.9c0,0.4,0,0.7,0,1.1s0,0.8,0,1.2v2.7c0,0.8,0,1.4,0,1.9s0.1,0.9,0.1,1.1
			c0.1,0.3,0.3,0.6,0.5,0.9c0.3,0.3,0.6,0.6,0.9,0.8c0.4,0.2,0.8,0.4,1.2,0.6s0.9,0.2,1.3,0.2c0.6,0,1.2-0.1,1.8-0.3
			s1.1-0.5,1.4-0.8c0.3-0.4,0.5-0.7,0.5-1c0-0.1,0-0.2,0-0.4c0-0.2,0-0.3,0-0.4v-2.1h-4v-3.1h7.1l0,5.7c0,0.1,0,0.2,0,0.4
			s0,0.3-0.1,0.5c-0.1,0.5-0.3,1.1-0.6,1.6c-0.3,0.5-0.8,1-1.3,1.5c-0.6,0.4-1.2,0.8-2.1,1.1s-1.8,0.4-2.8,0.4c-1.6,0-3-0.4-4.3-1.1
			c-1.2-0.7-2.1-1.8-2.6-3.1c-0.1-0.1-0.1-0.3-0.2-0.5c0-0.2-0.1-0.4-0.1-0.6s-0.1-0.4-0.1-0.7v0v-8.6v0c0-0.1,0-0.3,0.1-0.6
			c0-0.4,0.1-0.7,0.3-1.1c0.5-1.3,1.4-2.4,2.6-3.1c1.2-0.7,2.6-1.1,4.3-1.1c1,0,1.8,0.1,2.6,0.3c0.8,0.2,1.4,0.5,1.9,0.9
			s1,0.8,1.3,1.2s0.6,0.9,0.7,1.3l0.3,0.8L174.4,19.3z"/>
		<path class="st1" d="M184.9,33.9V14.1h12.4v3H188v5.2h8.1v3.1H188v5.5h9.4v3.1H184.9z"/>
		<path class="st1" d="M215.3,34L207,19.8v14.1H204V14h3.2l8.4,14.4V13.9h3V34H215.3z"/>
		<path class="st1" d="M238.3,34l-2.2-6.2h-6.6l-2.2,6.2h-3.2l7-20h3.4l7,20H238.3z M232.8,18.4l-2.2,6.3h4.4L232.8,18.4z"/>
	</g>
</g>
<g class="st2">
	<g>
		<path class="st1" d="M34.2,31.1v-4.7l2.9-2.8l-2.9-2.8v-4.7l7.6,7.6L34.2,31.1z"/>
		<path class="st1" d="M69.9,16.9c-0.1-0.4-0.3-0.8-0.6-1c-0.3-0.3-0.7-0.5-1-0.7c-0.4-0.2-0.8-0.3-1.2-0.4
			c-0.4-0.1-0.8-0.1-1.2-0.1c-0.4,0-0.8,0.1-1.2,0.2c-0.4,0.1-0.8,0.3-1.2,0.4c-0.4,0.2-0.7,0.4-1,0.7s-0.5,0.6-0.6,1.1
			c0,0.1-0.1,0.4-0.1,0.7c0,0.3,0,0.6,0,1c0,0.3,0,0.7,0,1c0,0.3,0,0.5,0,0.7v3.4c0,0.2,0,0.4,0,0.7c0,0.3,0,0.6,0,0.9
			c0,0.3,0,0.6,0,0.9s0.1,0.5,0.1,0.7c0.1,0.4,0.3,0.8,0.6,1.1c0.3,0.3,0.6,0.5,1,0.7c0.4,0.2,0.8,0.4,1.2,0.4
			c0.4,0.1,0.8,0.1,1.2,0.1h0.1c0.4,0,0.8,0,1.2-0.2c0.4-0.1,0.8-0.2,1.2-0.4c0.4-0.2,0.7-0.4,1-0.7c0.3-0.3,0.5-0.7,0.6-1l2.6,1.7
			c-0.7,1.3-1.6,2.2-2.8,2.8c-1.2,0.6-2.5,0.9-3.8,0.9h0h-0.1c-0.7,0-1.5-0.1-2.2-0.2c-0.7-0.2-1.4-0.4-2-0.8
			C61,30.9,60.5,30.5,60,30c-0.5-0.5-0.8-1.2-1.1-1.9c-0.1-0.3-0.2-0.5-0.3-0.8c-0.1-0.3-0.1-0.6-0.1-0.9v-8.7
			c0-0.6,0.1-1.2,0.4-1.8c0.6-1.5,1.5-2.5,2.7-3.2c1.2-0.7,2.6-1,4.1-1h0.1c1.5,0,2.9,0.3,4.1,1s2.1,1.7,2.7,3.2L69.9,16.9z"/>
		<path class="st1" d="M91.2,31.9l-2.2-6.2h-6.6l-2.2,6.2h-3.2l7-20h3.4l7,20H91.2z M85.8,16.4l-2.2,6.3H88L85.8,16.4z"/>
		<path class="st1" d="M111.8,31.9l-4.3-8.4h-4.3v8.4h-3.1v-20h8.9l0.9,0.1c1.5,0.1,2.6,0.6,3.4,1.6c0.8,1,1.2,2.3,1.2,4.1v0.2
			c0,1.6-0.3,2.8-0.9,3.7c-0.6,0.9-1.5,1.5-2.7,1.8l4.5,8.6H111.8z M111.4,17.7c0-0.6-0.1-1-0.2-1.3c-0.1-0.3-0.3-0.6-0.6-0.9
			c-0.4-0.4-0.9-0.6-1.7-0.6h-5.8v5.5h5.8c0.7,0,1.3-0.2,1.7-0.6c0.3-0.3,0.5-0.5,0.6-0.8C111.3,18.8,111.4,18.4,111.4,17.7
			L111.4,17.7z"/>
		<path class="st1" d="M129.3,15v16.9h-3.1V15H121v-3h13.5v3H129.3z"/>
		<path class="st1" d="M153.3,31.9l-2.2-6.2h-6.6l-2.2,6.2h-3.2l7-20h3.4l7,20H153.3z M147.8,16.4l-2.2,6.3h4.4L147.8,16.4z"/>
		<path class="st1" d="M172.4,17.3l-0.3-0.9c-0.1-0.2-0.2-0.5-0.5-0.7c-0.2-0.2-0.5-0.4-0.9-0.6c-0.3-0.2-0.7-0.3-1.1-0.4
			c-0.4-0.1-0.8-0.2-1.2-0.2c-0.4,0-0.9,0.1-1.3,0.2c-0.4,0.1-0.9,0.3-1.2,0.5c-0.4,0.2-0.7,0.5-0.9,0.8c-0.3,0.3-0.4,0.6-0.5,0.9
			c0,0.1-0.1,0.3-0.1,0.6s0,0.6,0,0.9c0,0.4,0,0.7,0,1.1s0,0.8,0,1.2v2.7c0,0.8,0,1.4,0,1.9s0.1,0.9,0.1,1.1
			c0.1,0.3,0.3,0.6,0.5,0.9c0.3,0.3,0.6,0.6,0.9,0.8c0.4,0.2,0.8,0.4,1.2,0.6s0.9,0.2,1.3,0.2c0.6,0,1.2-0.1,1.8-0.3
			s1.1-0.5,1.4-0.8c0.3-0.4,0.5-0.7,0.5-1c0-0.1,0-0.2,0-0.4c0-0.2,0-0.3,0-0.4v-2.1h-4V21h7.1l0,5.7c0,0.1,0,0.2,0,0.4
			s0,0.3-0.1,0.5c-0.1,0.5-0.3,1.1-0.6,1.6c-0.3,0.5-0.8,1-1.3,1.5c-0.6,0.4-1.2,0.8-2.1,1.1c-0.8,0.3-1.8,0.4-2.8,0.4
			c-1.6,0-3-0.4-4.3-1.1c-1.2-0.7-2.1-1.8-2.6-3.1c-0.1-0.1-0.1-0.3-0.2-0.5c0-0.2-0.1-0.4-0.1-0.6s-0.1-0.4-0.1-0.7v0v-8.6v0
			c0-0.1,0-0.3,0.1-0.6c0-0.4,0.1-0.7,0.3-1.1c0.5-1.3,1.4-2.4,2.6-3.1c1.2-0.7,2.6-1.1,4.3-1.1c1,0,1.8,0.1,2.6,0.3
			c0.8,0.2,1.4,0.5,1.9,0.9s1,0.8,1.3,1.2s0.6,0.9,0.7,1.3l0.3,0.8L172.4,17.3z"/>
		<path class="st1" d="M182.9,31.9V12.1h12.4v3H186v5.2h8.1v3.1H186v5.5h9.4v3.1H182.9z"/>
		<path class="st1" d="M213.3,31.9L205,17.8v14.1h-3.1V12h3.2l8.4,14.4V11.9h3v20.1H213.3z"/>
		<path class="st1" d="M236.2,31.9l-2.2-6.2h-6.6l-2.2,6.2h-3.2l7-20h3.4l7,20H236.2z M230.8,16.4l-2.2,6.3h4.4L230.8,16.4z"/>
	</g>
</g>
<line id="XMLID_87_" class="st3" x1="245.2" y1="22.6" x2="258.1" y2="22.6"/>
</svg>
