<?xml version="1.0" encoding="utf-8"?>
<!-- Generator: Adobe Illustrator 19.2.1, SVG Export Plug-In . SVG Version: 6.00 Build 0)  -->
<svg version="1.1" id="Capa_1" xmlns="http://www.w3.org/2000/svg" xmlns:xlink="http://www.w3.org/1999/xlink" x="0px" y="0px"
	 width="273px" height="76.2px" viewBox="0 0 273 76.2" style="enable-background:new 0 0 273 76.2;" xml:space="preserve">
<style type="text/css">
	.st0{opacity:0.3;}
	.st1{fill:#2D2969;}
	.st2{opacity:0.7;}
	.st3{opacity:0.55;fill:none;stroke:#2D2969;stroke-width:4.0674;stroke-miterlimit:10;}
	.st4{fill:#FFFFFF;stroke:#2D2969;stroke-width:1.4985;stroke-miterlimit:10;}
	.st5{opacity:0.55;fill:none;stroke:#2D2969;stroke-width:1.998;stroke-miterlimit:10;}
	.st6{opacity:0.55;fill:#2D2969;}
</style>
<rect id="XMLID_83_" x="14.3" y="12.2" class="st4" width="246.6" height="60.8"/>
<polyline id="XMLID_71_" class="st5" points="14.3,65 6.4,65 6.4,4.2 253,4.2 253,12.2 "/>
<g>
	<g>
		<path class="st6" d="M37.5,32.1c0,0.2-0.1,0.4-0.1,0.6c-0.1,0.2-0.1,0.3-0.2,0.5C36.8,34.3,36,35.3,35,36c-1,0.7-2.2,1.1-3.6,1.2
			l-0.9,0.1h-7.4V17.8h7.4l0.9,0.1c1.4,0.1,2.6,0.5,3.6,1.2s1.8,1.7,2.2,2.9c0.2,0.4,0.3,0.7,0.3,1.1c0,0.4,0.1,0.6,0.1,0.6v0v7.8
			C37.6,31.7,37.6,31.9,37.5,32.1z M34.5,26.9c0-0.4,0-0.8,0-1.2c0-0.4,0-0.8,0-1.1c0-0.3,0-0.6,0-0.9c0-0.3,0-0.5-0.1-0.6
			c-0.1-0.3-0.3-0.6-0.5-0.9s-0.6-0.5-0.9-0.8c-0.3-0.2-0.7-0.4-1.2-0.5c-0.4-0.1-0.8-0.2-1.3-0.2h-4.4v13.5h4.3
			c0.4,0,0.9-0.1,1.3-0.2c0.4-0.1,0.8-0.3,1.2-0.5c0.4-0.2,0.7-0.5,0.9-0.8c0.3-0.3,0.4-0.6,0.5-0.9c0-0.1,0.1-0.3,0.1-0.6
			c0-0.3,0-0.6,0-0.9c0-0.3,0-0.7,0-1.1s0-0.8,0-1.2V26.9z"/>
		<path class="st6" d="M44,37.3V17.8h12.2v3H47v5.1h8v3h-8v5.4h9.3v3H44z"/>
		<path class="st6" d="M72.7,22.5l-0.4-0.7c-0.4-0.7-1-1-1.9-1h-3.5c-0.5,0-0.9,0.1-1.2,0.2c-0.3,0.1-0.6,0.3-0.7,0.6
			s-0.3,0.5-0.4,0.8c-0.1,0.3-0.1,0.7-0.1,1c0,0.4,0,0.7,0.1,1c0.1,0.3,0.2,0.6,0.4,0.9c0.2,0.3,0.4,0.4,0.7,0.6
			c0.3,0.1,0.7,0.2,1.2,0.2h4.4c1,0.1,1.9,0.5,2.5,1.1c0.7,0.6,1.2,1.2,1.5,2c0.3,0.8,0.5,1.6,0.5,2.5s-0.2,1.7-0.5,2.5
			c-0.3,0.8-0.8,1.5-1.5,2c-0.7,0.6-1.5,0.9-2.5,1.1h-5.4c-1.1-0.1-2-0.5-2.7-1.2c-0.7-0.6-1.2-1.5-1.5-2.7l-0.2-0.8l2.9-0.8
			l0.2,0.8c0.3,1.2,1,1.7,2.2,1.7h3.5c0.5,0,0.9-0.1,1.2-0.2c0.3-0.2,0.6-0.4,0.7-0.6c0.2-0.2,0.3-0.5,0.4-0.9
			c0.1-0.3,0.1-0.7,0.1-1c0-0.3,0-0.7-0.1-1c-0.1-0.3-0.2-0.6-0.4-0.8s-0.4-0.4-0.7-0.6s-0.7-0.2-1.2-0.2h-4.4
			c-1.4-0.2-2.5-0.8-3.3-1.7s-1.1-2.2-1.1-4v-0.1c0-1.7,0.4-3.1,1.1-4c0.8-0.9,1.9-1.5,3.3-1.6l0.9-0.1h3.7l0.9,0.1
			c0.8,0.1,1.6,0.3,2.2,0.7s1.1,1,1.5,1.6l0.4,0.7L72.7,22.5z"/>
		<path class="st6" d="M92.6,22.5c-0.1-0.4-0.3-0.7-0.6-1s-0.6-0.5-1-0.7c-0.4-0.2-0.8-0.3-1.2-0.4c-0.4-0.1-0.8-0.1-1.2-0.1
			c-0.4,0-0.7,0.1-1.2,0.1c-0.4,0.1-0.8,0.2-1.2,0.4c-0.4,0.2-0.7,0.4-1,0.7c-0.3,0.3-0.5,0.6-0.6,1c0,0.1-0.1,0.4-0.1,0.7
			c0,0.3,0,0.6,0,0.9c0,0.3,0,0.6,0,0.9s0,0.5,0,0.7v3.4c0,0.2,0,0.4,0,0.7c0,0.3,0,0.6,0,0.9c0,0.3,0,0.6,0,0.9
			c0,0.3,0,0.5,0.1,0.7c0.1,0.4,0.3,0.7,0.6,1c0.3,0.3,0.6,0.5,1,0.7c0.4,0.2,0.8,0.3,1.2,0.4c0.4,0.1,0.8,0.1,1.2,0.1h0.1
			c0.4,0,0.7,0,1.2-0.1c0.4-0.1,0.8-0.2,1.2-0.4c0.4-0.2,0.7-0.4,1-0.7c0.3-0.3,0.5-0.6,0.6-1l2.5,1.6c-0.6,1.3-1.5,2.2-2.7,2.7
			s-2.4,0.8-3.8,0.8h0h-0.1c-0.7,0-1.4-0.1-2.1-0.2c-0.7-0.2-1.3-0.4-1.9-0.7c-0.6-0.3-1.1-0.8-1.6-1.3c-0.5-0.5-0.8-1.1-1.1-1.9
			c-0.1-0.3-0.2-0.5-0.3-0.8c-0.1-0.3-0.1-0.6-0.1-0.9v-8.6c0-0.6,0.1-1.2,0.4-1.8c0.6-1.4,1.5-2.5,2.7-3.1c1.2-0.7,2.6-1,4.1-1h0.1
			c1.5,0,2.9,0.3,4.1,1c1.2,0.7,2.1,1.7,2.7,3.1L92.6,22.5z"/>
		<path class="st6" d="M113.1,37.3l-2.1-6.1h-6.4l-2.1,6.1h-3.2l6.9-19.6h3.3l6.9,19.6H113.1z M107.8,22l-2.2,6.2h4.3L107.8,22z"/>
		<path class="st6" d="M132.8,37.3l-4.3-8.2h-4.2v8.2h-3V17.7h8.7l0.9,0.1c1.4,0.1,2.5,0.6,3.3,1.6c0.8,0.9,1.2,2.3,1.2,4v0.1
			c0,1.6-0.3,2.8-0.9,3.6s-1.5,1.4-2.7,1.8l4.4,8.5H132.8z M132.4,23.4c0-0.6-0.1-1-0.2-1.3c-0.1-0.3-0.3-0.6-0.6-0.8
			c-0.4-0.4-0.9-0.6-1.6-0.6h-5.7v5.4h5.7c0.7,0,1.2-0.2,1.6-0.6c0.3-0.3,0.5-0.5,0.6-0.8C132.3,24.4,132.4,24,132.4,23.4
			L132.4,23.4z"/>
		<path class="st6" d="M152.4,22.9l-0.3-0.9c-0.1-0.2-0.2-0.5-0.5-0.7c-0.2-0.2-0.5-0.4-0.8-0.6c-0.3-0.2-0.7-0.3-1.1-0.4
			s-0.8-0.1-1.2-0.1c-0.4,0-0.9,0.1-1.3,0.2s-0.8,0.3-1.2,0.5c-0.4,0.2-0.7,0.5-0.9,0.8c-0.3,0.3-0.4,0.6-0.5,0.9
			c0,0.1-0.1,0.3-0.1,0.6c0,0.3,0,0.6,0,0.9c0,0.3,0,0.7,0,1.1s0,0.8,0,1.2v2.7c0,0.8,0,1.4,0,1.9c0,0.5,0.1,0.8,0.1,1.1
			c0.1,0.3,0.3,0.6,0.5,0.9c0.3,0.3,0.6,0.6,0.9,0.8c0.4,0.2,0.8,0.4,1.2,0.6c0.4,0.1,0.9,0.2,1.3,0.2c0.6,0,1.2-0.1,1.8-0.3
			c0.6-0.2,1.1-0.5,1.4-0.8c0.3-0.4,0.5-0.7,0.5-1c0-0.1,0-0.2,0-0.4s0-0.3,0-0.4v-2h-4v-3h7l0,5.6c0,0.1,0,0.2,0,0.4s0,0.3-0.1,0.5
			c-0.1,0.5-0.3,1.1-0.6,1.6c-0.3,0.5-0.8,1-1.3,1.5c-0.5,0.4-1.2,0.8-2,1c-0.8,0.3-1.7,0.4-2.8,0.4c-1.6,0-3-0.4-4.2-1.1
			c-1.2-0.7-2-1.8-2.6-3.1c-0.1-0.1-0.1-0.3-0.2-0.5c0-0.2-0.1-0.3-0.1-0.6s-0.1-0.4-0.1-0.7v0v-8.5v0c0-0.1,0-0.3,0.1-0.6
			c0-0.4,0.1-0.7,0.3-1.1c0.5-1.3,1.4-2.3,2.6-3.1c1.2-0.7,2.6-1.1,4.2-1.1c1,0,1.8,0.1,2.5,0.3s1.4,0.5,1.9,0.9
			c0.5,0.4,1,0.8,1.3,1.2c0.3,0.4,0.6,0.9,0.7,1.3l0.3,0.8L152.4,22.9z"/>
		<path class="st6" d="M173.9,37.3l-2.1-6.1h-6.4l-2.1,6.1H160l6.9-19.6h3.3l6.9,19.6H173.9z M168.6,22l-2.2,6.2h4.3L168.6,22z"/>
		<path class="st6" d="M193.6,37.3l-4.3-8.2h-4.2v8.2h-3V17.7h8.7l0.9,0.1c1.4,0.1,2.5,0.6,3.3,1.6c0.8,0.9,1.2,2.3,1.2,4v0.1
			c0,1.6-0.3,2.8-0.9,3.6s-1.5,1.4-2.7,1.8l4.4,8.5H193.6z M193.2,23.4c0-0.6-0.1-1-0.2-1.3c-0.1-0.3-0.3-0.6-0.6-0.8
			c-0.4-0.4-0.9-0.6-1.6-0.6h-5.7v5.4h5.7c0.7,0,1.2-0.2,1.6-0.6c0.3-0.3,0.5-0.5,0.6-0.8C193.2,24.4,193.2,24,193.2,23.4
			L193.2,23.4z"/>
		<path class="st6" d="M36,56c-0.8,1-1.9,1.6-3.3,1.8l-0.9,0.1h-5.7v7.4h-3V45.6h8.7l0.9,0.1c1.4,0.2,2.5,0.8,3.3,1.8
			c0.8,1,1.2,2.4,1.2,4.2v0.2C37.2,53.5,36.8,54.9,36,56z M34.2,51.7c0-1.1-0.3-2-0.8-2.5c-0.4-0.4-0.9-0.6-1.6-0.6h-5.7v6.2h5.7
			c0.7,0,1.2-0.2,1.6-0.6C33.9,53.7,34.2,52.9,34.2,51.7L34.2,51.7z"/>
		<path class="st6" d="M54.8,65.3l-4.3-8.2h-4.2v8.2h-3V45.7H52l0.9,0.1c1.4,0.1,2.5,0.6,3.3,1.6c0.8,0.9,1.2,2.3,1.2,4v0.1
			c0,1.6-0.3,2.8-0.9,3.6c-0.6,0.8-1.5,1.4-2.7,1.8l4.4,8.5H54.8z M54.3,51.4c0-0.6-0.1-1-0.2-1.3s-0.3-0.6-0.6-0.8
			c-0.4-0.4-0.9-0.6-1.6-0.6h-5.7v5.4h5.7c0.7,0,1.2-0.2,1.6-0.6c0.3-0.3,0.5-0.5,0.6-0.8C54.3,52.4,54.3,52,54.3,51.4L54.3,51.4z"
			/>
		<path class="st6" d="M77.7,59.8c0,0,0,0.2-0.1,0.6s-0.1,0.7-0.3,1.1c-0.5,1.3-1.4,2.3-2.6,3.1c-1.2,0.7-2.6,1.1-4.2,1.1h-0.1
			c-1.6,0-3-0.3-4.2-1c-1.2-0.7-2-1.8-2.6-3.1c-0.2-0.4-0.3-0.7-0.3-1.1s-0.1-0.6-0.1-0.6v0v0v-8.6v0v0c0,0,0-0.2,0.1-0.6
			c0-0.4,0.1-0.7,0.3-1.1c0.5-1.3,1.4-2.4,2.6-3.1c1.2-0.7,2.6-1.1,4.2-1.1h0.1c1.6,0,3,0.3,4.2,1.1c1.2,0.7,2,1.8,2.6,3.1
			c0.1,0.3,0.2,0.7,0.3,1.1c0,0.4,0.1,0.6,0.1,0.6v0v0V59.8L77.7,59.8L77.7,59.8z M74.7,54.4c0-0.8,0-1.6,0-2.3
			c0-0.8-0.1-1.3-0.1-1.6c-0.1-0.3-0.2-0.6-0.5-0.9c-0.3-0.3-0.6-0.5-0.9-0.8c-0.4-0.2-0.8-0.4-1.2-0.5c-0.4-0.1-0.9-0.2-1.3-0.2
			h-0.1c-0.5,0-0.9,0.1-1.3,0.2c-0.4,0.1-0.8,0.3-1.2,0.5c-0.4,0.2-0.7,0.5-0.9,0.8c-0.2,0.3-0.4,0.6-0.5,0.9
			c-0.1,0.3-0.1,0.8-0.1,1.6c0,0.8,0,1.5,0,2.3v2.2c0,0.4,0,0.8,0,1.2c0,0.4,0,0.8,0,1.1c0,0.3,0,0.7,0,0.9c0,0.3,0,0.5,0.1,0.6
			c0.1,0.3,0.3,0.6,0.5,0.9c0.2,0.3,0.5,0.5,0.9,0.7s0.8,0.4,1.2,0.5c0.4,0.1,0.9,0.2,1.3,0.2h0.1c0.5,0,0.9-0.1,1.3-0.2
			c0.4-0.1,0.8-0.3,1.2-0.5s0.7-0.5,0.9-0.7c0.3-0.3,0.4-0.6,0.5-0.9c0-0.1,0.1-0.3,0.1-0.6c0-0.3,0-0.6,0-0.9c0-0.3,0-0.7,0-1.1
			c0-0.4,0-0.8,0-1.2V54.4z"/>
		<path class="st6" d="M94.1,50.9L93.9,50c-0.1-0.2-0.2-0.5-0.5-0.7c-0.2-0.2-0.5-0.4-0.8-0.6c-0.3-0.2-0.7-0.3-1.1-0.4
			s-0.8-0.2-1.2-0.2c-0.4,0-0.9,0.1-1.3,0.2s-0.8,0.3-1.2,0.5c-0.4,0.2-0.7,0.5-0.9,0.8c-0.3,0.3-0.4,0.6-0.5,0.9
			c0,0.1-0.1,0.3-0.1,0.6c0,0.3,0,0.6,0,0.9c0,0.3,0,0.7,0,1.1s0,0.8,0,1.2v2.7c0,0.8,0,1.4,0,1.9c0,0.5,0.1,0.8,0.1,1.1
			c0.1,0.3,0.3,0.6,0.5,0.9s0.6,0.6,0.9,0.8c0.4,0.2,0.8,0.4,1.2,0.6c0.4,0.1,0.9,0.2,1.3,0.2c0.6,0,1.2-0.1,1.8-0.3
			c0.6-0.2,1.1-0.5,1.4-0.8c0.3-0.4,0.5-0.7,0.5-1c0-0.1,0-0.2,0-0.4s0-0.3,0-0.4v-2h-4v-3h7l0,5.6c0,0.1,0,0.2,0,0.4
			c0,0.2,0,0.3-0.1,0.5c-0.1,0.5-0.3,1.1-0.6,1.6c-0.3,0.5-0.8,1-1.3,1.5s-1.2,0.8-2,1c-0.8,0.3-1.7,0.4-2.8,0.4
			c-1.6,0-3-0.4-4.2-1.1c-1.2-0.7-2-1.8-2.6-3.1c-0.1-0.1-0.1-0.3-0.2-0.5c0-0.2-0.1-0.3-0.1-0.6s-0.1-0.4-0.1-0.7v0v-8.5v0
			c0-0.1,0-0.3,0.1-0.6c0-0.4,0.1-0.7,0.3-1.1c0.5-1.3,1.4-2.3,2.6-3.1c1.2-0.7,2.6-1.1,4.2-1.1c1,0,1.8,0.1,2.5,0.3
			s1.4,0.5,1.9,0.9c0.5,0.4,1,0.8,1.3,1.2c0.3,0.4,0.6,0.9,0.7,1.3l0.3,0.8L94.1,50.9z"/>
		<path class="st6" d="M115.5,65.3l-4.3-8.2h-4.2v8.2h-3V45.7h8.7l0.9,0.1c1.4,0.1,2.5,0.6,3.3,1.6c0.8,0.9,1.2,2.3,1.2,4v0.1
			c0,1.6-0.3,2.8-0.9,3.6c-0.6,0.8-1.5,1.4-2.7,1.8l4.4,8.5H115.5z M115.1,51.4c0-0.6-0.1-1-0.2-1.3s-0.3-0.6-0.6-0.8
			c-0.4-0.4-0.9-0.6-1.6-0.6h-5.7v5.4h5.7c0.7,0,1.2-0.2,1.6-0.6c0.3-0.3,0.5-0.5,0.6-0.8C115.1,52.4,115.1,52,115.1,51.4
			L115.1,51.4z"/>
		<path class="st6" d="M136.6,65.3l-2.1-6.1h-6.4l-2.1,6.1h-3.2l6.9-19.6h3.3l6.9,19.6H136.6z M131.3,50l-2.2,6.2h4.3L131.3,50z"/>
		<path class="st6" d="M157.6,65.3V53.2l-3.7,8.8h-2.5l-3.7-8.7v12h-2.9l0-19.6h3l4.9,11.6l4.9-11.6h3.1v19.6H157.6z"/>
		<path class="st6" d="M179.6,65.3l-2.1-6.1H171l-2.1,6.1h-3.2l6.9-19.6h3.3l6.9,19.6H179.6z M174.2,50l-2.2,6.2h4.3L174.2,50z"/>
		<path class="st6" d="M198,50.5c-0.1-0.4-0.3-0.7-0.6-1c-0.3-0.3-0.6-0.5-1-0.7c-0.4-0.2-0.8-0.3-1.2-0.4c-0.4-0.1-0.8-0.1-1.2-0.1
			c-0.4,0-0.7,0-1.2,0.1c-0.4,0.1-0.8,0.2-1.2,0.4c-0.4,0.2-0.7,0.4-1,0.7c-0.3,0.3-0.5,0.6-0.6,1c0,0.1-0.1,0.4-0.1,0.7
			c0,0.3,0,0.6,0,0.9c0,0.3,0,0.6,0,0.9s0,0.5,0,0.7v3.4c0,0.2,0,0.4,0,0.7s0,0.6,0,0.9c0,0.3,0,0.6,0,0.9c0,0.3,0,0.5,0.1,0.7
			c0.1,0.4,0.3,0.7,0.6,1c0.3,0.3,0.6,0.5,1,0.7c0.4,0.2,0.8,0.3,1.2,0.4s0.8,0.1,1.2,0.1h0.1c0.4,0,0.7,0,1.2-0.2
			c0.4-0.1,0.8-0.2,1.2-0.4c0.4-0.2,0.7-0.4,1-0.7c0.3-0.3,0.5-0.6,0.6-1l2.5,1.6c-0.6,1.3-1.5,2.2-2.7,2.7
			c-1.2,0.6-2.4,0.8-3.8,0.8h0H194c-0.7,0-1.4-0.1-2.1-0.2c-0.7-0.2-1.3-0.4-1.9-0.7c-0.6-0.3-1.1-0.8-1.6-1.3s-0.8-1.1-1.1-1.9
			c-0.1-0.3-0.2-0.5-0.3-0.8c-0.1-0.3-0.1-0.6-0.1-0.9v-8.6c0-0.6,0.1-1.2,0.4-1.8c0.6-1.4,1.5-2.5,2.7-3.1c1.2-0.7,2.6-1,4.1-1h0.1
			c1.5,0,2.9,0.3,4.1,1s2.1,1.7,2.7,3.1L198,50.5z"/>
		<path class="st6" d="M207,65.3V45.6h3v19.7H207z"/>
		<path class="st6" d="M230.7,59.8c0,0,0,0.2-0.1,0.6s-0.1,0.7-0.3,1.1c-0.5,1.3-1.4,2.3-2.6,3.1c-1.2,0.7-2.6,1.1-4.2,1.1h-0.1
			c-1.6,0-3-0.3-4.2-1c-1.2-0.7-2-1.8-2.6-3.1c-0.2-0.4-0.3-0.7-0.3-1.1s-0.1-0.6-0.1-0.6v0v0v-8.6v0v0c0,0,0-0.2,0.1-0.6
			c0-0.4,0.1-0.7,0.3-1.1c0.5-1.3,1.4-2.4,2.6-3.1c1.2-0.7,2.6-1.1,4.2-1.1h0.1c1.6,0,3,0.3,4.2,1.1c1.2,0.7,2,1.8,2.6,3.1
			c0.1,0.3,0.2,0.7,0.3,1.1c0,0.4,0.1,0.6,0.1,0.6v0v0V59.8L230.7,59.8L230.7,59.8z M227.7,54.4c0-0.8,0-1.6,0-2.3
			c0-0.8-0.1-1.3-0.1-1.6c-0.1-0.3-0.2-0.6-0.5-0.9c-0.3-0.3-0.6-0.5-0.9-0.8c-0.4-0.2-0.8-0.4-1.2-0.5c-0.4-0.1-0.9-0.2-1.3-0.2
			h-0.1c-0.5,0-0.9,0.1-1.3,0.2c-0.4,0.1-0.8,0.3-1.2,0.5c-0.4,0.2-0.7,0.5-0.9,0.8c-0.2,0.3-0.4,0.6-0.5,0.9
			c-0.1,0.3-0.1,0.8-0.1,1.6c0,0.8,0,1.5,0,2.3v2.2c0,0.4,0,0.8,0,1.2c0,0.4,0,0.8,0,1.1c0,0.3,0,0.7,0,0.9c0,0.3,0,0.5,0.1,0.6
			c0.1,0.3,0.3,0.6,0.5,0.9c0.2,0.3,0.5,0.5,0.9,0.7s0.8,0.4,1.2,0.5c0.4,0.1,0.9,0.2,1.3,0.2h0.1c0.5,0,0.9-0.1,1.3-0.2
			c0.4-0.1,0.8-0.3,1.2-0.5s0.7-0.5,0.9-0.7c0.3-0.3,0.4-0.6,0.5-0.9c0-0.1,0.1-0.3,0.1-0.6c0-0.3,0-0.6,0-0.9c0-0.3,0-0.7,0-1.1
			c0-0.4,0-0.8,0-1.2V54.4z M222.3,43.7l-1.8-1.7l3.9-4l1.8,1.7L222.3,43.7z"/>
		<path class="st6" d="M248.1,65.3L240,51.4v13.9h-3V45.7h3.1l8.2,14.2V45.6h3v19.7H248.1z"/>
	</g>
</g>
</svg>
