<?xml version="1.0" encoding="utf-8"?>
<!-- Generator: Adobe Illustrator 19.2.1, SVG Export Plug-In . SVG Version: 6.00 Build 0)  -->
<svg version="1.1" id="Capa_1" xmlns="http://www.w3.org/2000/svg" xmlns:xlink="http://www.w3.org/1999/xlink" x="0px" y="0px"
	 width="250px" height="250px" viewBox="0 0 250 250" style="enable-background:new 0 0 250 250;" xml:space="preserve">
<style type="text/css">
	.st0{fill:#2D2969;}
	.st1{fill:#2F2C66;}
	.st2{clip-path:url(#XMLID_3_);fill:#FFFFFF;}
	.st3{fill:#FFFFFF;}
</style>
<g>
	<path class="st0" d="M55,80.8l0-2c0.4-0.1,0.9-0.2,1.4-0.3c1.1-0.1,1.9-0.4,2.6-0.6c0.2-0.4,0.4-0.7,0.4-1.1c0.1-0.9,0.2-2.3,0.2-4
		l0-10.4c0-1.1-0.1-3.9-0.2-8.5c0-1.2-0.1-2-0.2-2.3c-0.1-0.1-0.1-0.2-0.2-0.2c-0.3-0.2-0.8-0.3-1.5-0.3c-0.3,0-1.1-0.1-2.4-0.3
		l-0.1-1.7l5.5-0.1l8-0.3l1,0c0.2,0,0.4,0,0.6,0c0.2,0,0.6,0,1.3,0H73c1.2,0,2.6,0.2,4,0.6c0.5,0.1,1.2,0.4,2,0.8
		c0.8,0.4,1.6,0.9,2.2,1.6c0.6,0.6,1.1,1.4,1.4,2.2c0.3,0.8,0.4,1.7,0.4,2.6c0,1-0.2,1.9-0.7,2.7c-0.4,0.8-1.1,1.5-2,2.2
		c-0.5,0.3-1.5,0.9-3.2,1.6c2.5,0.6,4.4,1.6,5.6,3.1c1.3,1.5,1.9,3.1,1.9,4.9c0,1.1-0.2,2.2-0.6,3.4c-0.3,0.9-0.8,1.7-1.5,2.5
		c-0.9,1-1.9,1.8-3,2.3c-1,0.5-2.5,0.9-4.3,1.3c-0.9,0.2-2.3,0.2-4.2,0.2l-4.2-0.1c-1.8,0-3.9,0.1-6.3,0.2
		C60.1,80.6,58.1,80.7,55,80.8z M66.4,62.2c0.7,0.1,1.4,0.1,2.3,0.1c2.5,0,4.3-0.5,5.6-1.4c1.3-0.9,1.9-2.5,1.9-4.7
		c0-1.6-0.6-2.9-1.8-3.9s-3-1.6-5.4-1.6c-0.7,0-1.6,0.1-2.7,0.3c0,0.4,0,0.9,0.1,1.6c0.1,1.4,0.1,3.3,0.1,5.8l0,2.1
		C66.4,60.9,66.4,61.5,66.4,62.2z M66.7,77.8c1.1,0.4,2.1,0.7,3,0.7c1.9,0,3.4-0.3,4.6-0.8c1.2-0.6,2-1.4,2.6-2.4
		c0.5-1,0.8-2.3,0.8-3.8c0-1.6-0.3-2.8-0.9-3.8c-0.8-1.3-1.8-2.2-3-2.6c-1.2-0.4-2.9-0.7-5.2-0.7c-1,0-1.7,0.1-2.1,0.2v3l0,3.6
		l0.1,5.6C66.5,77.1,66.6,77.5,66.7,77.8z"/>
	<path class="st0" d="M108.5,62.7c1,1,1.8,2.2,2.3,3.5c0.5,1.3,0.8,2.6,0.8,3.7c0,2.2-0.3,4-1,5.3c-1,2-2.4,3.5-4.1,4.5
		c-1.7,1-3.7,1.4-6,1.4c-2.6,0-4.7-0.6-6.5-1.7c-1.8-1.1-3-2.4-3.8-3.9c-0.8-1.5-1.1-3.3-1.1-5.4c0-1.1,0.2-2.2,0.5-3.3
		c0.4-1.1,0.9-2.1,1.5-2.9c0.6-0.8,1.3-1.5,2.1-2.1c1.1-0.8,2.2-1.3,3.3-1.7c1.1-0.3,2.4-0.5,4-0.5
		C103.9,59.7,106.6,60.7,108.5,62.7z M95.1,71.2c0.1,2,0.3,3.2,0.3,3.5c0.2,1.1,0.5,2,1,2.8c0.3,0.5,0.8,1,1.5,1.4
		c0.7,0.4,1.6,0.6,2.6,0.6c1.2,0,2.2-0.4,3-1.1c0.8-0.8,1.4-2,1.8-3.6c0.2-1.1,0.3-2.8,0.3-5.2c0-3-0.5-5.1-1.5-6.3
		c-1-1.2-2.3-1.9-3.9-1.9c-1.3,0-2.3,0.4-3.1,1.1s-1.4,1.7-1.7,3.1C95.3,66.4,95.1,68.3,95.1,71.2z"/>
	<path class="st0" d="M134.7,62.7c1,1,1.8,2.2,2.3,3.5c0.5,1.3,0.8,2.6,0.8,3.7c0,2.2-0.3,4-1,5.3c-1,2-2.4,3.5-4.1,4.5
		c-1.7,1-3.7,1.4-6,1.4c-2.6,0-4.7-0.6-6.5-1.7s-3-2.4-3.8-3.9c-0.8-1.5-1.1-3.3-1.1-5.4c0-1.1,0.2-2.2,0.5-3.3
		c0.4-1.1,0.9-2.1,1.5-2.9c0.6-0.8,1.3-1.5,2.1-2.1c1.1-0.8,2.2-1.3,3.3-1.7c1.1-0.3,2.4-0.5,4-0.5
		C130.1,59.7,132.8,60.7,134.7,62.7z M121.3,71.2c0.1,2,0.3,3.2,0.3,3.5c0.2,1.1,0.5,2,1,2.8c0.3,0.5,0.8,1,1.5,1.4
		c0.7,0.4,1.6,0.6,2.6,0.6c1.2,0,2.2-0.4,3-1.1c0.8-0.8,1.4-2,1.8-3.6c0.2-1.1,0.3-2.8,0.3-5.2c0-3-0.5-5.1-1.5-6.3
		c-1-1.2-2.3-1.9-3.9-1.9c-1.3,0-2.3,0.4-3.1,1.1c-0.8,0.7-1.4,1.7-1.7,3.1C121.4,66.4,121.3,68.3,121.3,71.2z"/>
	<path class="st0" d="M140.4,79.2c0.3-0.1,0.6-0.2,0.9-0.3c0.3,0,0.5-0.1,0.6-0.1c0.9-0.1,1.5-0.2,1.6-0.2c0.1-0.3,0.2-0.9,0.2-1.6
		l0.1-10.4v-1.4l0-1.1v-7c0-1.7-0.1-2.9-0.2-3.6c0-0.2-0.1-0.4-0.2-0.8c-0.3-0.3-0.6-0.5-1-0.6c-0.3-0.1-1-0.2-2-0.3
		c0-0.2,0-0.4,0-0.5c0-0.2,0-0.4,0-0.8c0.6-0.2,2.4-0.7,5.4-1.5c0.8-0.2,1.5-0.5,2.2-0.8l1,0l0,10.9c0,0.1,0,0.6-0.1,1.6
		c0,0.3,0,1,0,2l0,3.7v3.5c0.8-0.5,2.5-1.6,5.1-3.3c0.9-0.6,1.9-1.3,3-2.2c0.5-0.4,0.8-0.6,1-0.9c-0.3-0.1-0.5-0.2-0.8-0.3
		c-0.6-0.2-1.4-0.4-2.2-0.8c0-0.2,0-0.4,0-0.5c0-0.2,0-0.4,0.1-0.7l1.8,0c0.1,0,0.6,0,1.3,0.1s1.4,0.1,2.1,0.1c0.6,0,1.4,0,2.4-0.1
		c1-0.1,1.7-0.1,1.9-0.1c0.3,0,0.7,0,1.2,0c0,0.2,0,0.3,0,0.4c0,0.2,0,0.4-0.1,0.7l-1.9,0.6c-1.1,0.3-1.9,0.6-2.4,0.9
		c-1.4,0.8-3.7,2.2-6.9,4.4c0.4,0.4,0.8,0.8,1.2,1.2l0.6,0.6l1.8,1.8l4,4l2.3,2.3c0.3,0.2,1,0.6,2,1c0,0.5,0,0.7,0,0.8
		c0,0.1,0,0.3,0,0.6c-0.2,0-0.7,0-1.6-0.1c-0.5-0.1-0.9-0.1-1.3-0.1c-3.4,0-6.3,0-8.7,0.1c0-0.2,0-0.4-0.1-0.6l0-0.4
		c0-0.1,0-0.3,0.1-0.5c0.4-0.1,1-0.2,1.6-0.3c0.3,0,0.6,0,0.9-0.1c-0.2-0.4-0.5-0.9-0.9-1.2l-6.4-6.8l-1.3,0.7v5.1
		c0,0.1,0,0.4,0,0.8l0,0.9c0.3,0.2,0.6,0.4,0.8,0.4c0.3,0.1,0.8,0.2,1.6,0.3c0.2,0,0.4,0,0.6,0.1v0.6l0,0.5c0,0.1,0,0.2-0.1,0.4
		l-0.2,0.1c-1.5-0.1-2.7-0.1-3.6-0.2c-0.5,0-0.9-0.1-1.1-0.1c-0.1,0-0.5,0-1.1,0h-1.4l-2.1,0.2l-0.6,0l-1.4,0.1
		c-0.1-0.3-0.1-0.5-0.1-0.8C140.4,79.7,140.4,79.5,140.4,79.2z"/>
	<path class="st0" d="M168.5,73.7c0.5-0.1,0.8-0.1,1.1-0.1c0.1,0,0.3,0,0.5,0l0.2,0.2c0.9,1.6,1.5,2.5,1.7,2.8
		c0.6,0.7,1.1,1.2,1.7,1.6c0.4,0.3,1,0.5,1.8,0.8c0.5,0.2,1.1,0.3,1.7,0.3c1,0,1.9-0.3,2.7-1c0.7-0.7,1.1-1.4,1.1-2.1
		c0-0.5-0.1-1-0.4-1.3c-0.3-0.4-0.8-0.7-1.7-1.1c-0.4-0.2-1.4-0.5-3.1-0.9c-1.6-0.4-2.6-0.7-3-0.8c-0.8-0.3-1.5-0.7-2-1.2
		c-0.6-0.5-1.1-1.1-1.4-1.8c-0.4-0.9-0.6-1.7-0.6-2.4c0-1.2,0.2-2.3,0.5-3.1c0.4-0.8,0.9-1.5,1.5-2.1c0.5-0.5,1.2-0.9,2.1-1.3
		c1-0.4,2-0.6,3.1-0.6c1.6,0,2.9,0.1,4.1,0.3c1.2,0.2,2.2,0.5,3,1c0.1,0.4,0.2,1.2,0.4,2.6c0.2,1.4,0.3,2.2,0.3,2.4
		c0,0.1,0,0.2-0.1,0.4c-0.4,0.1-0.8,0.2-1.1,0.2c-0.2,0-0.4,0-0.7,0c-0.1-0.2-0.3-0.6-0.6-1c-0.8-1.5-1.6-2.5-2.4-3.1
		c-0.8-0.6-1.8-0.9-2.9-0.9c-1.1,0-2.1,0.3-2.8,1c-0.6,0.5-0.8,1.1-0.8,1.9c0,0.5,0.3,1.1,0.9,1.6c0.6,0.6,1.6,1,3,1.3
		c2.1,0.5,3.7,0.9,4.7,1.4c1.5,0.7,2.5,1.5,3.1,2.4c0.6,0.9,0.9,2,0.9,3.2c0,1.9-0.7,3.5-2.1,4.7c-1.4,1.3-3.5,1.9-6.3,1.9
		c-0.4,0-1.3-0.1-2.8-0.2c-0.7-0.1-1.5-0.2-2.4-0.5c-0.2-0.1-0.8-0.3-1.8-0.7c-0.2-0.1-0.3-0.2-0.4-0.4c-0.1-0.1-0.2-0.8-0.3-2
		C168.7,75.3,168.6,74.1,168.5,73.7z"/>
	<path class="st0" d="M54.4,110.8l0-1.9l5.9,0.4l2.6,0h1c1,0,2.6-0.1,4.7-0.2c1.2-0.1,2-0.1,2.3-0.1c2.1,0,3.6,0.1,4.7,0.3
		c1.6,0.3,2.9,0.9,3.8,1.6c0.9,0.7,1.8,1.7,2.4,3.1c0.7,1.3,1,2.6,1,3.7c0,2.8-0.9,5.2-2.7,6.9c-1.8,1.8-4.1,2.7-6.8,2.7
		c-0.9,0-1.9-0.1-2.7-0.3c-0.9-0.2-1.7-0.6-2.4-1c-0.1-0.5-0.1-1.1-0.1-2c0.4,0,0.7,0.1,1.1,0.1c0.3,0,0.6,0,0.8,0
		c1.4,0,2.6-0.4,3.5-1.2c1.3-1,1.9-2.6,1.9-4.9c0-1.6-0.3-2.9-0.8-3.9c-0.5-1-1.2-1.7-1.9-2.1c-1-0.5-2.2-0.7-3.5-0.7
		c-1.2,0-2.1,0.2-2.6,0.5c-0.1,0.2-0.2,0.4-0.3,0.6l0.2,11.6l0,1l0.1,1c0,0.2,0,0.6,0,1v2l0,3.2l0,3.8c0,0.5,0,1.3,0.1,2.2l4.9,0.6
		c0.1,0.4,0.1,0.7,0.1,0.9c0,0.2,0,0.6-0.1,1c-0.4,0.1-0.7,0.1-0.9,0.1c-0.5,0-1.5-0.1-2.9-0.2c-1.4-0.1-3-0.2-4.8-0.2
		c-2,0-4,0.1-5.8,0.4c-0.3,0-0.8,0.1-1.5,0.1c-0.1-0.5-0.1-0.8-0.1-1.1c0-0.1,0-0.4,0-0.7l1.5-0.5c1-0.3,1.9-0.7,2.7-1.1
		c0.1-0.5,0.2-0.9,0.2-1.3c0-0.2,0-0.4,0-0.6c0-0.5,0-1.2,0-2.1l-0.1-6.9l-0.3-7.8c-0.1-3.7-0.2-5.7-0.3-6c-0.1-0.5-0.3-0.8-0.6-1.1
		c-0.3-0.3-0.7-0.5-1.4-0.6C55.8,111.1,54.9,110.9,54.4,110.8z"/>
	<path class="st0" d="M85.3,127.9c0.4-1.4,0.8-2.3,1.1-2.8c0.9-1.3,1.9-2.4,2.9-3.1s2-1.3,2.8-1.5c1.1-0.3,2-0.5,2.6-0.5
		c1.5,0,2.8,0.1,3.7,0.4c0.9,0.2,1.7,0.6,2.4,1c0.9,0.6,1.7,1.3,2.2,1.9c0.6,0.7,1,1.4,1.4,2.3c0.4,0.9,0.5,2,0.6,3.2l-2.7,0
		c-0.8,0-2.4-0.1-5-0.2c-0.9-0.1-1.6-0.1-2-0.1c-0.1,0-1,0-2.7,0h-2.1c0,0.2-0.1,0.4-0.1,0.6c0,0.9,0.1,1.8,0.3,2.7
		c0.2,1,0.5,1.8,1,2.5c0.4,0.7,1,1.4,1.6,1.9s1.3,0.9,2,1.1l1.4,0.5c1.3,0,2.1,0,2.5-0.1c0.8-0.2,1.5-0.4,2.1-0.6
		c0.6-0.3,1.3-0.7,2.2-1.3c0.6,0.4,1.1,0.8,1.5,1.2c-1.4,1.6-2.9,2.7-4.5,3.4c-1.5,0.7-3.3,1.1-5.2,1.1c-1.3,0-2.3-0.1-3.2-0.3
		c-1.1-0.3-2.1-0.7-3-1.4c-0.9-0.6-1.6-1.4-2.3-2.3c-0.6-0.9-1.1-1.8-1.4-2.8c-0.4-1.2-0.6-2.2-0.6-3C84.9,130.3,85,129,85.3,127.9z
		 M99.5,126.9c0-0.9-0.2-1.8-0.5-2.6c-0.3-0.8-0.9-1.5-1.6-2c-0.7-0.5-1.4-0.7-2.2-0.7c-1.1,0-2.1,0.5-3,1.4c-0.9,1-1.4,2.3-1.5,3.9
		l5.6,0c0.4,0,0.9,0,1.5-0.1c0.5,0,0.8-0.1,1-0.1C99,126.8,99.2,126.8,99.5,126.9z"/>
	<path class="st0" d="M128,123c1,1,1.8,2.2,2.3,3.5c0.5,1.3,0.8,2.6,0.8,3.7c0,2.2-0.3,4-1,5.3c-1,2-2.4,3.5-4.1,4.5
		c-1.7,1-3.7,1.4-6,1.4c-2.6,0-4.7-0.6-6.5-1.7c-1.8-1.1-3-2.4-3.8-3.9c-0.8-1.5-1.1-3.3-1.1-5.4c0-1.1,0.2-2.2,0.5-3.3
		c0.4-1.1,0.9-2.1,1.5-2.9c0.6-0.8,1.3-1.5,2.1-2.1c1.1-0.8,2.2-1.3,3.3-1.7c1.1-0.3,2.4-0.5,4-0.5C123.4,120,126.1,121,128,123z
		 M114.6,131.5c0.1,2,0.3,3.2,0.3,3.5c0.2,1.1,0.5,2,1,2.8c0.3,0.5,0.8,1,1.5,1.4c0.7,0.4,1.6,0.6,2.6,0.6c1.2,0,2.2-0.4,3-1.1
		c0.8-0.8,1.4-2,1.8-3.6c0.2-1.1,0.3-2.8,0.3-5.2c0-3-0.5-5.1-1.5-6.3c-1-1.2-2.3-1.9-3.9-1.9c-1.3,0-2.3,0.4-3.1,1.1
		c-0.8,0.7-1.4,1.7-1.7,3.1C114.7,126.7,114.6,128.6,114.6,131.5z"/>
	<path class="st0" d="M132.8,153.4v-1.1c0.3-0.2,0.5-0.3,0.6-0.4l1.9-0.7c0.8-0.3,1.2-0.6,1.3-0.7c0.3-0.5,0.4-1.4,0.3-2.6l-0.2-9.8
		l-0.2-12.1c-0.1-0.9-0.2-1.5-0.6-1.9c-0.3-0.4-1.2-0.8-2.6-1.2l0-1.3c1.6-0.3,3-0.7,4-1.2c0.8-0.3,1.9-0.9,3.3-1.9l1.3,0l0,0.7
		l0,2.7c0,0.1,0,0.3,0,0.7c1.4-0.9,2.6-1.4,3.5-1.7c1.3-0.4,2.8-0.6,4.4-0.6c1.7,0,3.1,0.4,4.4,1.3c0.1,0.1,0.2,0.2,0.4,0.3
		c0.8,0.6,1.4,1.2,1.8,1.7c0.8,1.2,1.4,2.3,1.8,3.4c0.3,0.9,0.4,1.9,0.4,3.2c0,1.7-0.2,3.1-0.7,4.3c-0.4,1.2-1.2,2.4-2.3,3.6
		c-1.1,1.2-2.2,2-3.5,2.6s-2.5,0.8-3.9,0.8c-1.3,0-2.3-0.1-2.9-0.2c-1.1-0.3-2.2-0.8-3.3-1.4c0,0.3-0.1,0.4-0.1,0.5l0.1,0.7
		c0,0.2,0,0.4,0,0.7c0,0.1,0,0.8-0.1,1.9l0.1,4.5c0,0.1,0,0.4,0,1v0.3c0,0.6,0,1,0.1,1.3c0.1,0.2,0.2,0.3,0.4,0.5
		c0.2,0.1,0.3,0.1,0.5,0.2c0.5,0.1,1,0.2,1.3,0.3c0.4,0.1,0.8,0.2,1.2,0.2c0.1,0.2,0.2,0.4,0.2,0.7c0,0.2,0,0.4,0,0.8h-0.4
		c-1,0-1.6,0-2,0l-3.7-0.3h-0.9l-0.9,0l-0.9,0.1l-1.3,0.1c-0.5,0-1,0.1-1.6,0.1c-0.6,0.1-1,0.1-1.3,0.1L132.8,153.4z M142.1,135.8
		c0.1,0.2,0.1,0.3,0.1,0.4c0.2,0.8,0.4,1.3,0.7,1.6c0.5,0.6,1.1,1,1.7,1.2c1,0.3,1.8,0.4,2.6,0.4c0.9,0,1.7-0.2,2.5-0.5
		c0.8-0.4,1.5-0.8,2-1.4c0.1-0.1,0.2-0.2,0.3-0.3c0.1-0.3,0.2-0.5,0.3-0.6c0.7-1.3,1-2.6,1-4.1c0-2.7-0.8-4.9-2.4-6.7
		c-1.1-1.3-2.7-1.9-4.7-1.9c-1.2,0-2.6,0.3-4.1,0.9c0,0.6,0,2.4,0,5.4l0,4.7C142.1,135,142.1,135.3,142.1,135.8z"/>
	<path class="st0" d="M160.8,139.8c0.4-0.2,0.8-0.4,1.4-0.5c1.1-0.1,1.8-0.3,2-0.5c0.3-0.4,0.5-1.3,0.5-2.6v-6.9l0-1.6v-5l0-5.7v-1
		c0-1.3-0.1-2.3-0.3-3c-0.6-0.3-1.2-0.5-1.9-0.5c-0.4,0-0.8,0-1.1-0.1c0-0.4-0.1-0.7-0.1-0.9c0-0.1,0-0.3,0.1-0.4
		c1.3-0.1,2.6-0.5,4-1c1.4-0.5,2.5-1,3.2-1.6l0.7,0c0.1,0,0.4,0,0.6,0c0.1,5.7,0.1,9.5,0.1,11.6c0,0.6,0,1.1-0.1,1.5v0.1l0.1,0.5
		v10.9l0,3.6v0.6c0,0.7,0.1,1.2,0.3,1.5c0.2,0.2,0.6,0.3,1.2,0.4c0.3,0,1,0.1,2,0.2c0.1,0.3,0.1,0.6,0.1,0.8c0,0.2,0,0.4,0,0.7
		l-1.9-0.1c-1.1-0.1-2.4-0.1-4.1-0.1l-0.9,0c-0.9,0-2.3,0.1-4,0.2h-1.8L160.8,139.8z"/>
	<path class="st0" d="M175.8,127.9c0.4-1.4,0.8-2.3,1.1-2.8c0.9-1.3,1.9-2.4,2.9-3.1s2-1.3,2.8-1.5c1.1-0.3,2-0.5,2.6-0.5
		c1.5,0,2.8,0.1,3.7,0.4c0.9,0.2,1.7,0.6,2.4,1c0.9,0.6,1.7,1.3,2.2,1.9c0.6,0.7,1,1.4,1.4,2.3c0.4,0.9,0.5,2,0.6,3.2l-2.7,0
		c-0.8,0-2.4-0.1-5-0.2c-0.9-0.1-1.6-0.1-2-0.1c-0.1,0-1,0-2.7,0h-2.1c0,0.2-0.1,0.4-0.1,0.6c0,0.9,0.1,1.8,0.3,2.7
		c0.2,1,0.5,1.8,1,2.5s1,1.4,1.6,1.9c0.6,0.5,1.3,0.9,2,1.1l1.4,0.5c1.3,0,2.1,0,2.5-0.1c0.8-0.2,1.5-0.4,2.1-0.6
		c0.6-0.3,1.3-0.7,2.2-1.3c0.6,0.4,1.1,0.8,1.5,1.2c-1.4,1.6-2.9,2.7-4.5,3.4c-1.5,0.7-3.3,1.1-5.2,1.1c-1.3,0-2.3-0.1-3.2-0.3
		c-1.1-0.3-2.1-0.7-3-1.4c-0.9-0.6-1.6-1.4-2.3-2.3c-0.6-0.9-1.1-1.8-1.4-2.8c-0.4-1.2-0.6-2.2-0.6-3
		C175.5,130.3,175.6,129,175.8,127.9z M190.1,126.9c0-0.9-0.2-1.8-0.5-2.6c-0.3-0.8-0.9-1.5-1.6-2c-0.7-0.5-1.4-0.7-2.2-0.7
		c-1.1,0-2.1,0.5-3,1.4c-0.9,1-1.4,2.3-1.5,3.9l5.6,0c0.4,0,0.9,0,1.5-0.1c0.5,0,0.8-0.1,1-0.1C189.6,126.8,189.8,126.8,190.1,126.9
		z"/>
	<path class="st0" d="M54.4,171.1l0-1.9l5.9,0.4l2.6,0h1c1,0,2.6-0.1,4.7-0.2c1.2-0.1,2-0.1,2.3-0.1c2.1,0,3.6,0.1,4.7,0.3
		c1.6,0.3,2.9,0.9,3.8,1.6c0.9,0.7,1.8,1.7,2.4,3.1c0.7,1.3,1,2.6,1,3.7c0,2.8-0.9,5.2-2.7,6.9c-1.8,1.8-4.1,2.7-6.8,2.7
		c-0.9,0-1.9-0.1-2.7-0.3c-0.9-0.2-1.7-0.6-2.4-1c-0.1-0.5-0.1-1.1-0.1-2c0.4,0,0.7,0.1,1.1,0.1c0.3,0,0.6,0,0.8,0
		c1.4,0,2.6-0.4,3.5-1.2c1.3-1,1.9-2.6,1.9-4.9c0-1.6-0.3-2.9-0.8-3.9c-0.5-1-1.2-1.7-1.9-2.1c-1-0.5-2.2-0.7-3.5-0.7
		c-1.2,0-2.1,0.2-2.6,0.5c-0.1,0.2-0.2,0.4-0.3,0.6l0.2,11.6l0,1l0.1,1c0,0.2,0,0.6,0,1v2l0,3.2l0,3.8c0,0.5,0,1.3,0.1,2.2l4.9,0.6
		c0.1,0.4,0.1,0.7,0.1,0.9c0,0.2,0,0.6-0.1,1c-0.4,0.1-0.7,0.1-0.9,0.1c-0.5,0-1.5-0.1-2.9-0.2c-1.4-0.1-3-0.2-4.8-0.2
		c-2,0-4,0.1-5.8,0.4c-0.3,0-0.8,0.1-1.5,0.1c-0.1-0.5-0.1-0.8-0.1-1.1c0-0.1,0-0.4,0-0.7l1.5-0.5c1-0.3,1.9-0.7,2.7-1.1
		c0.1-0.5,0.2-0.9,0.2-1.3c0-0.2,0-0.4,0-0.6c0-0.5,0-1.2,0-2.1l-0.1-6.9l-0.3-7.8c-0.1-3.7-0.2-5.7-0.3-6c-0.1-0.5-0.3-0.8-0.6-1.1
		c-0.3-0.3-0.7-0.5-1.4-0.6C55.8,171.4,54.9,171.2,54.4,171.1z"/>
	<path class="st0" d="M84.3,200.1c0.4-0.2,0.8-0.4,1.4-0.5c1.1-0.1,1.8-0.3,1.9-0.5c0.3-0.4,0.5-1.3,0.5-2.6v-6.9l-0.1-1.6v-5l0-5.7
		v-1c0-1.3-0.1-2.3-0.3-3c-0.6-0.3-1.2-0.5-1.9-0.5c-0.4,0-0.8,0-1.1-0.1c-0.1-0.4-0.1-0.7-0.1-0.9c0-0.1,0-0.3,0-0.4
		c1.3-0.1,2.6-0.5,4-1s2.5-1,3.2-1.6l0.7,0c0.1,0,0.4,0,0.6,0c0.1,5.7,0.1,9.5,0.1,11.6c0,0.6,0,1.1,0,1.5v0.1l0,0.5v10.9l0,3.6v0.6
		c0,0.7,0.1,1.2,0.3,1.5c0.2,0.2,0.6,0.3,1.2,0.4c0.3,0,1,0.1,2,0.2c0.1,0.3,0.1,0.6,0.1,0.8c0,0.2,0,0.4,0,0.7l-1.9-0.1
		c-1.1-0.1-2.4-0.1-4.1-0.1l-0.9,0c-0.9,0-2.3,0.1-4,0.2h-1.8L84.3,200.1z"/>
	<path class="st0" d="M119.9,196.6l0.6,0.4c0.1,0.1,0.2,0.3,0.3,0.4l0,0.1c-0.4,1.5-0.9,2.5-1.5,3c-0.6,0.5-1.4,0.8-2.4,0.8
		c-1,0-1.8-0.3-2.5-0.8c-0.7-0.5-1.3-1.5-1.9-2.8c-0.7,1.2-1.7,2.2-3,2.8c-1.3,0.6-2.8,0.9-4.7,0.9c-1.7,0-3-0.4-3.8-1.1
		c-0.8-0.7-1.2-1.6-1.2-2.8c0-0.5,0.1-1.1,0.4-1.6c0.2-0.6,0.6-1.1,1.2-1.7c0.5-0.5,1.4-1.1,2.6-1.8c0.2-0.1,0.8-0.4,1.9-0.8
		l6.1-2.5c0.1-0.6,0.1-1.3,0.1-1.9c0-2.2-0.3-3.7-0.8-4.5c-0.3-0.5-0.9-0.7-1.7-0.7c-0.8,0-1.6,0.2-2.3,0.5
		c-0.7,0.3-1.2,0.7-1.5,1.2c-0.2,0.4-0.4,1-0.6,2c-0.1,0.7-0.2,1.1-0.3,1.3c-0.2,0.3-0.7,0.6-1.3,0.8s-1.1,0.4-1.3,0.6
		c-0.9,0.4-1.6,0.6-2.1,0.6c-0.2-0.2-0.3-0.5-0.3-0.8c0-0.9,0.2-1.7,0.6-2.4c0.6-0.9,1.5-1.9,2.7-2.8c1.2-0.9,2.3-1.5,3.3-1.9
		c1.4-0.5,3.1-0.7,5.2-0.7c1.3,0,2.4,0.2,3.4,0.7c0.9,0.5,1.6,1.2,2,2.1c0.4,0.9,0.6,2.7,0.6,5.1l-0.1,4l0.1,3v0.8
		c0,0.7,0.1,1.2,0.3,1.4c0.2,0.3,0.4,0.4,0.7,0.4c0.2,0,0.3,0,0.5-0.1l0.7-1.2L119.9,196.6z M111.8,190.9c-0.9,0.3-2,0.8-3.2,1.6
		c-1.2,0.7-2,1.5-2.4,2.2c-0.3,0.5-0.5,1.2-0.5,2c0,0.7,0.2,1.3,0.6,1.7c0.4,0.5,0.9,0.7,1.5,0.7c0.9,0,1.7-0.3,2.3-0.8
		c0.9-0.7,1.4-1.3,1.5-1.7c0.1-0.4,0.2-1.6,0.2-3.5C111.9,192.4,111.9,191.6,111.8,190.9z"/>
	<path class="st0" d="M142.3,194.8c0.3,0.1,0.5,0.2,0.6,0.3c0.4,0.2,0.7,0.4,0.9,0.6c-0.4,1.6-1.5,3.1-3.2,4.2
		c-1.7,1.2-3.9,1.8-6.5,1.8c-1.6,0-3.3-0.3-4.9-1c-1.6-0.7-2.9-1.6-3.8-2.7c-0.7-0.9-1.3-1.9-1.7-3.2c-0.4-1.3-0.6-2.3-0.6-3.2
		c0-1.1,0.2-2.3,0.7-3.6c0.5-1.4,1.2-2.6,2.3-3.8c1.1-1.2,2.4-2.1,4.1-2.8c1.6-0.7,3.5-1.1,5.6-1.1c2.8,0,4.8,0.4,5.9,1.3
		c1.1,0.9,1.7,1.8,1.7,2.7c0,0.9-0.2,1.6-0.7,2c-0.5,0.5-1.1,0.7-1.9,0.7c-0.7,0-1.3-0.2-1.9-0.7c-0.6-0.4-1-1.2-1.4-2.2
		c-0.3-0.8-0.7-1.3-1.1-1.6c-0.5-0.3-1-0.5-1.6-0.5c-1.5,0-2.9,0.7-4.1,2s-1.8,3.1-1.8,5.4c0,2.7,0.7,4.9,2.2,6.5
		c1.5,1.6,3.2,2.4,5,2.4c0.9,0,1.7-0.1,2.4-0.3c0.4-0.1,1-0.5,1.7-1c0.2-0.1,0.5-0.5,1-1.1S142.1,195,142.3,194.8z"/>
	<path class="st0" d="M146.9,188.2c0.4-1.4,0.8-2.3,1.1-2.8c0.9-1.3,1.9-2.4,2.9-3.1s2-1.3,2.8-1.5c1.1-0.3,2-0.5,2.6-0.5
		c1.5,0,2.8,0.1,3.7,0.4s1.7,0.6,2.4,1c0.9,0.6,1.7,1.3,2.2,1.9c0.6,0.7,1,1.4,1.4,2.3c0.4,0.9,0.5,2,0.6,3.2l-2.7,0
		c-0.8,0-2.4-0.1-5-0.2c-0.9-0.1-1.6-0.1-2-0.1c-0.1,0-1,0-2.7,0h-2.1c0,0.2-0.1,0.4-0.1,0.6c0,0.9,0.1,1.8,0.3,2.7
		c0.2,1,0.5,1.8,1,2.5c0.4,0.7,1,1.4,1.6,1.9c0.6,0.5,1.3,0.9,2,1.1l1.4,0.5c1.3,0,2.1,0,2.5-0.1c0.8-0.2,1.5-0.4,2.1-0.6
		c0.6-0.3,1.3-0.7,2.2-1.3c0.6,0.4,1.1,0.8,1.5,1.2c-1.4,1.6-2.9,2.7-4.5,3.4c-1.5,0.7-3.3,1.1-5.2,1.1c-1.3,0-2.3-0.1-3.2-0.3
		c-1.1-0.3-2.1-0.7-3-1.4c-0.9-0.6-1.6-1.4-2.3-2.3c-0.6-0.9-1.1-1.8-1.4-2.8c-0.4-1.2-0.6-2.2-0.6-3
		C146.6,190.6,146.7,189.3,146.9,188.2z M161.2,187.2c0-0.9-0.2-1.8-0.5-2.6c-0.3-0.8-0.9-1.5-1.6-2c-0.7-0.5-1.4-0.7-2.2-0.7
		c-1.1,0-2.1,0.5-3,1.4c-0.9,1-1.4,2.3-1.5,3.9l5.6,0c0.4,0,0.9,0,1.5-0.1c0.5,0,0.8-0.1,1-0.1C160.7,187.1,160.9,187.1,161.2,187.2
		z"/>
	<path class="st0" d="M170.6,194.3c0.5-0.1,0.8-0.1,1.1-0.1c0.1,0,0.3,0,0.5,0l0.2,0.2c0.9,1.6,1.5,2.5,1.7,2.8
		c0.6,0.7,1.1,1.2,1.7,1.6c0.4,0.3,1,0.5,1.8,0.8c0.5,0.2,1.1,0.3,1.7,0.3c1,0,1.9-0.3,2.7-1c0.7-0.7,1.1-1.4,1.1-2.1
		c0-0.5-0.1-1-0.4-1.3c-0.3-0.4-0.8-0.7-1.7-1.1c-0.4-0.2-1.4-0.5-3.1-0.9c-1.6-0.4-2.6-0.7-3-0.8c-0.8-0.3-1.5-0.7-2-1.2
		c-0.6-0.5-1.1-1.1-1.4-1.8c-0.4-0.9-0.6-1.7-0.6-2.4c0-1.2,0.2-2.3,0.5-3.1c0.4-0.8,0.9-1.5,1.5-2.1c0.5-0.5,1.2-0.9,2.1-1.3
		c1-0.4,2-0.6,3.1-0.6c1.6,0,2.9,0.1,4.1,0.3c1.2,0.2,2.2,0.5,3,1c0.1,0.4,0.2,1.2,0.4,2.6c0.2,1.4,0.3,2.2,0.3,2.4
		c0,0.1,0,0.2-0.1,0.4c-0.4,0.1-0.8,0.2-1.1,0.2c-0.2,0-0.4,0-0.7,0c-0.1-0.2-0.3-0.6-0.6-1c-0.8-1.5-1.6-2.5-2.4-3.1
		c-0.8-0.6-1.8-0.9-2.9-0.9c-1.1,0-2.1,0.3-2.8,1c-0.6,0.5-0.8,1.1-0.8,1.9c0,0.5,0.3,1.1,0.9,1.6c0.6,0.6,1.6,1,3,1.3
		c2.1,0.5,3.7,0.9,4.7,1.4c1.5,0.7,2.5,1.5,3.1,2.4c0.6,0.9,0.9,2,0.9,3.2c0,1.9-0.7,3.5-2.1,4.7c-1.4,1.3-3.5,1.9-6.3,1.9
		c-0.4,0-1.3-0.1-2.8-0.2c-0.7-0.1-1.5-0.2-2.4-0.5c-0.2-0.1-0.8-0.3-1.8-0.7c-0.2-0.1-0.3-0.2-0.4-0.4c-0.1-0.1-0.2-0.8-0.3-2
		C170.8,195.9,170.6,194.7,170.6,194.3z"/>
</g>
</svg>
