<?xml version="1.0" encoding="utf-8"?>
<!-- Generator: Adobe Illustrator 19.2.1, SVG Export Plug-In . SVG Version: 6.00 Build 0)  -->
<svg version="1.1" id="Capa_1" xmlns="http://www.w3.org/2000/svg" xmlns:xlink="http://www.w3.org/1999/xlink" x="0px" y="0px"
	 width="595px" height="250px" viewBox="0 0 595 250" style="enable-background:new 0 0 595 250;" xml:space="preserve">
<style type="text/css">
	.st0{fill:#2D2969;}
</style>
<polygon class="st0" points="503,211.3 500.3,211.3 500.3,209.5 501.2,209.5 501.2,208.6 503,208.6 "/>
<path class="st0" d="M98.5,211.3h3.7v-1.8h-3.7V211.3z M105.9,211.3h3.7v-1.8h-3.7V211.3z M113.4,211.3h3.7v-1.8h-3.7V211.3z
	 M120.8,211.3h3.7v-1.8h-3.7V211.3z M128.2,211.3h3.7v-1.8h-3.7V211.3z M135.7,211.3h3.7v-1.8h-3.7V211.3z M143.1,211.3h3.7v-1.8
	h-3.7V211.3z M150.6,211.3h3.7v-1.8h-3.7V211.3z M158,211.3h3.7v-1.8H158V211.3z M165.5,211.3h3.7v-1.8h-3.7V211.3z M172.9,211.3
	h3.7v-1.8h-3.7V211.3z M180.3,211.3h3.7v-1.8h-3.7V211.3z M187.8,211.3h3.7v-1.8h-3.7V211.3z M195.2,211.3h3.7v-1.8h-3.7V211.3z
	 M202.7,211.3h3.7v-1.8h-3.7V211.3z M210.1,211.3h3.7v-1.8h-3.7V211.3z M217.5,211.3h3.7v-1.8h-3.7V211.3z M225,211.3h3.7v-1.8H225
	V211.3z M232.4,211.3h3.7v-1.8h-3.7V211.3z M239.9,211.3h3.7v-1.8h-3.7V211.3z M247.3,211.3h3.7v-1.8h-3.7V211.3z M254.7,211.3h3.7
	v-1.8h-3.7V211.3z M262.2,211.3h3.7v-1.8h-3.7V211.3z M269.6,211.3h3.7v-1.8h-3.7V211.3z M277.1,211.3h3.7v-1.8h-3.7V211.3z
	 M284.5,211.3h3.7v-1.8h-3.7V211.3z M291.9,211.3h3.7v-1.8h-3.7V211.3z M299.4,211.3h3.7v-1.8h-3.7V211.3z M306.8,211.3h3.7v-1.8
	h-3.7V211.3z M314.3,211.3h3.7v-1.8h-3.7V211.3z M321.7,211.3h3.7v-1.8h-3.7V211.3z M329.1,211.3h3.7v-1.8h-3.7V211.3z M336.6,211.3
	h3.7v-1.8h-3.7V211.3z M344,211.3h3.7v-1.8H344V211.3z M351.5,211.3h3.7v-1.8h-3.7V211.3z M358.9,211.3h3.7v-1.8h-3.7V211.3z
	 M366.4,211.3h3.7v-1.8h-3.7V211.3z M373.8,211.3h3.7v-1.8h-3.7V211.3z M381.2,211.3h3.7v-1.8h-3.7V211.3z M388.7,211.3h3.7v-1.8
	h-3.7V211.3z M396.1,211.3h3.7v-1.8h-3.7V211.3z M403.6,211.3h3.7v-1.8h-3.7V211.3z M411,211.3h3.7v-1.8H411V211.3z M418.4,211.3
	h3.7v-1.8h-3.7V211.3z M425.9,211.3h3.7v-1.8h-3.7V211.3z M433.3,211.3h3.7v-1.8h-3.7V211.3z M440.8,211.3h3.7v-1.8h-3.7V211.3z
	 M448.2,211.3h3.7v-1.8h-3.7V211.3z M455.6,211.3h3.7v-1.8h-3.7V211.3z M463.1,211.3h3.7v-1.8h-3.7V211.3z M470.5,211.3h3.7v-1.8
	h-3.7V211.3z M478,211.3h3.7v-1.8H478V211.3z M485.4,211.3h3.7v-1.8h-3.7V211.3z M492.8,211.3h3.7v-1.8h-3.7V211.3z"/>
<polygon class="st0" points="94.8,211.3 92,211.3 92,208.6 93.8,208.6 93.8,209.5 94.8,209.5 "/>
<path class="st0" d="M92,204.9h1.8v-3.7H92V204.9z M92,197.4h1.8v-3.7H92V197.4z M92,190h1.8v-3.7H92V190z M92,182.6h1.8v-3.7H92
	V182.6z M92,175.1h1.8v-3.7H92V175.1z M92,167.7h1.8V164H92V167.7z M92,160.3h1.8v-3.7H92V160.3z M92,152.9h1.8v-3.7H92V152.9z
	 M92,145.4h1.8v-3.7H92V145.4z M92,138h1.8v-3.7H92V138z M92,130.6h1.8v-3.7H92V130.6z M92,123.1h1.8v-3.7H92V123.1z M92,115.7h1.8
	V112H92V115.7z M92,108.3h1.8v-3.7H92V108.3z M92,100.9h1.8v-3.7H92V100.9z M92,93.4h1.8v-3.7H92V93.4z M92,86h1.8v-3.7H92V86z
	 M92,78.6h1.8v-3.7H92V78.6z M92,71.1h1.8v-3.7H92V71.1z M92,63.7h1.8V60H92V63.7z M92,56.3h1.8v-3.7H92V56.3z M92,48.8h1.8v-3.7H92
	V48.8z"/>
<polygon class="st0" points="93.8,41.4 92,41.4 92,38.7 94.8,38.7 94.8,40.5 93.8,40.5 "/>
<path class="st0" d="M98.5,40.5h3.7v-1.9h-3.7V40.5z M105.9,40.5h3.7v-1.9h-3.7V40.5z M113.4,40.5h3.7v-1.9h-3.7V40.5z M120.8,40.5
	h3.7v-1.9h-3.7V40.5z M128.2,40.5h3.7v-1.9h-3.7V40.5z M135.7,40.5h3.7v-1.9h-3.7V40.5z M143.1,40.5h3.7v-1.9h-3.7V40.5z
	 M150.6,40.5h3.7v-1.9h-3.7V40.5z M158,40.5h3.7v-1.9H158V40.5z M165.5,40.5h3.7v-1.9h-3.7V40.5z M172.9,40.5h3.7v-1.9h-3.7V40.5z
	 M180.3,40.5h3.7v-1.9h-3.7V40.5z M187.8,40.5h3.7v-1.9h-3.7V40.5z M195.2,40.5h3.7v-1.9h-3.7V40.5z M202.7,40.5h3.7v-1.9h-3.7V40.5
	z M210.1,40.5h3.7v-1.9h-3.7V40.5z M217.5,40.5h3.7v-1.9h-3.7V40.5z M225,40.5h3.7v-1.9H225V40.5z M232.4,40.5h3.7v-1.9h-3.7V40.5z
	 M239.9,40.5h3.7v-1.9h-3.7V40.5z M247.3,40.5h3.7v-1.9h-3.7V40.5z M254.7,40.5h3.7v-1.9h-3.7V40.5z M262.2,40.5h3.7v-1.9h-3.7V40.5
	z M269.6,40.5h3.7v-1.9h-3.7V40.5z M277.1,40.5h3.7v-1.9h-3.7V40.5z M284.5,40.5h3.7v-1.9h-3.7V40.5z M291.9,40.5h3.7v-1.9h-3.7
	V40.5z M299.4,40.5h3.7v-1.9h-3.7V40.5z M306.8,40.5h3.7v-1.9h-3.7V40.5z M314.3,40.5h3.7v-1.9h-3.7V40.5z M321.7,40.5h3.7v-1.9
	h-3.7V40.5z M329.1,40.5h3.7v-1.9h-3.7V40.5z M336.6,40.5h3.7v-1.9h-3.7V40.5z M344,40.5h3.7v-1.9H344V40.5z M351.5,40.5h3.7v-1.9
	h-3.7V40.5z M358.9,40.5h3.7v-1.9h-3.7V40.5z M366.4,40.5h3.7v-1.9h-3.7V40.5z M373.8,40.5h3.7v-1.9h-3.7V40.5z M381.2,40.5h3.7
	v-1.9h-3.7V40.5z M388.7,40.5h3.7v-1.9h-3.7V40.5z M396.1,40.5h3.7v-1.9h-3.7V40.5z M403.6,40.5h3.7v-1.9h-3.7V40.5z M411,40.5h3.7
	v-1.9H411V40.5z M418.4,40.5h3.7v-1.9h-3.7V40.5z M425.9,40.5h3.7v-1.9h-3.7V40.5z M433.3,40.5h3.7v-1.9h-3.7V40.5z M440.8,40.5h3.7
	v-1.9h-3.7V40.5z M448.2,40.5h3.7v-1.9h-3.7V40.5z M455.6,40.5h3.7v-1.9h-3.7V40.5z M463.1,40.5h3.7v-1.9h-3.7V40.5z M470.5,40.5
	h3.7v-1.9h-3.7V40.5z M478,40.5h3.7v-1.9H478V40.5z M485.4,40.5h3.7v-1.9h-3.7V40.5z M492.8,40.5h3.7v-1.9h-3.7V40.5z"/>
<polygon class="st0" points="503,41.4 501.2,41.4 501.2,40.5 500.3,40.5 500.3,38.7 503,38.7 "/>
<path class="st0" d="M501.2,204.9h1.8v-3.7h-1.8V204.9z M501.2,197.4h1.8v-3.7h-1.8V197.4z M501.2,190h1.8v-3.7h-1.8V190z
	 M501.2,182.6h1.8v-3.7h-1.8V182.6z M501.2,175.2h1.8v-3.7h-1.8V175.2z M501.2,167.7h1.8V164h-1.8V167.7z M501.2,160.3h1.8v-3.7
	h-1.8V160.3z M501.2,152.9h1.8v-3.7h-1.8V152.9z M501.2,145.4h1.8v-3.7h-1.8V145.4z M501.2,138h1.8v-3.7h-1.8V138z M501.2,130.6h1.8
	v-3.7h-1.8V130.6z M501.2,123.1h1.8v-3.7h-1.8V123.1z M501.2,115.7h1.8V112h-1.8V115.7z M501.2,108.3h1.8v-3.7h-1.8V108.3z
	 M501.2,100.9h1.8v-3.7h-1.8V100.9z M501.2,93.4h1.8v-3.7h-1.8V93.4z M501.2,86h1.8v-3.7h-1.8V86z M501.2,78.6h1.8v-3.7h-1.8V78.6z
	 M501.2,71.1h1.8v-3.7h-1.8V71.1z M501.2,63.7h1.8V60h-1.8V63.7z M501.2,56.3h1.8v-3.7h-1.8V56.3z M501.2,48.9h1.8v-3.7h-1.8V48.9z"
	/>
<path d="M145.8,82.1h1.7v64.5c0,4.7,3.7,7.4,7.4,7.4v1.7c-5,0-9.1-4.1-9.1-9.1L145.8,82.1L145.8,82.1z"/>
<path class="st0" d="M155.9,156.6H155c-5.5,0-10.1-4.5-10.1-10.1V81.2h3.6v65.4c0,4.2,3.3,6.5,6.5,6.5h0.9V156.6z"/>
<path d="M160.9,146.6c0,4.7,3.7,7.4,7.4,7.4c4.7,0,16.6-9.5,16.6-9.5v-19.7l-15.3,4.8c-5.5,1.7-8.7,7.3-8.7,12.4V146.6z
	 M184.9,113.2c0-6.1-4.8-10.9-10.9-10.9c-6.1,0-10.9,4.8-10.9,10.9v1.9h-1.7v-1.9c0-7,5.6-12.6,12.6-12.6s12.7,5.6,12.7,12.6v41.5
	H185v-8.2c0,0-11.5,9.1-16.6,9.1c-5,0-9.1-4.1-9.1-9.1v-4.6c0-6.7,4.4-12.3,9.4-13.8l16.3-5v-9.9H184.9z"/>
<path class="st0" d="M184,126.1l-14.1,4.4c-5.2,1.6-8,7-8,11.5v4.6c0,4.2,3.3,6.5,6.5,6.5c3.5,0,12.1-6.3,15.6-9V126.1z
	 M168.3,156.6c-5.5,0-10-4.5-10-10.1v-4.6c0-6.6,4.3-13,10.1-14.7l15.6-4.8v-9.2c0-5.6-4.4-10-10-10s-10,4.4-10,10v2.8h-3.6v-2.8
	c0-7.6,6-13.6,13.6-13.6s13.6,6,13.6,13.6v42.5H184v-7.2C180.6,151,172.6,156.6,168.3,156.6"/>
<path class="st0" d="M203.7,142.3c0,1.4,0.1,2.5,0.4,3.3c0.2,0.8,0.5,1.2,0.9,1.2c0.5,0,1.5-0.4,3-1.1c1.5-0.7,2.9-1.6,4.5-2.5
	c1.8-1,3.8-2.2,6-3.5v-12.4l-11.7,3.7c-1.4,0.6-2.2,1.5-2.5,2.8c-0.3,1.2-0.5,3-0.5,5.2L203.7,142.3L203.7,142.3z M194.8,137.4
	c0-2.5,0.2-4.6,0.7-6.2c0.5-1.6,1.2-2.9,2-4c0.9-1.1,1.9-1.9,3.1-2.5c1.2-0.6,2.5-1.2,3.9-1.7l13.8-4.2v-7.4c0-1.1-0.2-1.9-0.5-2.4
	c-0.4-0.6-0.8-1-1.4-1.2c-0.6-0.3-1.2-0.4-2-0.5s-1.5-0.1-2.3-0.1c-1.6,0-3,0.2-4.3,0.8c-1.3,0.5-1.9,1.7-1.9,3.5v2H197v-2
	c0-2.3,0.4-4.2,1.3-5.9c0.9-1.7,2.1-3,3.5-4.1c1.5-1.1,3.1-1.9,4.9-2.4c1.8-0.5,3.6-0.8,5.5-0.8s3.7,0.3,5.5,0.8s3.4,1.3,4.9,2.4
	c1.4,1.1,2.6,2.5,3.5,4.1c0.9,1.7,1.3,3.6,1.3,5.9v43.4h-8.9v-6.2c-1.7,1.3-3.3,2.5-5.1,3.6c-1.5,0.9-3,1.8-4.6,2.5
	s-3.1,1.1-4.4,1.1c-2.6,0-4.9-0.9-6.7-2.8c-1.8-1.8-2.8-4.1-2.8-6.7L194.8,137.4L194.8,137.4z"/>
<path class="st0" d="M217.7,128.2l-10.8,3.4c-1.1,0.5-1.8,1.2-2.1,2.3c-0.3,1.2-0.4,2.9-0.4,5v3.4c0,1.3,0.1,2.4,0.3,3.1
	c0.2,0.6,0.3,0.7,0.3,0.7c0.1,0,0.8-0.1,2.6-1c1.4-0.7,2.9-1.5,4.4-2.5c1.7-1,3.6-2.1,5.6-3.3L217.7,128.2L217.7,128.2z M205,147.4
	c-0.7,0-1.3-0.6-1.6-1.7c-0.2-0.9-0.4-2-0.4-3.5v-3.4c0-2.2,0.2-4,0.4-5.3c0.4-1.5,1.3-2.6,2.9-3.3l12.7-4v13.7l-0.3,0.2
	c-2.2,1.3-4.2,2.4-5.9,3.5c-1.5,0.9-3.1,1.8-4.5,2.5C206.2,147.3,205.4,147.4,205,147.4 M212.2,106.4c0.8,0,1.6,0.1,2.4,0.1
	c0.8,0.1,1.6,0.3,2.2,0.6c0.7,0.3,1.2,0.8,1.7,1.5c0.4,0.7,0.7,1.6,0.7,2.8v8l-14.3,4.3c-1.3,0.5-2.6,1.1-3.8,1.7
	c-1.1,0.6-2.1,1.4-2.9,2.4c-0.8,1-1.4,2.2-1.9,3.7s-0.7,3.5-0.7,5.9v8.8c0,2.5,0.8,4.5,2.6,6.3c1.7,1.7,3.8,2.6,6.3,2.6
	c1.2,0,2.6-0.4,4.1-1c1.6-0.7,3.1-1.5,4.5-2.4c1.7-1,3.4-2.2,5-3.5l1.1-0.9v6.9h7.6v-42.7c0-2.1-0.4-4-1.3-5.5
	c-0.8-1.6-2-2.9-3.3-3.9s-2.9-1.8-4.6-2.3c-3.5-1-7.2-1-10.6,0c-1.7,0.5-3.3,1.3-4.6,2.3c-1.4,1-2.5,2.3-3.3,3.9
	c-0.8,1.5-1.2,3.4-1.2,5.5v1.3h7.5v-1.3c0-2.7,1.3-3.7,2.4-4.2C209,106.7,210.5,106.4,212.2,106.4 M204.3,156.4c-2.8,0-5.2-1-7.2-3
	s-3-4.4-3-7.2v-8.8c0-2.6,0.3-4.7,0.8-6.4s1.2-3.1,2.2-4.2c0.9-1.1,2-2,3.3-2.7c1.2-0.6,2.6-1.2,4-1.8l13.3-4v-6.9
	c0-0.9-0.1-1.6-0.4-2.1c-0.3-0.4-0.7-0.8-1.1-1c-0.5-0.2-1.1-0.4-1.8-0.4c-2.2-0.2-4.5-0.1-6.3,0.6c-1,0.4-1.5,1.3-1.5,2.9v2.7
	h-10.3v-2.7c0-2.4,0.5-4.4,1.4-6.2c0.9-1.7,2.2-3.2,3.7-4.3c1.5-1.1,3.2-2,5.1-2.5c3.6-1.1,7.6-1.1,11.3,0c1.9,0.6,3.6,1.4,5.1,2.5
	c1.5,1.2,2.7,2.6,3.7,4.3c0.9,1.7,1.4,3.8,1.4,6.2v44h-10.3V150c-1.3,1-2.6,1.9-4,2.7c-1.4,0.9-3,1.8-4.7,2.5
	C207.3,156.1,205.7,156.4,204.3,156.4"/>
<path class="st0" d="M244.4,140.8c0,0.4,0.2,0.6,0.6,0.6c1.3,0,2.8-0.4,4.4-1.3c1.6-0.9,3.1-1.8,4.6-2.9c1.7-1.2,3.4-2.5,5.1-4.1
	v-21.8c0-1.3-0.4-2.4-1.1-3.1c-0.8-0.8-1.8-1.1-3.1-1.1h-6.1c-1.3,0-2.4,0.4-3.1,1.1c-0.8,0.8-1.1,1.8-1.1,3.1v29.5H244.4z
	 M259.2,142.8c-1.7,1.4-3.4,2.7-5.2,3.8c-1.5,0.9-3,1.8-4.6,2.6s-3.1,1.2-4.4,1.2c-2.6,0-4.9-0.9-6.8-2.8c-1.8-1.9-2.8-4.1-2.8-6.8
	v-29.4c0-1.8,0.4-3.5,1-5.1c0.7-1.6,1.6-3,2.8-4.2s2.6-2.1,4.2-2.8c1.6-0.7,3.3-1,5.2-1h6.1c1.8,0,3.6,0.3,5.1,1
	c1.6,0.7,3,1.6,4.2,2.8c1.2,1.2,2.1,2.6,2.8,4.2c0.7,1.6,1,3.3,1,5.1v46.8c0,1.9-0.3,3.6-1,5.2c-0.7,1.6-1.6,3-2.8,4.1
	c-1.2,1.2-2.6,2.1-4.2,2.7c-1.6,0.7-3.3,1-5.2,1h-6.2c-1.9,0-3.6-0.4-5.1-1c-1.6-0.7-3-1.6-4.2-2.8s-2.1-2.6-2.8-4.2
	c-0.7-1.6-1-3.3-1-5.2v-2.2h8.9v2.2c0,1.3,0.4,2.4,1.1,3.1c0.8,0.8,1.8,1.1,3.1,1.1h6.2c1.3,0,2.4-0.4,3.1-1.1
	c0.8-0.8,1.1-1.8,1.1-3.1v-15.2H259.2z"/>
<path class="st0" d="M248.7,107.7c-1.2,0-2,0.3-2.6,0.9s-0.9,1.5-0.9,2.6v29.4c1.2,0,2.5-0.4,4-1.2c1.6-0.8,3.1-1.8,4.5-2.8
	c1.6-1.1,3.2-2.4,4.8-3.8v-21.5c0-1.1-0.3-2-0.9-2.6s-1.5-0.9-2.6-0.9L248.7,107.7L248.7,107.7z M245,142.1c-0.8,0-1.3-0.5-1.3-1.3
	v-29.5c0-1.5,0.5-2.7,1.3-3.6c0.9-0.9,2.1-1.3,3.6-1.3h6.1c1.5,0,2.7,0.4,3.6,1.3s1.4,2.1,1.4,3.6v22.1l-0.2,0.2
	c-1.7,1.5-3.4,2.9-5.1,4.1c-1.5,1.1-3.1,2.1-4.7,2.9C248,141.6,246.4,142.1,245,142.1 M236.3,156.4v1.5c0,1.8,0.3,3.4,1,4.9
	s1.6,2.8,2.7,3.9c1.1,1.1,2.5,2,4,2.7c1.5,0.6,3.1,1,4.9,1h6.1c1.8,0,3.4-0.3,4.9-0.9c1.5-0.6,2.8-1.5,3.9-2.6s2-2.4,2.6-3.9
	s0.9-3.1,0.9-4.9v-46.8c0-1.7-0.3-3.3-1-4.8s-1.6-2.9-2.7-4s-2.5-2-4-2.7s-3.1-1-4.9-1h-6.1c-1.7,0-3.4,0.3-4.9,1
	c-1.5,0.6-2.8,1.6-4,2.7c-1.1,1.1-2,2.5-2.7,4s-1,3.1-1,4.8v29.5c0,2.5,0.8,4.5,2.6,6.3c1.7,1.7,3.8,2.6,6.3,2.6
	c1.2,0,2.6-0.4,4.1-1.1c1.6-0.8,3.2-1.6,4.6-2.5c1.7-1.1,3.4-2.3,5.1-3.7l1.1-0.9v16.6c0,1.5-0.5,2.7-1.3,3.6
	c-0.9,0.9-2.1,1.3-3.6,1.3h-6.1c-1.5,0-2.7-0.5-3.6-1.3c-0.9-0.9-1.3-2.1-1.3-3.6v-1.5h-7.6V156.4z M254.9,171.8h-6.1
	c-1.9,0-3.8-0.4-5.4-1.1c-1.7-0.7-3.1-1.7-4.4-3c-1.2-1.2-2.2-2.7-3-4.4c-0.7-1.7-1.1-3.5-1.1-5.4V155h10.3v2.9c0,1.2,0.3,2,0.9,2.6
	c0.6,0.6,1.5,0.9,2.6,0.9h6.1c1.2,0,2-0.3,2.6-0.9c0.7-0.6,0.9-1.5,0.9-2.6v-13.7c-1.4,1.1-2.7,2-4.1,2.9c-1.5,0.9-3,1.8-4.7,2.6
	s-3.3,1.3-4.7,1.3c-2.8,0-5.3-1-7.2-3c-2-2-3-4.4-3-7.2v-29.5c0-1.9,0.4-3.7,1.1-5.4c0.7-1.7,1.7-3.2,3-4.4c1.2-1.3,2.7-2.3,4.4-3
	s3.5-1.1,5.4-1.1h6.1c1.9,0,3.8,0.4,5.4,1.1c1.7,0.7,3.1,1.7,4.4,3c1.3,1.2,2.3,2.7,3,4.4c0.7,1.7,1.1,3.5,1.1,5.4v46.8
	c0,1.9-0.4,3.8-1,5.4c-0.7,1.7-1.7,3.1-2.9,4.3c-1.2,1.2-2.7,2.2-4.4,2.9C258.7,171.5,256.9,171.8,254.9,171.8"/>
<path class="st0" d="M338.9,111.8c0-1.4-0.1-2.5-0.4-3.3c-0.2-0.8-0.5-1.2-0.9-1.2c-0.5,0-1.5,0.3-3,1s-2.9,1.5-4.5,2.4
	c-1.8,1.1-3.8,2.3-6,3.6v40.4h-8.9V99.2h8.9v6.2c1.6-1.3,3.3-2.5,5.1-3.6c1.4-0.9,3-1.8,4.6-2.5s3.1-1.1,4.4-1.1s2.6,0.2,3.7,0.7
	c1.2,0.5,2.2,1.2,3,2.1c0.9,0.9,1.5,1.9,2,3.1s0.7,2.4,0.7,3.7v46.9h-8.9v-42.9H338.9z"/>
<path class="st0" d="M339.6,154.1h7.5v-46.2c0-1.2-0.2-2.4-0.7-3.5s-1.1-2-1.9-2.9c-0.8-0.8-1.7-1.5-2.8-1.9c-2.1-0.9-4.5-1-7.6,0.3
	c-1.6,0.7-3.1,1.5-4.5,2.4c-1.7,1-3.4,2.2-5,3.5l-1.1,0.9v-6.9H316V154h7.5v-40l0.3-0.2c2.2-1.3,4.2-2.5,6-3.6
	c1.5-0.9,3-1.8,4.5-2.5c2.1-1,2.9-1.1,3.3-1.1c0.7,0,1.3,0.6,1.6,1.7c0.2,0.9,0.4,2,0.4,3.5L339.6,154.1L339.6,154.1z M348.6,155.5
	h-10.3v-43.7c0-1.3-0.1-2.3-0.3-3.1c-0.2-0.6-0.3-0.7-0.3-0.7c-0.1,0-0.8,0.1-2.6,1c-1.4,0.7-2.9,1.5-4.4,2.4
	c-1.7,1-3.6,2.1-5.6,3.4v40.7h-10.3v-57h10.3v5.4c1.3-1,2.6-1.9,4-2.7c1.5-0.9,3.1-1.8,4.7-2.5c3.4-1.5,6.2-1.4,8.7-0.3
	c1.2,0.5,2.3,1.3,3.2,2.2c0.9,1,1.6,2.1,2.2,3.3c0.5,1.2,0.8,2.6,0.8,4v47.6H348.6z"/>
<path class="st0" d="M379.6,135.4h8.9v7.1c0,1.8-0.3,3.5-1,5.1s-1.6,3-2.8,4.2c-1.2,1.2-2.6,2.1-4.2,2.8s-3.3,1-5.2,1h-6.1
	c-1.9,0-3.6-0.3-5.2-1s-3-1.6-4.2-2.8s-2.1-2.6-2.8-4.2c-0.7-1.6-1-3.3-1-5.1v-31.1c0-1.9,0.3-3.6,1-5.2s1.6-3,2.8-4.2
	c1.2-1.2,2.6-2.1,4.2-2.8c1.6-0.7,3.3-1,5.2-1h6.1c1.8,0,3.6,0.3,5.2,1s3,1.6,4.2,2.8c1.2,1.2,2.1,2.6,2.8,4.2c0.7,1.6,1,3.3,1,5.2
	v7.4h-8.9v-7.4c0-1.3-0.4-2.4-1.1-3.1c-0.8-0.8-1.8-1.2-3.1-1.2h-6.1c-1.3,0-2.4,0.4-3.1,1.2c-0.8,0.7-1.2,1.8-1.2,3.1v31.1
	c0,1.3,0.4,2.4,1.2,3.1c0.8,0.8,1.8,1.1,3.1,1.1h6.1c1.3,0,2.4-0.4,3.1-1.1c0.8-0.8,1.1-1.8,1.1-3.1V135.4z"/>
<path class="st0" d="M369.2,98.9c-1.8,0-3.4,0.3-4.9,1c-1.5,0.6-2.8,1.5-4,2.7c-1.1,1.1-2,2.5-2.7,4s-1,3.1-1,4.9v31.1
	c0,1.7,0.3,3.3,1,4.8s1.6,2.9,2.7,4s2.5,2,4,2.7c1.5,0.6,3.1,1,4.9,1h6.1c1.7,0,3.4-0.3,4.9-1s2.8-1.6,4-2.7c1.1-1.1,2-2.4,2.7-4
	c0.7-1.5,1-3.2,1-4.8v-6.5h-7.5v6.5c0,1.5-0.5,2.7-1.3,3.6c-0.9,0.9-2.1,1.4-3.6,1.4h-6.1c-1.5,0-2.7-0.5-3.6-1.4s-1.3-2.1-1.3-3.6
	v-31.1c0-1.5,0.4-2.7,1.3-3.6s2.1-1.4,3.6-1.4h6.1c1.5,0,2.7,0.5,3.6,1.4s1.3,2.1,1.3,3.6v6.7h7.5v-6.7c0-1.7-0.3-3.4-1-4.9
	s-1.6-2.8-2.7-4c-1.1-1.1-2.5-2-4-2.7s-3.1-1-4.9-1C375.3,98.9,369.2,98.9,369.2,98.9z M375.3,156.4h-6.1c-1.9,0-3.8-0.4-5.4-1.1
	c-1.7-0.7-3.1-1.7-4.4-3c-1.2-1.2-2.2-2.7-3-4.4c-0.7-1.7-1.1-3.5-1.1-5.4v-31.1c0-1.9,0.4-3.8,1.1-5.4c0.7-1.7,1.7-3.1,3-4.4
	c1.3-1.2,2.7-2.2,4.4-3c1.7-0.7,3.5-1.1,5.4-1.1h6.1c1.9,0,3.8,0.4,5.4,1.1s3.1,1.7,4.4,3c1.2,1.2,2.2,2.7,3,4.4
	c0.7,1.7,1.1,3.5,1.1,5.4v8.1h-10.3v-8.1c0-1.1-0.3-2-0.9-2.6s-1.5-0.9-2.6-0.9h-6.1c-1.2,0-2,0.3-2.6,0.9s-0.9,1.5-0.9,2.6v31.1
	c0,1.2,0.3,2,0.9,2.6s1.5,0.9,2.7,0.9h6.1c1.1,0,2-0.3,2.6-0.9c0.6-0.6,0.9-1.5,0.9-2.6v-7.8h10.3v7.8c0,1.9-0.4,3.7-1.1,5.4
	s-1.7,3.2-3,4.4c-1.2,1.3-2.7,2.2-4.4,3C379.1,156.1,377.3,156.4,375.3,156.4"/>
<path class="st0" d="M414.5,155.8h-6.2c-1.8,0-3.6-0.4-5.2-1c-1.6-0.7-3-1.6-4.2-2.8s-2.1-2.6-2.8-4.2c-0.7-1.6-1-3.3-1-5.1V99.2h9
	v43.4c0,1.3,0.4,2.4,1.2,3.1c0.8,0.8,1.9,1.1,3.2,1.1h5.9v9H414.5z M404.1,89.4h-8.9V78.9h8.9V89.4z"/>
<path class="st0" d="M395.9,88.7h7.6v-9.1h-7.6V88.7z M404.8,90.1h-10.3V78.2h10.3V90.1z M395.9,99.9v42.7c0,1.7,0.4,3.3,1,4.8
	c0.7,1.5,1.6,2.9,2.7,4s2.5,2,4,2.7c1.5,0.6,3.1,1,4.9,1h5.5v-7.5h-5.3c-1.5,0-2.7-0.5-3.7-1.3c-0.9-0.9-1.4-2.1-1.4-3.6V99.9H395.9
	z M415.2,156.4h-6.8c-1.9,0-3.8-0.4-5.4-1.1c-1.7-0.7-3.1-1.7-4.4-3c-1.2-1.2-2.2-2.7-3-4.4c-0.7-1.7-1.1-3.5-1.1-5.4v-44h10.4v44
	c0,1.1,0.3,2,1,2.6s1.6,0.9,2.7,0.9h6.6L415.2,156.4L415.2,156.4z"/>
<path class="st0" d="M425.6,142.3c0,1.4,0.1,2.5,0.4,3.3c0.2,0.8,0.5,1.2,0.9,1.2c0.5,0,1.5-0.4,3-1.1c1.5-0.7,2.9-1.6,4.5-2.5
	c1.8-1,3.8-2.2,5.9-3.5v-12.4l-11.7,3.7c-1.4,0.6-2.2,1.5-2.5,2.8c-0.3,1.2-0.5,3-0.5,5.2L425.6,142.3L425.6,142.3z M416.7,137.4
	c0-2.5,0.2-4.6,0.7-6.2c0.5-1.6,1.2-2.9,2-4c0.9-1.1,1.9-1.9,3.1-2.5s2.5-1.2,3.9-1.7l13.8-4.2v-7.4c0-1.1-0.2-1.9-0.5-2.4
	c-0.4-0.6-0.8-1-1.4-1.2c-0.6-0.3-1.2-0.4-2-0.5s-1.5-0.1-2.3-0.1c-1.6,0-3,0.2-4.3,0.8c-1.3,0.5-1.9,1.7-1.9,3.5v2h-8.9v-2
	c0-2.3,0.4-4.2,1.3-5.9c0.9-1.7,2.1-3,3.5-4.1c1.5-1.1,3.1-1.9,4.9-2.4s3.6-0.8,5.5-0.8s3.7,0.3,5.5,0.8s3.5,1.3,4.9,2.4
	s2.6,2.5,3.5,4.1c0.9,1.7,1.3,3.6,1.3,5.9v43.4h-8.9v-6.2c-1.6,1.3-3.3,2.5-5.1,3.6c-1.5,0.9-3,1.8-4.6,2.5s-3.1,1.1-4.4,1.1
	c-2.7,0-4.9-0.9-6.8-2.8c-1.8-1.8-2.8-4.1-2.8-6.7L416.7,137.4L416.7,137.4z"/>
<path class="st0" d="M439.6,128.2l-10.8,3.4c-1.1,0.5-1.8,1.2-2.1,2.3c-0.3,1.2-0.4,2.9-0.4,5v3.4c0,1.3,0.1,2.4,0.3,3.1
	c0.2,0.6,0.3,0.7,0.3,0.7c0.1,0,0.8-0.1,2.6-1c1.4-0.7,2.9-1.5,4.4-2.5c1.7-1,3.6-2.1,5.6-3.3v-11.1H439.6z M426.9,147.4
	c-0.7,0-1.3-0.6-1.6-1.7c-0.3-0.9-0.4-2-0.4-3.5v-3.4c0-2.3,0.1-4,0.5-5.3c0.4-1.5,1.3-2.6,2.9-3.3l12.7-4v13.7l-0.3,0.2
	c-2.2,1.3-4.2,2.4-6,3.5c-1.5,0.9-3,1.8-4.5,2.5C428.1,147.3,427.3,147.4,426.9,147.4 M434.1,106.4c0.8,0,1.6,0.1,2.4,0.1
	c0.8,0.1,1.6,0.3,2.2,0.6c0.7,0.3,1.2,0.8,1.7,1.5c0.4,0.7,0.7,1.6,0.7,2.8v8l-14.3,4.3c-1.3,0.5-2.6,1.1-3.8,1.7
	c-1.1,0.6-2.1,1.4-2.9,2.4s-1.4,2.2-1.9,3.7s-0.7,3.5-0.7,5.9v8.8c0,2.5,0.8,4.5,2.6,6.3c1.7,1.7,3.8,2.6,6.3,2.6
	c1.2,0,2.6-0.4,4.1-1c1.6-0.7,3.1-1.5,4.5-2.4c1.7-1,3.4-2.2,5-3.5l1.1-0.9v6.9h7.6v-42.7c0-2.1-0.4-4-1.3-5.5
	c-0.8-1.6-2-2.9-3.3-3.9c-1.4-1-2.9-1.8-4.6-2.3c-3.5-1-7.1-1-10.6,0c-1.7,0.5-3.3,1.3-4.6,2.3c-1.4,1-2.5,2.3-3.3,3.9
	c-0.8,1.5-1.3,3.4-1.3,5.5v1.3h7.6v-1.3c0-2.7,1.3-3.7,2.4-4.2C430.9,106.7,432.4,106.4,434.1,106.4 M426.2,156.4
	c-2.8,0-5.3-1-7.2-3c-2-2-3-4.4-3-7.2v-8.8c0-2.6,0.3-4.7,0.8-6.4s1.2-3.1,2.2-4.2c0.9-1.1,2-2,3.3-2.7c1.2-0.6,2.6-1.2,4-1.8
	l13.4-4v-6.9c0-0.9-0.2-1.6-0.4-2.1c-0.3-0.5-0.7-0.8-1.1-1c-0.5-0.2-1.1-0.4-1.7-0.4c-2.2-0.2-4.5-0.1-6.3,0.6
	c-1,0.4-1.5,1.3-1.5,2.9v2.7h-10.3v-2.7c0-2.4,0.5-4.4,1.4-6.2c0.9-1.7,2.2-3.2,3.7-4.3c1.5-1.1,3.2-2,5.1-2.5
	c3.7-1.1,7.6-1.1,11.4,0c1.9,0.5,3.6,1.4,5.1,2.5c1.5,1.2,2.7,2.6,3.7,4.3c0.9,1.7,1.4,3.8,1.4,6.2v44h-10.3V150
	c-1.3,1-2.7,1.9-4,2.7c-1.5,0.9-3,1.8-4.7,2.5C429.2,156.1,427.6,156.4,426.2,156.4"/>
<path class="st0" d="M299.6,110.9c0-1.4-0.4-2.4-1.2-3.2c-0.8-0.8-1.8-1.2-3.2-1.2h-6.3c-1.4,0-2.4,0.4-3.2,1.2
	c-0.8,0.8-1.2,1.9-1.1,3.2l-0.1,14.4l13-8.7c0.4-0.3,0.8-0.7,1.1-1c0.6-0.7,1-1.6,1-2.5L299.6,110.9z M308.8,116.4
	c0,0.8-0.2,1.5-0.7,2.1c-0.4,0.7-0.9,1.3-1.5,1.8c-0.6,0.7-1.4,1.3-2.3,1.8l-19.7,13.2l-0.1,7.4c0,1.4,0.4,2.4,1.2,3.2
	c0.8,0.8,1.8,1.2,3.2,1.2h6.3c1.4,0,2.4-0.4,3.2-1.2c0.8-0.8,1.2-1.8,1.2-3.2v-7.3h9.1v7.3c0,1.9-0.3,3.7-1,5.3s-1.7,3-2.9,4.3
	c-1.2,1.2-2.7,2.2-4.3,2.9c-1.6,0.7-3.4,1.1-5.3,1.1h-6.3c-1.9,0-3.7-0.4-5.3-1.1c-1.6-0.7-3-1.7-4.3-2.9c-1.2-1.2-2.2-2.6-2.9-4.3
	c-0.7-1.6-1.1-3.4-1.1-5.3v-31.9c0-1.9,0.3-3.7,1-5.3c0.7-1.6,1.6-3.1,2.9-4.3c1.2-1.2,2.7-2.2,4.3-2.9c1.7-0.7,3.4-1.1,5.3-1.1h6.3
	c1.9,0,3.7,0.3,5.3,1.1c1.6,0.7,3.1,1.7,4.3,2.9c1.2,1.2,2.2,2.6,2.9,4.3c0.7,1.6,1.1,3.4,1.1,5.3L308.8,116.4z"/>
<path class="st0" d="M288.9,107.2c-1.2,0-2.1,0.3-2.7,1c-0.7,0.7-1,1.5-1,2.7V124l12-8c0.3-0.3,0.7-0.6,0.9-0.9
	c0.5-0.6,0.8-1.3,0.9-2.1v-2.1c0-1.2-0.3-2.1-1-2.7c-0.6-0.6-1.5-1-2.7-1H288.9z M283.8,126.6l0.1-15.7c0-1.5,0.4-2.8,1.4-3.7
	c0.9-0.9,2.2-1.4,3.7-1.4h6.3c1.5,0,2.8,0.5,3.7,1.4c0.9,0.9,1.3,2.1,1.4,3.7v2.1c-0.1,1.1-0.5,2.1-1.2,3c-0.3,0.4-0.7,0.7-1.1,1.1
	L283.8,126.6z M288.9,98.1c-1.8,0-3.5,0.3-5,1c-1.6,0.7-2.9,1.6-4.1,2.8c-1.2,1.2-2.1,2.5-2.7,4c-0.7,1.5-1,3.2-0.9,5v31.9
	c0,1.8,0.4,3.5,1,5c0.7,1.5,1.6,2.9,2.7,4.1c1.1,1.1,2.5,2.1,4.1,2.7c1.5,0.7,3.2,1,5,1h6.3c1.8,0,3.5-0.3,5-1s2.9-1.6,4-2.7
	c1.2-1.2,2.1-2.5,2.8-4.1c0.7-1.5,1-3.2,1-5v-6.6h-7.8v6.6c0,1.5-0.5,2.8-1.4,3.7s-2.2,1.4-3.7,1.4h-6.3c-1.5,0-2.8-0.5-3.7-1.4
	c-0.9-0.9-1.4-2.1-1.4-3.7V135l20.1-13.4c0.8-0.5,1.6-1.1,2.1-1.7c0.6-0.5,1.1-1.1,1.5-1.7s0.5-1.2,0.6-1.8v-5.5c0-1.8-0.4-3.5-1-5
	c-0.7-1.5-1.6-2.9-2.7-4c-1.1-1.2-2.5-2.1-4.1-2.7c-1.5-0.7-3.2-1-5-1h-6.4V98.1z M295.2,157h-6.3c-2,0-3.9-0.4-5.6-1.1
	c-1.7-0.7-3.2-1.8-4.5-3.1s-2.3-2.8-3-4.5s-1.1-3.6-1.1-5.6v-31.9c0-2,0.3-3.8,1-5.6c0.7-1.7,1.7-3.2,3-4.5s2.8-2.3,4.5-3
	s3.6-1.1,5.6-1.1h6.3c2,0,3.9,0.4,5.6,1.1s3.2,1.8,4.5,3c1.3,1.3,2.3,2.8,3,4.5s1.1,3.6,1.1,5.5l0.1,5.5c0,0.9-0.3,1.7-0.8,2.5
	c-0.5,0.7-1,1.4-1.7,2c-0.6,0.7-1.4,1.3-2.3,1.9l-19.4,13v7c0,1.2,0.3,2.1,1,2.7c0.6,0.7,1.5,1,2.7,1h6.3c1.2,0,2.1-0.3,2.7-1
	c0.7-0.6,1-1.5,1-2.7v-8h10.5v8c0,2-0.4,3.9-1.1,5.6c-0.8,1.7-1.8,3.2-3.1,4.5c-1.3,1.3-2.8,2.3-4.5,3
	C299,156.6,297.2,157,295.2,157"/>
</svg>
