<?xml version="1.0" encoding="utf-8"?>
<!-- Generator: Adobe Illustrator 19.2.1, SVG Export Plug-In . SVG Version: 6.00 Build 0)  -->
<svg version="1.1" id="Capa_1" xmlns="http://www.w3.org/2000/svg" xmlns:xlink="http://www.w3.org/1999/xlink" x="0px" y="0px"
	 width="179.6px" height="250px" viewBox="0 0 179.6 250" style="enable-background:new 0 0 179.6 250;" xml:space="preserve">
<style type="text/css">
	.st0{fill:#2D2969;}
</style>
<g>
	<rect x="57" y="82.8" transform="matrix(0.7072 -0.707 0.707 0.7072 -43.7064 69.0281)" class="st0" width="8.9" height="8.9"/>
	<polygon class="st0" points="61.5,81 61.5,81 61.5,81 67.8,87.3 61.5,93.6 61.5,93.6 61.5,93.6 89.8,87.3 	"/>
	<rect x="57" y="95.4" transform="matrix(0.7072 -0.707 0.707 0.7072 -52.5947 72.708)" class="st0" width="8.9" height="8.9"/>
	<rect x="85.3" y="89.1" transform="matrix(0.7072 -0.707 0.707 0.7072 -39.8691 90.8663)" class="st0" width="8.9" height="8.9"/>
	
		<rect x="113.6" y="82.8" transform="matrix(0.7072 -0.707 0.707 0.7072 -27.1379 109.0375)" class="st0" width="8.9" height="8.9"/>
	<polygon class="st0" points="111.8,87.3 118.1,81 118.1,81 89.8,87.3 118.1,93.6 118.1,93.6 	"/>
	<rect x="113.6" y="95.4" transform="matrix(0.7072 -0.707 0.707 0.7072 -36.0266 112.717)" class="st0" width="8.9" height="8.9"/>
	<rect x="57" y="108" transform="matrix(0.7072 -0.707 0.707 0.7072 -61.4824 76.3894)" class="st0" width="8.9" height="8.9"/>
	<rect x="57" y="120.6" transform="matrix(0.7072 -0.707 0.707 0.7072 -70.3698 80.0698)" class="st0" width="8.9" height="8.9"/>
	<rect x="85.3" y="101.7" transform="matrix(0.7072 -0.707 0.707 0.7072 -48.7565 94.5467)" class="st0" width="8.9" height="8.9"/>
	<rect x="85.3" y="114.3" transform="matrix(0.7072 -0.707 0.707 0.7072 -57.6453 98.2264)" class="st0" width="8.9" height="8.9"/>
	<rect x="57" y="133.1" transform="matrix(0.7072 -0.707 0.707 0.7072 -79.2582 83.7496)" class="st0" width="8.9" height="8.9"/>
	<rect x="57" y="145.7" transform="matrix(0.7072 -0.707 0.707 0.7072 -88.1456 87.43)" class="st0" width="8.9" height="8.9"/>
	
		<rect x="85.3" y="126.8" transform="matrix(0.7072 -0.707 0.707 0.7072 -66.5326 101.9068)" class="st0" width="8.9" height="8.9"/>
	
		<rect x="85.3" y="139.4" transform="matrix(0.7072 -0.707 0.707 0.7072 -75.4206 105.5887)" class="st0" width="8.9" height="8.9"/>
	<rect x="57" y="158.3" transform="matrix(0.7072 -0.707 0.707 0.7072 -97.0333 91.1105)" class="st0" width="8.9" height="8.9"/>
	<rect x="85.3" y="152" transform="matrix(0.7072 -0.707 0.707 0.7072 -84.3092 109.2696)" class="st0" width="8.9" height="8.9"/>
	<rect x="113.6" y="108" transform="matrix(0.7072 -0.707 0.707 0.7072 -44.9139 116.3988)" class="st0" width="8.9" height="8.9"/>
	
		<rect x="113.6" y="120.6" transform="matrix(0.7072 -0.707 0.707 0.7072 -53.8013 120.0792)" class="st0" width="8.9" height="8.9"/>
	
		<rect x="113.6" y="133.1" transform="matrix(0.7072 -0.707 0.707 0.7072 -62.6901 123.7587)" class="st0" width="8.9" height="8.9"/>
	
		<rect x="113.6" y="145.7" transform="matrix(0.7072 -0.707 0.707 0.7072 -71.5774 127.439)" class="st0" width="8.9" height="8.9"/>
	
		<rect x="113.6" y="158.3" transform="matrix(0.7072 -0.707 0.707 0.7072 -80.4651 131.1195)" class="st0" width="8.9" height="8.9"/>
</g>
</svg>
