<?xml version="1.0" encoding="utf-8"?>
<!-- Generator: Adobe Illustrator 19.2.1, SVG Export Plug-In . SVG Version: 6.00 Build 0)  -->
<svg version="1.1" id="Capa_1" xmlns="http://www.w3.org/2000/svg" xmlns:xlink="http://www.w3.org/1999/xlink" x="0px" y="0px"
	 width="179.6px" height="250px" viewBox="0 0 179.6 250" style="enable-background:new 0 0 179.6 250;" xml:space="preserve">
<style type="text/css">
	.st0{fill:#2D2969;}
</style>
<g>
	
		<rect x="46.9" y="69.7" transform="matrix(0.7072 -0.707 0.707 0.7072 -37.9975 59.3849)" class="st0" width="11.6" height="11.6"/>
	<polygon class="st0" points="52.7,67.3 52.7,67.3 52.7,67.3 60.9,75.6 52.7,83.8 52.7,83.8 52.7,83.8 89.8,75.6 	"/>
	
		<rect x="46.9" y="86.2" transform="matrix(0.7072 -0.707 0.707 0.7072 -49.6466 64.2082)" class="st0" width="11.6" height="11.6"/>
	<rect x="83.9" y="78" transform="matrix(0.7072 -0.707 0.707 0.7072 -32.9683 88.0062)" class="st0" width="11.6" height="11.6"/>
	
		<rect x="121" y="69.7" transform="matrix(0.7072 -0.707 0.707 0.7072 -16.2827 111.8215)" class="st0" width="11.6" height="11.6"/>
	<polygon class="st0" points="118.6,75.6 126.9,67.3 126.9,67.3 89.8,75.6 126.9,83.8 126.9,83.8 	"/>
	
		<rect x="121" y="86.2" transform="matrix(0.7072 -0.707 0.707 0.7072 -27.9323 116.6443)" class="st0" width="11.6" height="11.6"/>
	
		<rect x="46.9" y="102.7" transform="matrix(0.7072 -0.707 0.707 0.7072 -61.2947 69.0327)" class="st0" width="11.6" height="11.6"/>
	
		<rect x="46.9" y="119.2" transform="matrix(0.7072 -0.707 0.707 0.7072 -72.9426 73.8563)" class="st0" width="11.6" height="11.6"/>
	
		<rect x="83.9" y="94.5" transform="matrix(0.7072 -0.707 0.707 0.7072 -44.6161 92.8297)" class="st0" width="11.6" height="11.6"/>
	
		<rect x="83.9" y="110.9" transform="matrix(0.7072 -0.707 0.707 0.7072 -56.2659 97.6528)" class="st0" width="11.6" height="11.6"/>
	
		<rect x="46.9" y="135.7" transform="matrix(0.7072 -0.707 0.707 0.7072 -84.592 78.6795)" class="st0" width="11.6" height="11.6"/>
	
		<rect x="46.9" y="152.1" transform="matrix(0.7072 -0.707 0.707 0.7072 -96.2398 83.5029)" class="st0" width="11.6" height="11.6"/>
	
		<rect x="83.9" y="127.4" transform="matrix(0.7072 -0.707 0.707 0.7072 -67.9137 102.4763)" class="st0" width="11.6" height="11.6"/>
	
		<rect x="83.9" y="143.9" transform="matrix(0.7072 -0.707 0.707 0.7072 -79.5623 107.3015)" class="st0" width="11.6" height="11.6"/>
	
		<rect x="46.9" y="168.6" transform="matrix(0.7072 -0.707 0.707 0.7072 -107.8881 88.3266)" class="st0" width="11.6" height="11.6"/>
	
		<rect x="83.9" y="160.4" transform="matrix(0.7072 -0.707 0.707 0.7072 -91.2117 112.1257)" class="st0" width="11.6" height="11.6"/>
	
		<rect x="121" y="102.7" transform="matrix(0.7072 -0.707 0.707 0.7072 -39.5799 121.4693)" class="st0" width="11.6" height="11.6"/>
	
		<rect x="121" y="119.2" transform="matrix(0.7072 -0.707 0.707 0.7072 -51.2278 126.2928)" class="st0" width="11.6" height="11.6"/>
	
		<rect x="121" y="135.7" transform="matrix(0.7072 -0.707 0.707 0.7072 -62.8776 131.1156)" class="st0" width="11.6" height="11.6"/>
	
		<rect x="121" y="152.1" transform="matrix(0.7072 -0.707 0.707 0.7072 -74.5254 135.939)" class="st0" width="11.6" height="11.6"/>
	
		<rect x="121" y="168.6" transform="matrix(0.7072 -0.707 0.707 0.7072 -86.1737 140.7627)" class="st0" width="11.6" height="11.6"/>
</g>
</svg>
