<?xml version="1.0" encoding="utf-8"?>
<!-- Generator: Adobe Illustrator 19.2.1, SVG Export Plug-In . SVG Version: 6.00 Build 0)  -->
<svg version="1.1" id="Capa_1" xmlns="http://www.w3.org/2000/svg" xmlns:xlink="http://www.w3.org/1999/xlink" x="0px" y="0px"
	 width="250px" height="250px" viewBox="0 0 250 250" style="enable-background:new 0 0 250 250;" xml:space="preserve">
<style type="text/css">
	.st0{fill:#2D2969;}
</style>
<g>
	<rect x="92.3" y="82.8" transform="matrix(0.7072 -0.707 0.707 0.7072 -33.3966 93.924)" class="st0" width="8.9" height="8.9"/>
	<polygon class="st0" points="96.7,81 96.7,81 96.7,81 103,87.3 96.7,93.6 96.7,93.6 96.7,93.6 125,87.3 	"/>
	<rect x="92.3" y="95.4" transform="matrix(0.7072 -0.707 0.707 0.7072 -42.2852 97.6037)" class="st0" width="8.9" height="8.9"/>
	
		<rect x="120.5" y="89.1" transform="matrix(0.7072 -0.707 0.707 0.7072 -29.5593 115.7622)" class="st0" width="8.9" height="8.9"/>
	
		<rect x="148.9" y="82.8" transform="matrix(0.7072 -0.707 0.707 0.7072 -16.8281 133.9334)" class="st0" width="8.9" height="8.9"/>
	<polygon class="st0" points="147,87.3 153.3,81 153.3,81 125,87.3 153.3,93.6 153.3,93.6 	"/>
	<rect x="148.9" y="95.4" transform="matrix(0.7072 -0.707 0.707 0.7072 -25.717 137.6127)" class="st0" width="8.9" height="8.9"/>
	<rect x="92.3" y="108" transform="matrix(0.7072 -0.707 0.707 0.7072 -51.1726 101.2853)" class="st0" width="8.9" height="8.9"/>
	<rect x="92.3" y="120.6" transform="matrix(0.7072 -0.707 0.707 0.7072 -60.06 104.9657)" class="st0" width="8.9" height="8.9"/>
	
		<rect x="120.5" y="101.7" transform="matrix(0.7072 -0.707 0.707 0.7072 -38.4467 119.4426)" class="st0" width="8.9" height="8.9"/>
	
		<rect x="120.5" y="114.3" transform="matrix(0.7072 -0.707 0.707 0.7072 -47.3357 123.1221)" class="st0" width="8.9" height="8.9"/>
	
		<rect x="92.3" y="133.1" transform="matrix(0.7072 -0.707 0.707 0.7072 -68.9487 108.6453)" class="st0" width="8.9" height="8.9"/>
	<rect x="92.3" y="145.7" transform="matrix(0.7072 -0.707 0.707 0.7072 -77.836 112.3256)" class="st0" width="8.9" height="8.9"/>
	
		<rect x="120.5" y="126.8" transform="matrix(0.7072 -0.707 0.707 0.7072 -56.223 126.8025)" class="st0" width="8.9" height="8.9"/>
	
		<rect x="120.5" y="139.4" transform="matrix(0.7072 -0.707 0.707 0.7072 -65.1109 130.4846)" class="st0" width="8.9" height="8.9"/>
	
		<rect x="92.3" y="158.3" transform="matrix(0.7072 -0.707 0.707 0.7072 -86.7237 116.0061)" class="st0" width="8.9" height="8.9"/>
	<rect x="120.5" y="152" transform="matrix(0.7072 -0.707 0.707 0.7072 -73.9994 134.1655)" class="st0" width="8.9" height="8.9"/>
	<rect x="148.9" y="108" transform="matrix(0.7072 -0.707 0.707 0.7072 -34.6041 141.2947)" class="st0" width="8.9" height="8.9"/>
	
		<rect x="148.9" y="120.6" transform="matrix(0.7072 -0.707 0.707 0.7072 -43.4915 144.9751)" class="st0" width="8.9" height="8.9"/>
	
		<rect x="148.9" y="133.1" transform="matrix(0.7072 -0.707 0.707 0.7072 -52.3805 148.6544)" class="st0" width="8.9" height="8.9"/>
	
		<rect x="148.9" y="145.7" transform="matrix(0.7072 -0.707 0.707 0.7072 -61.2679 152.3347)" class="st0" width="8.9" height="8.9"/>
	
		<rect x="148.9" y="158.3" transform="matrix(0.7072 -0.707 0.707 0.7072 -70.1556 156.0152)" class="st0" width="8.9" height="8.9"/>
</g>
</svg>
