<?xml version="1.0" standalone="no"?>
<!DOCTYPE svg PUBLIC "-//W3C//DTD SVG 20010904//EN"
 "http://www.w3.org/TR/2001/REC-SVG-20010904/DTD/svg10.dtd">
<svg version="1.0" xmlns="http://www.w3.org/2000/svg"
 width="700.000000pt" height="700.000000pt" viewBox="0 0 700.000000 700.000000"
 preserveAspectRatio="xMidYMid meet">
<metadata>
Created by potrace 1.11, written by Peter Selinger 2001-2013
</metadata>
<g transform="translate(0.000000,700.000000) scale(0.100000,-0.100000)"
fill="#000000" stroke="none">
<path d="M2259 6928 c-10 -18 -13 -126 -14 -482 -1 -416 1 -461 16 -480 16
-20 26 -20 290 -22 247 -1 318 -5 399 -19 14 -2 42 -7 62 -9 20 -3 82 -21 137
-39 258 -87 452 -273 550 -527 68 -175 84 -409 41 -607 -54 -249 -236 -491
-465 -617 -27 -16 -54 -31 -60 -36 -28 -21 -183 -70 -300 -96 -16 -3 -165 -8
-330 -11 -280 -4 -301 -6 -320 -24 -19 -19 -20 -33 -20 -454 -1 -239 3 -443 7
-454 4 -11 17 -23 30 -26 13 -3 151 -7 308 -9 157 -2 296 -7 310 -10 13 -3 41
-8 62 -11 70 -11 201 -55 279 -94 275 -139 467 -403 511 -699 30 -207 6 -418
-65 -587 -77 -184 -237 -350 -432 -448 -88 -44 -192 -75 -345 -102 -19 -4
-163 -9 -320 -11 -157 -2 -294 -6 -306 -9 -11 -2 -25 -15 -30 -27 -7 -14 -10
-199 -10 -480 1 -445 2 -458 21 -473 17 -13 68 -15 374 -14 195 1 372 5 395
10 23 4 68 10 101 14 33 3 69 8 80 11 11 2 31 6 45 8 223 37 520 154 705 279
385 259 632 630 735 1102 12 55 24 120 26 145 3 25 7 56 10 70 21 117 24 482
5 605 -42 274 -143 540 -288 763 -59 89 -175 240 -233 302 -18 19 -48 51 -67
71 l-35 37 95 93 c208 206 337 413 436 702 22 64 40 120 40 122 -1 3 6 38 15
78 23 108 29 154 45 317 9 95 6 401 -4 470 -4 25 -9 59 -10 75 -13 122 -73
357 -123 480 -32 77 -118 241 -166 314 -136 207 -371 431 -584 554 -150 88
-424 194 -544 212 -23 4 -46 8 -49 11 -4 2 -24 6 -45 9 -22 4 -46 8 -54 10 -8
2 -42 7 -75 11 -33 3 -80 9 -105 13 -25 4 -196 8 -382 10 l-336 3 -13 -24z"/>
</g>
</svg>
