<svg id="Capa_1" xmlns="http://www.w3.org/2000/svg" width="273" height="37" viewBox="0 0 273 37"><style>.st0{opacity:.3}.st1{fill:#2d2969}.st2{opacity:.7}.st3{opacity:.55;fill:none;stroke:#2d2969;stroke-width:4.0674;stroke-miterlimit:10;enable-background:new}</style><g class="st0"><path class="st1" d="M32.2 29.1v-4.7l2.9-2.8-2.9-2.8v-4.7l7.6 7.6-7.6 7.4zM72 24.2c0 1.8-.4 3.2-1.3 4.2s-2.2 1.5-4.1 1.5h-9.2V10h8.3c.8 0 1.5.1 2.2.4.7.3 1.2.6 1.7 1.1s.9 1 1.1 1.7c.3.7.4 1.4.4 2.1 0 .5 0 1-.1 1.6 0 .6-.2 1.1-.4 1.6-.1.2-.2.3-.3.5s-.2.3-.4.5c.8.7 1.3 1.4 1.6 2.1.3.7.5 1.6.5 2.6zm-3.9-8.6c0-.9-.2-1.5-.5-1.9s-1-.7-1.9-.7h-5.2v5.3h5.4c.9 0 1.4-.3 1.8-.8.2-.4.4-1.1.4-1.9zm.8 8.5c0-.8-.2-1.4-.6-2-.4-.5-1-.8-1.9-.8h-6v5.5h6c.9 0 1.5-.3 1.9-.8.4-.4.6-1.1.6-1.9zM92.3 24.4s0 .2-.1.6c0 .4-.1.7-.3 1.1-.5 1.3-1.4 2.4-2.6 3.1s-2.6 1.1-4.3 1.1c-1.6 0-3-.3-4.3-1.1-1.2-.8-2.1-1.8-2.6-3.1-.2-.4-.3-.7-.3-1.1s-.1-.6-.1-.6v-8.8s0-.2.1-.6c.1-.4.1-.7.3-1.1.5-1.4 1.4-2.4 2.6-3.1s2.6-1.1 4.3-1.1h.1c1.6 0 3 .3 4.3 1.1 1.2.7 2.1 1.8 2.6 3.2.1.3.2.7.3 1.1.1.4.1.6.1.6l-.1 8.7zm-3-5.6v-2.4c0-.8-.1-1.3-.1-1.6-.1-.3-.2-.6-.5-.9-.3-.3-.6-.5-.9-.8s-.8-.4-1.2-.5c-.4-.1-.9-.2-1.4-.2H85c-.5 0-.9.1-1.4.2s-.9.3-1.2.5c-.3.2-.7.5-.9.8-.2.3-.4.6-.5.9-.1.3-.1.8-.1 1.6v8c0 .3.1.5.1.6.1.3.3.6.5.9s.5.5.9.8c.4.2.8.4 1.2.5s.9.2 1.4.2h.1c.5 0 .9-.1 1.4-.2.4-.1.9-.3 1.2-.5.4-.2.7-.5.9-.8.3-.3.4-.6.5-.9 0-.1.1-.3.1-.6v-1-1.2V18.8h.1zM109.6 15.3l-.3-.9c-.1-.2-.2-.5-.5-.7-.2-.2-.5-.4-.9-.6-.3-.2-.7-.3-1.1-.4-.4-.1-.8-.2-1.2-.2s-.9.1-1.3.2-.9.3-1.2.5c-.4.2-.7.5-.9.8-.3.3-.4.6-.5.9 0 .1-.1.3-.1.6V23.3c0 .5.1.9.1 1.1.1.3.3.6.5.9.3.3.6.6.9.8l1.2.6c.4.2.9.2 1.3.2.6 0 1.2-.1 1.8-.3s1.1-.5 1.4-.8c.3-.4.5-.7.5-1v-.4-2.5h-4V19h7.1V25.1c0 .2 0 .3-.1.5-.1.5-.3 1.1-.6 1.6s-.8 1-1.3 1.5c-.6.4-1.2.8-2.1 1.1-.9.3-1.8.4-2.8.4-1.6 0-3-.4-4.3-1.1-1.2-.7-2.1-1.8-2.6-3.1-.1-.1-.1-.3-.2-.5 0-.2-.1-.4-.1-.6s-.1-.4-.1-.7v-8.6c0-.1 0-.3.1-.6 0-.4.1-.7.3-1.1.5-1.3 1.4-2.4 2.6-3.1 1.2-.7 2.6-1.1 4.3-1.1 1 0 1.8.1 2.6.3s1.4.5 1.9.9 1 .8 1.3 1.2.6.9.7 1.3l.3.8-2.7 1.1zM133.8 24.4s0 .2-.1.6c0 .4-.1.7-.3 1.1-.5 1.3-1.4 2.4-2.6 3.1-1.2.7-2.6 1.1-4.3 1.1h-.1c-1.6 0-3-.3-4.3-1.1-1.2-.8-2.1-1.8-2.6-3.1-.2-.4-.3-.7-.3-1.1s-.1-.6-.1-.6v-8.8s0-.2.1-.6c.1-.4.1-.7.3-1.1.5-1.4 1.4-2.4 2.6-3.1s2.6-1.1 4.3-1.1h.1c1.6 0 3 .3 4.3 1.1 1.2.7 2.1 1.8 2.6 3.2.1.3.2.7.3 1.1s.1.6.1.6v8.7zm-3.1-5.6v-2.4c0-.8-.1-1.3-.1-1.6-.1-.3-.2-.6-.5-.9-.3-.3-.6-.5-.9-.8s-.8-.4-1.2-.5c-.4-.1-.9-.2-1.4-.2h-.1c-.5 0-.9.1-1.4.2s-.9.3-1.2.5c-.3.2-.7.5-.9.8-.2.3-.4.6-.5.9-.1.3-.1.8-.1 1.6v8c0 .3.1.5.1.6.1.3.3.6.5.9s.5.5.9.8c.4.2.8.4 1.2.5s.9.2 1.4.2h.1c.5 0 .9-.1 1.4-.2.4-.1.9-.3 1.2-.5.4-.2.7-.5.9-.8.3-.3.4-.6.5-.9 0-.1.1-.3.1-.6v-1-1.2V18.8zM148.2 13v16.9h-3.1V13h-5.3v-3h13.5v3h-5.1zM172.2 29.9l-2.2-6.2h-6.6l-2.2 6.2H158l7-19.9h3.4l7 19.9h-3.2zm-6.7-22l-1.8-1.8 3.9-4.1 1.8 1.8-3.9 4.1zm1.2 6.5l-2.2 6.3h4.4l-2.2-6.3z"/></g><path class="st1" d="M36.2 33.1v-4.7l2.9-2.8-2.9-2.8V18l7.6 7.6-7.6 7.5zM76 28.3c0 1.8-.4 3.2-1.3 4.2S72.5 34 70.6 34h-9.2V14.1h8.3c.8 0 1.5.1 2.2.4s1.2.6 1.7 1.1.9 1 1.1 1.7c.3.7.4 1.4.4 2.1 0 .5 0 1-.1 1.6 0 .6-.2 1.1-.4 1.6-.1.2-.2.3-.3.5s-.2.3-.4.5c.8.7 1.3 1.4 1.6 2.1.4.7.5 1.6.5 2.6zm-3.9-8.6c0-.9-.2-1.5-.5-1.9s-1-.7-1.9-.7h-5.2v5.3h5.4c.9 0 1.4-.3 1.8-.8.3-.5.4-1.1.4-1.9zm.9 8.5c0-.8-.2-1.4-.6-2-.4-.5-1-.8-1.9-.8h-6v5.5h6c.9 0 1.5-.3 1.9-.8.4-.5.6-1.1.6-1.9zM96.4 28.4s0 .2-.1.6c0 .4-.1.7-.3 1.1-.5 1.3-1.4 2.4-2.6 3.1s-2.6 1.1-4.3 1.1H89c-1.6 0-3-.3-4.3-1.1-1.2-.8-2.1-1.8-2.6-3.1-.2-.4-.3-.7-.3-1.1s-.1-.6-.1-.6v-8.8s0-.2.1-.6c.1-.4.1-.7.3-1.1.5-1.4 1.4-2.4 2.6-3.1s2.6-1.1 4.3-1.1h.1c1.6 0 3 .3 4.3 1.1 1.2.7 2.1 1.8 2.6 3.2.1.3.2.7.3 1.1.1.4.1.6.1.6v8.7zm-3.1-5.5v-2.4c0-.8-.1-1.3-.1-1.6-.1-.3-.2-.6-.5-.9s-.6-.5-.9-.8-.8-.4-1.2-.5c-.4-.1-.9-.2-1.4-.2H89c-.5 0-.9.1-1.4.2s-.9.3-1.2.5c-.3.2-.7.5-.9.8-.2.3-.4.6-.5.9-.1.3-.1.8-.1 1.6v8.1c0 .3.1.5.1.6.1.3.3.6.5.9.2.3.5.5.9.8.4.2.8.4 1.2.5s.9.2 1.4.2h.1c.5 0 .9-.1 1.4-.2.4-.1.9-.3 1.2-.5.4-.2.7-.5.9-.8.3-.3.4-.6.5-.9 0-.1.1-.3.1-.6v-1-1.2-3.5h.1zM113.6 19.3l-.3-.9c-.1-.2-.2-.5-.5-.7-.2-.2-.5-.4-.9-.6-.3-.2-.7-.3-1.1-.4-.4-.1-.8-.2-1.2-.2s-.9.1-1.3.2-.9.3-1.2.5c-.4.2-.7.5-.9.8-.3.3-.4.6-.5.9 0 .1-.1.3-.1.6V27.3c0 .5.1.9.1 1.1.1.3.3.6.5.9.3.3.6.6.9.8l1.2.6c.4.2.9.2 1.3.2.6 0 1.2-.1 1.8-.3s1.1-.5 1.4-.8c.3-.4.5-.7.5-1v-.4-2.5h-4v-3.1h7.1V28.9c0 .2 0 .3-.1.5-.1.5-.3 1.1-.6 1.6s-.8 1-1.3 1.5c-.6.4-1.2.8-2.1 1.1-.9.3-1.8.4-2.8.4-1.6 0-3-.4-4.3-1.1-1.2-.7-2.1-1.8-2.6-3.1-.1-.1-.1-.3-.2-.5 0-.2-.1-.4-.1-.6s-.1-.4-.1-.7v-8.6c0-.1 0-.3.1-.6 0-.4.1-.7.3-1.1.5-1.3 1.4-2.4 2.6-3.1 1.2-.7 2.6-1.1 4.3-1.1 1 0 1.8.1 2.6.3s1.4.5 1.9.9 1 .8 1.3 1.2.6.9.7 1.3l.3.8-2.7 1.3zM137.8 28.4s0 .2-.1.6c0 .4-.1.7-.3 1.1-.5 1.3-1.4 2.4-2.6 3.1-1.2.7-2.6 1.1-4.3 1.1h-.1c-1.6 0-3-.3-4.3-1.1-1.2-.8-2.1-1.8-2.6-3.1-.2-.4-.3-.7-.3-1.1s-.1-.6-.1-.6v-8.8s0-.2.1-.6c.1-.4.1-.7.3-1.1.5-1.4 1.4-2.4 2.6-3.1s2.6-1.1 4.3-1.1h.1c1.6 0 3 .3 4.3 1.1 1.2.7 2.1 1.8 2.6 3.2.1.3.2.7.3 1.1s.1.6.1.6v8.7zm-3-5.5v-2.4c0-.8-.1-1.3-.1-1.6-.1-.3-.2-.6-.5-.9s-.6-.5-.9-.8-.8-.4-1.2-.5-.9-.2-1.4-.2h-.1c-.5 0-.9.1-1.4.2s-.9.3-1.2.5-.7.5-.9.8c-.2.3-.4.6-.5.9-.1.3-.1.8-.1 1.6v8.1c0 .3.1.5.1.6.1.3.3.6.5.9.2.3.5.5.9.8.4.2.8.4 1.2.5s.9.2 1.4.2h.1c.5 0 .9-.1 1.4-.2.4-.1.9-.3 1.2-.5.4-.2.7-.5.9-.8.3-.3.4-.6.5-.9 0-.1.1-.3.1-.6v-1-1.2-3.5zM152.3 17.1V34h-3.1V17.1h-5.3v-3h13.5v3h-5.1zM176.2 34l-2.2-6.2h-6.6l-2.2 6.2H162l7-19.9h3.4l7 19.9h-3.2zm-6.6-22l-1.8-1.8 3.9-4.1 1.8 1.8-3.9 4.1zm1.2 6.4l-2.2 6.3h4.4l-2.2-6.3z"/><g class="st2"><path class="st1" d="M34.2 31.1v-4.7l2.9-2.8-2.9-2.8V16l7.6 7.6-7.6 7.5zM74 26.3c0 1.8-.4 3.2-1.3 4.2S70.5 32 68.6 32h-9.2V12h8.3c.8 0 1.5.1 2.2.4.7.3 1.2.6 1.7 1.1s.9 1 1.1 1.7c.3.7.4 1.4.4 2.1 0 .5 0 1-.1 1.6 0 .6-.2 1.1-.4 1.6-.1.2-.2.3-.3.5s-.2.3-.4.5c.8.7 1.3 1.4 1.6 2.1.4.7.5 1.6.5 2.7zm-3.9-8.6c0-.9-.2-1.5-.5-1.9s-1-.7-1.9-.7h-5.2v5.3h5.4c.9 0 1.4-.3 1.8-.8.2-.5.4-1.1.4-1.9zm.9 8.5c0-.8-.2-1.4-.6-2-.4-.5-1-.8-1.9-.8h-6v5.5h6c.9 0 1.5-.3 1.9-.8.4-.5.6-1.2.6-1.9zM94.4 26.4s0 .2-.1.6c0 .4-.1.7-.3 1.1-.5 1.3-1.4 2.4-2.6 3.1s-2.6 1.1-4.3 1.1H87c-1.6 0-3-.3-4.3-1.1-1.2-.8-2.1-1.8-2.6-3.1-.2-.4-.3-.7-.3-1.1s-.1-.6-.1-.6v-8.8s0-.2.1-.6c.1-.4.1-.7.3-1.1.5-1.4 1.4-2.4 2.6-3.1s2.6-1.1 4.3-1.1h.1c1.6 0 3 .3 4.3 1.1 1.2.7 2.1 1.8 2.6 3.2.1.3.2.7.3 1.1.1.4.1.6.1.6v8.7zm-3.1-5.6v-2.4c0-.8-.1-1.3-.1-1.6-.1-.3-.2-.6-.5-.9s-.6-.5-.9-.8-.8-.4-1.2-.5c-.4-.1-.9-.2-1.4-.2H87c-.5 0-.9.1-1.4.2s-.9.3-1.2.5c-.3.2-.7.5-.9.8-.2.3-.4.6-.5.9-.1.3-.1.8-.1 1.6v8.1c0 .3.1.5.1.6.1.3.3.6.5.9s.5.5.9.8c.4.2.8.4 1.2.5s.9.2 1.4.2h.1c.5 0 .9-.1 1.4-.2.4-.1.9-.3 1.2-.5.4-.2.7-.5.9-.8.3-.3.4-.6.5-.9 0-.1.1-.3.1-.6v-1-1.2-3.5h.1zM111.6 17.3l-.3-.9c-.1-.2-.2-.5-.5-.7-.2-.2-.5-.4-.9-.6-.3-.2-.7-.3-1.1-.4-.4-.1-.8-.2-1.2-.2s-.9.1-1.3.2-.9.3-1.2.5c-.4.2-.7.5-.9.8-.3.3-.4.6-.5.9 0 .1-.1.3-.1.6V25.3c0 .5.1.9.1 1.1.1.3.3.6.5.9.3.3.6.6.9.8l1.2.6c.4.2.9.2 1.3.2.6 0 1.2-.1 1.8-.3s1.1-.5 1.4-.8c.3-.4.5-.7.5-1v-.4-2.5h-4v-3.1h7.1V26.9c0 .2 0 .3-.1.5-.1.5-.3 1.1-.6 1.6s-.8 1-1.3 1.5c-.6.4-1.2.8-2.1 1.1-.9.3-1.8.4-2.8.4-1.6 0-3-.4-4.3-1.1-1.2-.7-2.1-1.8-2.6-3.1-.1-.1-.1-.3-.2-.5 0-.2-.1-.4-.1-.6s-.1-.4-.1-.7v-8.6c0-.1 0-.3.1-.6 0-.4.1-.7.3-1.1.5-1.3 1.4-2.4 2.6-3.1 1.2-.7 2.6-1.1 4.3-1.1 1 0 1.8.1 2.6.3s1.4.5 1.9.9 1 .8 1.3 1.2.6.9.7 1.3l.3.8-2.7 1.3zM135.8 26.4s0 .2-.1.6c0 .4-.1.7-.3 1.1-.5 1.3-1.4 2.4-2.6 3.1-1.2.7-2.6 1.1-4.3 1.1h-.1c-1.6 0-3-.3-4.3-1.1-1.2-.8-2.1-1.8-2.6-3.1-.2-.4-.3-.7-.3-1.1s-.1-.6-.1-.6v-8.8s0-.2.1-.6c.1-.4.1-.7.3-1.1.5-1.4 1.4-2.4 2.6-3.1s2.6-1.1 4.3-1.1h.1c1.6 0 3 .3 4.3 1.1 1.2.7 2.1 1.8 2.6 3.2.1.3.2.7.3 1.1s.1.6.1.6v8.7zm-3-5.6v-2.4c0-.8-.1-1.3-.1-1.6-.1-.3-.2-.6-.5-.9s-.6-.5-.9-.8-.8-.4-1.2-.5-.9-.2-1.4-.2h-.1c-.5 0-.9.1-1.4.2s-.9.3-1.2.5c-.3.2-.7.5-.9.8-.2.3-.4.6-.5.9-.1.3-.1.8-.1 1.6v8.1c0 .3.1.5.1.6.1.3.3.6.5.9s.5.5.9.8c.4.2.8.4 1.2.5s.9.2 1.4.2h.1c.5 0 .9-.1 1.4-.2.4-.1.9-.3 1.2-.5.4-.2.7-.5.9-.8.3-.3.4-.6.5-.9 0-.1.1-.3.1-.6v-1-1.2-3.5zM150.3 15v16.9h-3.1V15h-5.3v-3h13.5v3h-5.1zM174.2 31.9l-2.2-6.2h-6.6l-2.2 6.2H160l7-19.9h3.4l7 19.9h-3.2zm-6.7-22l-1.8-1.8 3.9-4.1 1.8 1.8-3.9 4.1zm1.3 6.5l-2.2 6.3h4.4l-2.2-6.3z"/></g><path id="XMLID_2_" class="st3" d="M186.4 22.6h71.7"/></svg>