<svg id="Capa_1" xmlns="http://www.w3.org/2000/svg" width="250" height="250" viewBox="0 0 250 250"><style>.st0{fill:#2d2969}</style><path class="st0" d="M32.8 129.2h7.9c-.4 4.5-2 8.1-4.9 10.8-2.9 2.7-6.7 4-11.3 4-5.8 0-10.3-2-13.5-6.1-2.7-3.4-4.1-7.7-4.1-12.8 0-5.6 1.6-10.2 4.9-13.8 3.3-3.6 7.5-5.3 12.7-5.3 5.1 0 9.3 1.7 12.4 5.2 2.1 2.3 3.2 4.9 3.4 7.9h-7.8c-.8-4.2-3.6-6.4-8.2-6.4-2.9 0-5.2 1.1-6.9 3.4-1.7 2.2-2.6 5.2-2.6 9s.9 6.8 2.6 9c1.7 2.2 4 3.4 6.9 3.4 5.1-.1 7.9-2.8 8.5-8.3zM76.4 106.8l13.8 36.3h-8.3L79 135H65.5l-2.9 8.1h-8.2l13.8-36.3h8.2zm.6 22.4l-2.3-6.5c-1-2.7-1.8-5.3-2.4-7.9-.2.9-.6 2.2-1.2 3.9-.4 1.3-.9 2.6-1.4 4l-2.3 6.5H77zM162.8 106.9h14.6c4.4 0 7.6.7 9.7 2.1 3.2 2.1 4.7 5.3 4.7 9.6 0 3.8-1.3 6.8-3.9 9-2.1 1.7-5.1 2.6-9 2.6h-8.2v13h-7.9v-36.3zm7.9 6.7v10.3h7.1c4.2 0 6.3-1.8 6.3-5.3 0-1.7-.7-3.1-2-4-.9-.7-2.5-1-4.7-1h-6.7zM225.3 106c5.3 0 9.5 1.8 12.8 5.3 3.3 3.5 4.9 8.1 4.9 13.8 0 5.7-1.6 10.3-4.9 13.8-3.3 3.5-7.6 5.2-13 5.2-5.3 0-9.6-1.7-12.9-5.2-3.3-3.5-4.9-8.1-4.9-13.8 0-5.7 1.6-10.3 4.9-13.8 3.3-3.6 7.7-5.3 13.1-5.3zm-.1 6.6c-3.1 0-5.5 1.1-7.3 3.3-1.8 2.2-2.7 5.3-2.7 9.2 0 3.8.9 6.8 2.7 9 1.8 2.2 4.2 3.3 7.3 3.3 3 0 5.4-1.1 7.1-3.3 1.8-2.2 2.6-5.3 2.6-9.1s-.9-6.8-2.6-9.1c-1.7-2.2-4.1-3.3-7.1-3.3zM105.9 143.1v-36.3h11l6.6 24.7 6.5-24.7h11v36.3h-6.8v-28.5l-7.2 28.5h-7l-7.2-28.5v28.5h-6.9z"/></svg>