<svg id="Capa_1" xmlns="http://www.w3.org/2000/svg" width="595" height="250" viewBox="0 0 595 250"><style>.st0{fill:#2d2969}</style><path class="st0" d="M503 211.3h-2.7v-1.8h.9v-.9h1.8zM98.5 211.3h3.7v-1.8h-3.7v1.8zm7.4 0h3.7v-1.8h-3.7v1.8zm7.5 0h3.7v-1.8h-3.7v1.8zm7.4 0h3.7v-1.8h-3.7v1.8zm7.4 0h3.7v-1.8h-3.7v1.8zm7.5 0h3.7v-1.8h-3.7v1.8zm7.4 0h3.7v-1.8h-3.7v1.8zm7.5 0h3.7v-1.8h-3.7v1.8zm7.4 0h3.7v-1.8H158v1.8zm7.5 0h3.7v-1.8h-3.7v1.8zm7.4 0h3.7v-1.8h-3.7v1.8zm7.4 0h3.7v-1.8h-3.7v1.8zm7.5 0h3.7v-1.8h-3.7v1.8zm7.4 0h3.7v-1.8h-3.7v1.8zm7.5 0h3.7v-1.8h-3.7v1.8zm7.4 0h3.7v-1.8h-3.7v1.8zm7.4 0h3.7v-1.8h-3.7v1.8zm7.5 0h3.7v-1.8H225v1.8zm7.4 0h3.7v-1.8h-3.7v1.8zm7.5 0h3.7v-1.8h-3.7v1.8zm7.4 0h3.7v-1.8h-3.7v1.8zm7.4 0h3.7v-1.8h-3.7v1.8zm7.5 0h3.7v-1.8h-3.7v1.8zm7.4 0h3.7v-1.8h-3.7v1.8zm7.5 0h3.7v-1.8h-3.7v1.8zm7.4 0h3.7v-1.8h-3.7v1.8zm7.4 0h3.7v-1.8h-3.7v1.8zm7.5 0h3.7v-1.8h-3.7v1.8zm7.4 0h3.7v-1.8h-3.7v1.8zm7.5 0h3.7v-1.8h-3.7v1.8zm7.4 0h3.7v-1.8h-3.7v1.8zm7.4 0h3.7v-1.8h-3.7v1.8zm7.5 0h3.7v-1.8h-3.7v1.8zm7.4 0h3.7v-1.8H344v1.8zm7.5 0h3.7v-1.8h-3.7v1.8zm7.4 0h3.7v-1.8h-3.7v1.8zm7.5 0h3.7v-1.8h-3.7v1.8zm7.4 0h3.7v-1.8h-3.7v1.8zm7.4 0h3.7v-1.8h-3.7v1.8zm7.5 0h3.7v-1.8h-3.7v1.8zm7.4 0h3.7v-1.8h-3.7v1.8zm7.5 0h3.7v-1.8h-3.7v1.8zm7.4 0h3.7v-1.8H411v1.8zm7.4 0h3.7v-1.8h-3.7v1.8zm7.5 0h3.7v-1.8h-3.7v1.8zm7.4 0h3.7v-1.8h-3.7v1.8zm7.5 0h3.7v-1.8h-3.7v1.8zm7.4 0h3.7v-1.8h-3.7v1.8zm7.4 0h3.7v-1.8h-3.7v1.8zm7.5 0h3.7v-1.8h-3.7v1.8zm7.4 0h3.7v-1.8h-3.7v1.8zm7.5 0h3.7v-1.8H478v1.8zm7.4 0h3.7v-1.8h-3.7v1.8zm7.4 0h3.7v-1.8h-3.7v1.8zM94.8 211.3H92v-2.7h1.8v.9h1zM92 204.9h1.8v-3.7H92v3.7zm0-7.5h1.8v-3.7H92v3.7zm0-7.4h1.8v-3.7H92v3.7zm0-7.4h1.8v-3.7H92v3.7zm0-7.5h1.8v-3.7H92v3.7zm0-7.4h1.8V164H92v3.7zm0-7.4h1.8v-3.7H92v3.7zm0-7.4h1.8v-3.7H92v3.7zm0-7.5h1.8v-3.7H92v3.7zm0-7.4h1.8v-3.7H92v3.7zm0-7.4h1.8v-3.7H92v3.7zm0-7.5h1.8v-3.7H92v3.7zm0-7.4h1.8V112H92v3.7zm0-7.4h1.8v-3.7H92v3.7zm0-7.4h1.8v-3.7H92v3.7zm0-7.5h1.8v-3.7H92v3.7zm0-7.4h1.8v-3.7H92V86zm0-7.4h1.8v-3.7H92v3.7zm0-7.5h1.8v-3.7H92v3.7zm0-7.4h1.8V60H92v3.7zm0-7.4h1.8v-3.7H92v3.7zm0-7.5h1.8v-3.7H92v3.7zM93.8 41.4H92v-2.7h2.8v1.8h-1zM98.5 40.5h3.7v-1.9h-3.7v1.9zm7.4 0h3.7v-1.9h-3.7v1.9zm7.5 0h3.7v-1.9h-3.7v1.9zm7.4 0h3.7v-1.9h-3.7v1.9zm7.4 0h3.7v-1.9h-3.7v1.9zm7.5 0h3.7v-1.9h-3.7v1.9zm7.4 0h3.7v-1.9h-3.7v1.9zm7.5 0h3.7v-1.9h-3.7v1.9zm7.4 0h3.7v-1.9H158v1.9zm7.5 0h3.7v-1.9h-3.7v1.9zm7.4 0h3.7v-1.9h-3.7v1.9zm7.4 0h3.7v-1.9h-3.7v1.9zm7.5 0h3.7v-1.9h-3.7v1.9zm7.4 0h3.7v-1.9h-3.7v1.9zm7.5 0h3.7v-1.9h-3.7v1.9zm7.4 0h3.7v-1.9h-3.7v1.9zm7.4 0h3.7v-1.9h-3.7v1.9zm7.5 0h3.7v-1.9H225v1.9zm7.4 0h3.7v-1.9h-3.7v1.9zm7.5 0h3.7v-1.9h-3.7v1.9zm7.4 0h3.7v-1.9h-3.7v1.9zm7.4 0h3.7v-1.9h-3.7v1.9zm7.5 0h3.7v-1.9h-3.7v1.9zm7.4 0h3.7v-1.9h-3.7v1.9zm7.5 0h3.7v-1.9h-3.7v1.9zm7.4 0h3.7v-1.9h-3.7v1.9zm7.4 0h3.7v-1.9h-3.7v1.9zm7.5 0h3.7v-1.9h-3.7v1.9zm7.4 0h3.7v-1.9h-3.7v1.9zm7.5 0h3.7v-1.9h-3.7v1.9zm7.4 0h3.7v-1.9h-3.7v1.9zm7.4 0h3.7v-1.9h-3.7v1.9zm7.5 0h3.7v-1.9h-3.7v1.9zm7.4 0h3.7v-1.9H344v1.9zm7.5 0h3.7v-1.9h-3.7v1.9zm7.4 0h3.7v-1.9h-3.7v1.9zm7.5 0h3.7v-1.9h-3.7v1.9zm7.4 0h3.7v-1.9h-3.7v1.9zm7.4 0h3.7v-1.9h-3.7v1.9zm7.5 0h3.7v-1.9h-3.7v1.9zm7.4 0h3.7v-1.9h-3.7v1.9zm7.5 0h3.7v-1.9h-3.7v1.9zm7.4 0h3.7v-1.9H411v1.9zm7.4 0h3.7v-1.9h-3.7v1.9zm7.5 0h3.7v-1.9h-3.7v1.9zm7.4 0h3.7v-1.9h-3.7v1.9zm7.5 0h3.7v-1.9h-3.7v1.9zm7.4 0h3.7v-1.9h-3.7v1.9zm7.4 0h3.7v-1.9h-3.7v1.9zm7.5 0h3.7v-1.9h-3.7v1.9zm7.4 0h3.7v-1.9h-3.7v1.9zm7.5 0h3.7v-1.9H478v1.9zm7.4 0h3.7v-1.9h-3.7v1.9zm7.4 0h3.7v-1.9h-3.7v1.9zM503 41.4h-1.8v-.9h-.9v-1.8h2.7zM501.2 204.9h1.8v-3.7h-1.8v3.7zm0-7.5h1.8v-3.7h-1.8v3.7zm0-7.4h1.8v-3.7h-1.8v3.7zm0-7.4h1.8v-3.7h-1.8v3.7zm0-7.4h1.8v-3.7h-1.8v3.7zm0-7.5h1.8V164h-1.8v3.7zm0-7.4h1.8v-3.7h-1.8v3.7zm0-7.4h1.8v-3.7h-1.8v3.7zm0-7.5h1.8v-3.7h-1.8v3.7zm0-7.4h1.8v-3.7h-1.8v3.7zm0-7.4h1.8v-3.7h-1.8v3.7zm0-7.5h1.8v-3.7h-1.8v3.7zm0-7.4h1.8V112h-1.8v3.7zm0-7.4h1.8v-3.7h-1.8v3.7zm0-7.4h1.8v-3.7h-1.8v3.7zm0-7.5h1.8v-3.7h-1.8v3.7zm0-7.4h1.8v-3.7h-1.8V86zm0-7.4h1.8v-3.7h-1.8v3.7zm0-7.5h1.8v-3.7h-1.8v3.7zm0-7.4h1.8V60h-1.8v3.7zm0-7.4h1.8v-3.7h-1.8v3.7zm0-7.4h1.8v-3.7h-1.8v3.7z"/><path d="M145.8 82.1h1.7v64.5c0 4.7 3.7 7.4 7.4 7.4v1.7c-5 0-9.1-4.1-9.1-9.1V82.1z"/><path class="st0" d="M155.9 156.6h-.9c-5.5 0-10.1-4.5-10.1-10.1V81.2h3.6v65.4c0 4.2 3.3 6.5 6.5 6.5h.9v3.5z"/><path d="M160.9 146.6c0 4.7 3.7 7.4 7.4 7.4 4.7 0 16.6-9.5 16.6-9.5v-19.7l-15.3 4.8c-5.5 1.7-8.7 7.3-8.7 12.4v4.6zm24-33.4c0-6.1-4.8-10.9-10.9-10.9-6.1 0-10.9 4.8-10.9 10.9v1.9h-1.7v-1.9c0-7 5.6-12.6 12.6-12.6s12.7 5.6 12.7 12.6v41.5H185v-8.2s-11.5 9.1-16.6 9.1c-5 0-9.1-4.1-9.1-9.1v-4.6c0-6.7 4.4-12.3 9.4-13.8l16.3-5v-9.9h-.1z"/><path class="st0" d="M184 126.1l-14.1 4.4c-5.2 1.6-8 7-8 11.5v4.6c0 4.2 3.3 6.5 6.5 6.5 3.5 0 12.1-6.3 15.6-9v-18zm-15.7 30.5c-5.5 0-10-4.5-10-10.1v-4.6c0-6.6 4.3-13 10.1-14.7l15.6-4.8v-9.2c0-5.6-4.4-10-10-10s-10 4.4-10 10v2.8h-3.6v-2.8c0-7.6 6-13.6 13.6-13.6s13.6 6 13.6 13.6v42.5H184v-7.2c-3.4 2.5-11.4 8.1-15.7 8.1M203.7 142.3c0 1.4.1 2.5.4 3.3.2.8.5 1.2.9 1.2.5 0 1.5-.4 3-1.1 1.5-.7 2.9-1.6 4.5-2.5 1.8-1 3.8-2.2 6-3.5v-12.4l-11.7 3.7c-1.4.6-2.2 1.5-2.5 2.8-.3 1.2-.5 3-.5 5.2l-.1 3.3zm-8.9-4.9c0-2.5.2-4.6.7-6.2.5-1.6 1.2-2.9 2-4 .9-1.1 1.9-1.9 3.1-2.5 1.2-.6 2.5-1.2 3.9-1.7l13.8-4.2v-7.4c0-1.1-.2-1.9-.5-2.4-.4-.6-.8-1-1.4-1.2-.6-.3-1.2-.4-2-.5s-1.5-.1-2.3-.1c-1.6 0-3 .2-4.3.8-1.3.5-1.9 1.7-1.9 3.5v2H197v-2c0-2.3.4-4.2 1.3-5.9.9-1.7 2.1-3 3.5-4.1 1.5-1.1 3.1-1.9 4.9-2.4 1.8-.5 3.6-.8 5.5-.8s3.7.3 5.5.8 3.4 1.3 4.9 2.4c1.4 1.1 2.6 2.5 3.5 4.1.9 1.7 1.3 3.6 1.3 5.9v43.4h-8.9v-6.2c-1.7 1.3-3.3 2.5-5.1 3.6-1.5.9-3 1.8-4.6 2.5s-3.1 1.1-4.4 1.1c-2.6 0-4.9-.9-6.7-2.8-1.8-1.8-2.8-4.1-2.8-6.7l-.1-9z"/><path class="st0" d="M217.7 128.2l-10.8 3.4c-1.1.5-1.8 1.2-2.1 2.3-.3 1.2-.4 2.9-.4 5v3.4c0 1.3.1 2.4.3 3.1.2.6.3.7.3.7.1 0 .8-.1 2.6-1 1.4-.7 2.9-1.5 4.4-2.5 1.7-1 3.6-2.1 5.6-3.3l.1-11.1zM205 147.4c-.7 0-1.3-.6-1.6-1.7-.2-.9-.4-2-.4-3.5v-3.4c0-2.2.2-4 .4-5.3.4-1.5 1.3-2.6 2.9-3.3l12.7-4v13.7l-.3.2c-2.2 1.3-4.2 2.4-5.9 3.5-1.5.9-3.1 1.8-4.5 2.5-2.1 1.2-2.9 1.3-3.3 1.3m7.2-41c.8 0 1.6.1 2.4.1.8.1 1.6.3 2.2.6.7.3 1.2.8 1.7 1.5.4.7.7 1.6.7 2.8v8l-14.3 4.3c-1.3.5-2.6 1.1-3.8 1.7-1.1.6-2.1 1.4-2.9 2.4-.8 1-1.4 2.2-1.9 3.7s-.7 3.5-.7 5.9v8.8c0 2.5.8 4.5 2.6 6.3 1.7 1.7 3.8 2.6 6.3 2.6 1.2 0 2.6-.4 4.1-1 1.6-.7 3.1-1.5 4.5-2.4 1.7-1 3.4-2.2 5-3.5l1.1-.9v6.9h7.6v-42.7c0-2.1-.4-4-1.3-5.5-.8-1.6-2-2.9-3.3-3.9s-2.9-1.8-4.6-2.3c-3.5-1-7.2-1-10.6 0-1.7.5-3.3 1.3-4.6 2.3-1.4 1-2.5 2.3-3.3 3.9-.8 1.5-1.2 3.4-1.2 5.5v1.3h7.5v-1.3c0-2.7 1.3-3.7 2.4-4.2 1.2-.6 2.7-.9 4.4-.9m-7.9 50c-2.8 0-5.2-1-7.2-3s-3-4.4-3-7.2v-8.8c0-2.6.3-4.7.8-6.4s1.2-3.1 2.2-4.2c.9-1.1 2-2 3.3-2.7 1.2-.6 2.6-1.2 4-1.8l13.3-4v-6.9c0-.9-.1-1.6-.4-2.1-.3-.4-.7-.8-1.1-1-.5-.2-1.1-.4-1.8-.4-2.2-.2-4.5-.1-6.3.6-1 .4-1.5 1.3-1.5 2.9v2.7h-10.3v-2.7c0-2.4.5-4.4 1.4-6.2.9-1.7 2.2-3.2 3.7-4.3 1.5-1.1 3.2-2 5.1-2.5 3.6-1.1 7.6-1.1 11.3 0 1.9.6 3.6 1.4 5.1 2.5 1.5 1.2 2.7 2.6 3.7 4.3.9 1.7 1.4 3.8 1.4 6.2v44h-10.3V150c-1.3 1-2.6 1.9-4 2.7-1.4.9-3 1.8-4.7 2.5-1.7.9-3.3 1.2-4.7 1.2M244.4 140.8c0 .4.2.6.6.6 1.3 0 2.8-.4 4.4-1.3 1.6-.9 3.1-1.8 4.6-2.9 1.7-1.2 3.4-2.5 5.1-4.1v-21.8c0-1.3-.4-2.4-1.1-3.1-.8-.8-1.8-1.1-3.1-1.1h-6.1c-1.3 0-2.4.4-3.1 1.1-.8.8-1.1 1.8-1.1 3.1v29.5h-.2zm14.8 2c-1.7 1.4-3.4 2.7-5.2 3.8-1.5.9-3 1.8-4.6 2.6s-3.1 1.2-4.4 1.2c-2.6 0-4.9-.9-6.8-2.8-1.8-1.9-2.8-4.1-2.8-6.8v-29.4c0-1.8.4-3.5 1-5.1.7-1.6 1.6-3 2.8-4.2s2.6-2.1 4.2-2.8c1.6-.7 3.3-1 5.2-1h6.1c1.8 0 3.6.3 5.1 1 1.6.7 3 1.6 4.2 2.8 1.2 1.2 2.1 2.6 2.8 4.2.7 1.6 1 3.3 1 5.1v46.8c0 1.9-.3 3.6-1 5.2s-1.6 3-2.8 4.1c-1.2 1.2-2.6 2.1-4.2 2.7-1.6.7-3.3 1-5.2 1h-6.2c-1.9 0-3.6-.4-5.1-1-1.6-.7-3-1.6-4.2-2.8s-2.1-2.6-2.8-4.2c-.7-1.6-1-3.3-1-5.2v-2.2h8.9v2.2c0 1.3.4 2.4 1.1 3.1.8.8 1.8 1.1 3.1 1.1h6.2c1.3 0 2.4-.4 3.1-1.1.8-.8 1.1-1.8 1.1-3.1v-15.2h.4z"/><path class="st0" d="M248.7 107.7c-1.2 0-2 .3-2.6.9s-.9 1.5-.9 2.6v29.4c1.2 0 2.5-.4 4-1.2 1.6-.8 3.1-1.8 4.5-2.8 1.6-1.1 3.2-2.4 4.8-3.8v-21.5c0-1.1-.3-2-.9-2.6s-1.5-.9-2.6-.9l-6.3-.1zm-3.7 34.4c-.8 0-1.3-.5-1.3-1.3v-29.5c0-1.5.5-2.7 1.3-3.6.9-.9 2.1-1.3 3.6-1.3h6.1c1.5 0 2.7.4 3.6 1.3s1.4 2.1 1.4 3.6v22.1l-.2.2c-1.7 1.5-3.4 2.9-5.1 4.1-1.5 1.1-3.1 2.1-4.7 2.9-1.7 1-3.3 1.5-4.7 1.5m-8.7 14.3v1.5c0 1.8.3 3.4 1 4.9s1.6 2.8 2.7 3.9 2.5 2 4 2.7c1.5.6 3.1 1 4.9 1h6.1c1.8 0 3.4-.3 4.9-.9 1.5-.6 2.8-1.5 3.9-2.6s2-2.4 2.6-3.9.9-3.1.9-4.9v-46.8c0-1.7-.3-3.3-1-4.8s-1.6-2.9-2.7-4-2.5-2-4-2.7-3.1-1-4.9-1h-6.1c-1.7 0-3.4.3-4.9 1-1.5.6-2.8 1.6-4 2.7-1.1 1.1-2 2.5-2.7 4s-1 3.1-1 4.8v29.5c0 2.5.8 4.5 2.6 6.3 1.7 1.7 3.8 2.6 6.3 2.6 1.2 0 2.6-.4 4.1-1.1 1.6-.8 3.2-1.6 4.6-2.5 1.7-1.1 3.4-2.3 5.1-3.7l1.1-.9v16.6c0 1.5-.5 2.7-1.3 3.6-.9.9-2.1 1.3-3.6 1.3h-6.1c-1.5 0-2.7-.5-3.6-1.3-.9-.9-1.3-2.1-1.3-3.6v-1.5h-7.6v-.2zm18.6 15.4h-6.1c-1.9 0-3.8-.4-5.4-1.1-1.7-.7-3.1-1.7-4.4-3-1.2-1.2-2.2-2.7-3-4.4-.7-1.7-1.1-3.5-1.1-5.4V155h10.3v2.9c0 1.2.3 2 .9 2.6.6.6 1.5.9 2.6.9h6.1c1.2 0 2-.3 2.6-.9.7-.6.9-1.5.9-2.6v-13.7c-1.4 1.1-2.7 2-4.1 2.9-1.5.9-3 1.8-4.7 2.6s-3.3 1.3-4.7 1.3c-2.8 0-5.3-1-7.2-3-2-2-3-4.4-3-7.2v-29.5c0-1.9.4-3.7 1.1-5.4.7-1.7 1.7-3.2 3-4.4 1.2-1.3 2.7-2.3 4.4-3s3.5-1.1 5.4-1.1h6.1c1.9 0 3.8.4 5.4 1.1 1.7.7 3.1 1.7 4.4 3 1.3 1.2 2.3 2.7 3 4.4.7 1.7 1.1 3.5 1.1 5.4v46.8c0 1.9-.4 3.8-1 5.4-.7 1.7-1.7 3.1-2.9 4.3-1.2 1.2-2.7 2.2-4.4 2.9-1.5.8-3.3 1.1-5.3 1.1M338.9 111.8c0-1.4-.1-2.5-.4-3.3-.2-.8-.5-1.2-.9-1.2-.5 0-1.5.3-3 1s-2.9 1.5-4.5 2.4c-1.8 1.1-3.8 2.3-6 3.6v40.4h-8.9V99.2h8.9v6.2c1.6-1.3 3.3-2.5 5.1-3.6 1.4-.9 3-1.8 4.6-2.5s3.1-1.1 4.4-1.1 2.6.2 3.7.7c1.2.5 2.2 1.2 3 2.1.9.9 1.5 1.9 2 3.1s.7 2.4.7 3.7v46.9h-8.9v-42.9h.2z"/><path class="st0" d="M339.6 154.1h7.5v-46.2c0-1.2-.2-2.4-.7-3.5s-1.1-2-1.9-2.9c-.8-.8-1.7-1.5-2.8-1.9-2.1-.9-4.5-1-7.6.3-1.6.7-3.1 1.5-4.5 2.4-1.7 1-3.4 2.2-5 3.5l-1.1.9v-6.9H316V154h7.5v-40l.3-.2c2.2-1.3 4.2-2.5 6-3.6 1.5-.9 3-1.8 4.5-2.5 2.1-1 2.9-1.1 3.3-1.1.7 0 1.3.6 1.6 1.7.2.9.4 2 .4 3.5v42.3zm9 1.4h-10.3v-43.7c0-1.3-.1-2.3-.3-3.1-.2-.6-.3-.7-.3-.7-.1 0-.8.1-2.6 1-1.4.7-2.9 1.5-4.4 2.4-1.7 1-3.6 2.1-5.6 3.4v40.7h-10.3v-57h10.3v5.4c1.3-1 2.6-1.9 4-2.7 1.5-.9 3.1-1.8 4.7-2.5 3.4-1.5 6.2-1.4 8.7-.3 1.2.5 2.3 1.3 3.2 2.2.9 1 1.6 2.1 2.2 3.3.5 1.2.8 2.6.8 4v47.6h-.1zM379.6 135.4h8.9v7.1c0 1.8-.3 3.5-1 5.1s-1.6 3-2.8 4.2c-1.2 1.2-2.6 2.1-4.2 2.8s-3.3 1-5.2 1h-6.1c-1.9 0-3.6-.3-5.2-1s-3-1.6-4.2-2.8-2.1-2.6-2.8-4.2c-.7-1.6-1-3.3-1-5.1v-31.1c0-1.9.3-3.6 1-5.2s1.6-3 2.8-4.2c1.2-1.2 2.6-2.1 4.2-2.8 1.6-.7 3.3-1 5.2-1h6.1c1.8 0 3.6.3 5.2 1s3 1.6 4.2 2.8c1.2 1.2 2.1 2.6 2.8 4.2.7 1.6 1 3.3 1 5.2v7.4h-8.9v-7.4c0-1.3-.4-2.4-1.1-3.1-.8-.8-1.8-1.2-3.1-1.2h-6.1c-1.3 0-2.4.4-3.1 1.2-.8.7-1.2 1.8-1.2 3.1v31.1c0 1.3.4 2.4 1.2 3.1.8.8 1.8 1.1 3.1 1.1h6.1c1.3 0 2.4-.4 3.1-1.1.8-.8 1.1-1.8 1.1-3.1v-7.1z"/><path class="st0" d="M369.2 98.9c-1.8 0-3.4.3-4.9 1-1.5.6-2.8 1.5-4 2.7-1.1 1.1-2 2.5-2.7 4s-1 3.1-1 4.9v31.1c0 1.7.3 3.3 1 4.8s1.6 2.9 2.7 4 2.5 2 4 2.7c1.5.6 3.1 1 4.9 1h6.1c1.7 0 3.4-.3 4.9-1s2.8-1.6 4-2.7c1.1-1.1 2-2.4 2.7-4 .7-1.5 1-3.2 1-4.8v-6.5h-7.5v6.5c0 1.5-.5 2.7-1.3 3.6-.9.9-2.1 1.4-3.6 1.4h-6.1c-1.5 0-2.7-.5-3.6-1.4s-1.3-2.1-1.3-3.6v-31.1c0-1.5.4-2.7 1.3-3.6s2.1-1.4 3.6-1.4h6.1c1.5 0 2.7.5 3.6 1.4s1.3 2.1 1.3 3.6v6.7h7.5v-6.7c0-1.7-.3-3.4-1-4.9s-1.6-2.8-2.7-4c-1.1-1.1-2.5-2-4-2.7s-3.1-1-4.9-1h-6.1zm6.1 57.5h-6.1c-1.9 0-3.8-.4-5.4-1.1-1.7-.7-3.1-1.7-4.4-3-1.2-1.2-2.2-2.7-3-4.4-.7-1.7-1.1-3.5-1.1-5.4v-31.1c0-1.9.4-3.8 1.1-5.4.7-1.7 1.7-3.1 3-4.4 1.3-1.2 2.7-2.2 4.4-3 1.7-.7 3.5-1.1 5.4-1.1h6.1c1.9 0 3.8.4 5.4 1.1s3.1 1.7 4.4 3c1.2 1.2 2.2 2.7 3 4.4.7 1.7 1.1 3.5 1.1 5.4v8.1h-10.3v-8.1c0-1.1-.3-2-.9-2.6s-1.5-.9-2.6-.9h-6.1c-1.2 0-2 .3-2.6.9s-.9 1.5-.9 2.6v31.1c0 1.2.3 2 .9 2.6s1.5.9 2.7.9h6.1c1.1 0 2-.3 2.6-.9.6-.6.9-1.5.9-2.6v-7.8h10.3v7.8c0 1.9-.4 3.7-1.1 5.4s-1.7 3.2-3 4.4c-1.2 1.3-2.7 2.2-4.4 3-1.7.8-3.5 1.1-5.5 1.1M414.5 155.8h-6.2c-1.8 0-3.6-.4-5.2-1-1.6-.7-3-1.6-4.2-2.8s-2.1-2.6-2.8-4.2c-.7-1.6-1-3.3-1-5.1V99.2h9v43.4c0 1.3.4 2.4 1.2 3.1.8.8 1.9 1.1 3.2 1.1h5.9v9h.1zm-10.4-66.4h-8.9V78.9h8.9v10.5z"/><path class="st0" d="M395.9 88.7h7.6v-9.1h-7.6v9.1zm8.9 1.4h-10.3V78.2h10.3v11.9zm-8.9 9.8v42.7c0 1.7.4 3.3 1 4.8.7 1.5 1.6 2.9 2.7 4s2.5 2 4 2.7c1.5.6 3.1 1 4.9 1h5.5v-7.5h-5.3c-1.5 0-2.7-.5-3.7-1.3-.9-.9-1.4-2.1-1.4-3.6V99.9h-7.7zm19.3 56.5h-6.8c-1.9 0-3.8-.4-5.4-1.1-1.7-.7-3.1-1.7-4.4-3-1.2-1.2-2.2-2.7-3-4.4-.7-1.7-1.1-3.5-1.1-5.4v-44h10.4v44c0 1.1.3 2 1 2.6s1.6.9 2.7.9h6.6v10.4zM425.6 142.3c0 1.4.1 2.5.4 3.3.2.8.5 1.2.9 1.2.5 0 1.5-.4 3-1.1 1.5-.7 2.9-1.6 4.5-2.5 1.8-1 3.8-2.2 5.9-3.5v-12.4l-11.7 3.7c-1.4.6-2.2 1.5-2.5 2.8-.3 1.2-.5 3-.5 5.2v3.3zm-8.9-4.9c0-2.5.2-4.6.7-6.2.5-1.6 1.2-2.9 2-4 .9-1.1 1.9-1.9 3.1-2.5s2.5-1.2 3.9-1.7l13.8-4.2v-7.4c0-1.1-.2-1.9-.5-2.4-.4-.6-.8-1-1.4-1.2-.6-.3-1.2-.4-2-.5s-1.5-.1-2.3-.1c-1.6 0-3 .2-4.3.8-1.3.5-1.9 1.7-1.9 3.5v2h-8.9v-2c0-2.3.4-4.2 1.3-5.9.9-1.7 2.1-3 3.5-4.1 1.5-1.1 3.1-1.9 4.9-2.4s3.6-.8 5.5-.8 3.7.3 5.5.8 3.5 1.3 4.9 2.4 2.6 2.5 3.5 4.1c.9 1.7 1.3 3.6 1.3 5.9v43.4h-8.9v-6.2c-1.6 1.3-3.3 2.5-5.1 3.6-1.5.9-3 1.8-4.6 2.5s-3.1 1.1-4.4 1.1c-2.7 0-4.9-.9-6.8-2.8-1.8-1.8-2.8-4.1-2.8-6.7v-9z"/><path class="st0" d="M439.6 128.2l-10.8 3.4c-1.1.5-1.8 1.2-2.1 2.3-.3 1.2-.4 2.9-.4 5v3.4c0 1.3.1 2.4.3 3.1.2.6.3.7.3.7.1 0 .8-.1 2.6-1 1.4-.7 2.9-1.5 4.4-2.5 1.7-1 3.6-2.1 5.6-3.3v-11.1h.1zm-12.7 19.2c-.7 0-1.3-.6-1.6-1.7-.3-.9-.4-2-.4-3.5v-3.4c0-2.3.1-4 .5-5.3.4-1.5 1.3-2.6 2.9-3.3l12.7-4v13.7l-.3.2c-2.2 1.3-4.2 2.4-6 3.5-1.5.9-3 1.8-4.5 2.5-2.1 1.2-2.9 1.3-3.3 1.3m7.2-41c.8 0 1.6.1 2.4.1.8.1 1.6.3 2.2.6.7.3 1.2.8 1.7 1.5.4.7.7 1.6.7 2.8v8l-14.3 4.3c-1.3.5-2.6 1.1-3.8 1.7-1.1.6-2.1 1.4-2.9 2.4s-1.4 2.2-1.9 3.7-.7 3.5-.7 5.9v8.8c0 2.5.8 4.5 2.6 6.3 1.7 1.7 3.8 2.6 6.3 2.6 1.2 0 2.6-.4 4.1-1 1.6-.7 3.1-1.5 4.5-2.4 1.7-1 3.4-2.2 5-3.5l1.1-.9v6.9h7.6v-42.7c0-2.1-.4-4-1.3-5.5-.8-1.6-2-2.9-3.3-3.9-1.4-1-2.9-1.8-4.6-2.3-3.5-1-7.1-1-10.6 0-1.7.5-3.3 1.3-4.6 2.3-1.4 1-2.5 2.3-3.3 3.9-.8 1.5-1.3 3.4-1.3 5.5v1.3h7.6v-1.3c0-2.7 1.3-3.7 2.4-4.2 1.2-.6 2.7-.9 4.4-.9m-7.9 50c-2.8 0-5.3-1-7.2-3-2-2-3-4.4-3-7.2v-8.8c0-2.6.3-4.7.8-6.4s1.2-3.1 2.2-4.2c.9-1.1 2-2 3.3-2.7 1.2-.6 2.6-1.2 4-1.8l13.4-4v-6.9c0-.9-.2-1.6-.4-2.1-.3-.5-.7-.8-1.1-1-.5-.2-1.1-.4-1.7-.4-2.2-.2-4.5-.1-6.3.6-1 .4-1.5 1.3-1.5 2.9v2.7h-10.3v-2.7c0-2.4.5-4.4 1.4-6.2.9-1.7 2.2-3.2 3.7-4.3 1.5-1.1 3.2-2 5.1-2.5 3.7-1.1 7.6-1.1 11.4 0 1.9.5 3.6 1.4 5.1 2.5 1.5 1.2 2.7 2.6 3.7 4.3.9 1.7 1.4 3.8 1.4 6.2v44h-10.3V150c-1.3 1-2.7 1.9-4 2.7-1.5.9-3 1.8-4.7 2.5-2 .9-3.6 1.2-5 1.2M299.6 110.9c0-1.4-.4-2.4-1.2-3.2-.8-.8-1.8-1.2-3.2-1.2h-6.3c-1.4 0-2.4.4-3.2 1.2-.8.8-1.2 1.9-1.1 3.2l-.1 14.4 13-8.7c.4-.3.8-.7 1.1-1 .6-.7 1-1.6 1-2.5v-2.2zm9.2 5.5c0 .8-.2 1.5-.7 2.1-.4.7-.9 1.3-1.5 1.8-.6.7-1.4 1.3-2.3 1.8l-19.7 13.2-.1 7.4c0 1.4.4 2.4 1.2 3.2.8.8 1.8 1.2 3.2 1.2h6.3c1.4 0 2.4-.4 3.2-1.2.8-.8 1.2-1.8 1.2-3.2v-7.3h9.1v7.3c0 1.9-.3 3.7-1 5.3s-1.7 3-2.9 4.3c-1.2 1.2-2.7 2.2-4.3 2.9-1.6.7-3.4 1.1-5.3 1.1h-6.3c-1.9 0-3.7-.4-5.3-1.1-1.6-.7-3-1.7-4.3-2.9-1.2-1.2-2.2-2.6-2.9-4.3-.7-1.6-1.1-3.4-1.1-5.3v-31.9c0-1.9.3-3.7 1-5.3.7-1.6 1.6-3.1 2.9-4.3 1.2-1.2 2.7-2.2 4.3-2.9 1.7-.7 3.4-1.1 5.3-1.1h6.3c1.9 0 3.7.3 5.3 1.1 1.6.7 3.1 1.7 4.3 2.9 1.2 1.2 2.2 2.6 2.9 4.3.7 1.6 1.1 3.4 1.1 5.3l.1 5.6z"/><path class="st0" d="M288.9 107.2c-1.2 0-2.1.3-2.7 1-.7.7-1 1.5-1 2.7V124l12-8c.3-.3.7-.6.9-.9.5-.6.8-1.3.9-2.1v-2.1c0-1.2-.3-2.1-1-2.7-.6-.6-1.5-1-2.7-1h-6.4zm-5.1 19.4l.1-15.7c0-1.5.4-2.8 1.4-3.7.9-.9 2.2-1.4 3.7-1.4h6.3c1.5 0 2.8.5 3.7 1.4.9.9 1.3 2.1 1.4 3.7v2.1c-.1 1.1-.5 2.1-1.2 3-.3.4-.7.7-1.1 1.1l-14.3 9.5zm5.1-28.5c-1.8 0-3.5.3-5 1-1.6.7-2.9 1.6-4.1 2.8-1.2 1.2-2.1 2.5-2.7 4-.7 1.5-1 3.2-.9 5v31.9c0 1.8.4 3.5 1 5 .7 1.5 1.6 2.9 2.7 4.1 1.1 1.1 2.5 2.1 4.1 2.7 1.5.7 3.2 1 5 1h6.3c1.8 0 3.5-.3 5-1s2.9-1.6 4-2.7c1.2-1.2 2.1-2.5 2.8-4.1.7-1.5 1-3.2 1-5v-6.6h-7.8v6.6c0 1.5-.5 2.8-1.4 3.7s-2.2 1.4-3.7 1.4h-6.3c-1.5 0-2.8-.5-3.7-1.4-.9-.9-1.4-2.1-1.4-3.7V135l20.1-13.4c.8-.5 1.6-1.1 2.1-1.7.6-.5 1.1-1.1 1.5-1.7s.5-1.2.6-1.8v-5.5c0-1.8-.4-3.5-1-5-.7-1.5-1.6-2.9-2.7-4-1.1-1.2-2.5-2.1-4.1-2.7-1.5-.7-3.2-1-5-1h-6.4v-.1zm6.3 58.9h-6.3c-2 0-3.9-.4-5.6-1.1-1.7-.7-3.2-1.8-4.5-3.1s-2.3-2.8-3-4.5-1.1-3.6-1.1-5.6v-31.9c0-2 .3-3.8 1-5.6.7-1.7 1.7-3.2 3-4.5s2.8-2.3 4.5-3 3.6-1.1 5.6-1.1h6.3c2 0 3.9.4 5.6 1.1s3.2 1.8 4.5 3c1.3 1.3 2.3 2.8 3 4.5s1.1 3.6 1.1 5.5l.1 5.5c0 .9-.3 1.7-.8 2.5-.5.7-1 1.4-1.7 2-.6.7-1.4 1.3-2.3 1.9l-19.4 13v7c0 1.2.3 2.1 1 2.7.6.7 1.5 1 2.7 1h6.3c1.2 0 2.1-.3 2.7-1 .7-.6 1-1.5 1-2.7v-8h10.5v8c0 2-.4 3.9-1.1 5.6-.8 1.7-1.8 3.2-3.1 4.5-1.3 1.3-2.8 2.3-4.5 3-1.7.9-3.5 1.3-5.5 1.3"/></svg>