<svg id="Capa_1" xmlns="http://www.w3.org/2000/svg" width="179.6" height="250" viewBox="0 0 179.6 250"><style>.st0{fill:#2d2969}</style><path transform="rotate(-44.992 61.487 87.284)" class="st0" d="M57 82.8h8.9v8.9H57z"/><path class="st0" d="M61.5 81l6.3 6.3-6.3 6.3 28.3-6.3z"/><path transform="rotate(-44.992 61.486 99.855)" class="st0" d="M57 95.4h8.9v8.9H57z"/><path transform="rotate(-44.992 89.772 93.57)" class="st0" d="M85.3 89.1h8.9V98h-8.9z"/><path transform="rotate(-44.992 118.077 87.285)" class="st0" d="M113.6 82.8h8.9v8.9h-8.9z"/><path class="st0" d="M111.8 87.3l6.3-6.3-28.3 6.3 28.3 6.3z"/><path transform="rotate(-44.992 118.075 99.857)" class="st0" d="M113.6 95.4h8.9v8.9h-8.9z"/><path transform="rotate(-44.992 61.486 112.427)" class="st0" d="M57 108h8.9v8.9H57z"/><path transform="rotate(-44.992 61.486 124.997)" class="st0" d="M57 120.6h8.9v8.9H57z"/><path transform="rotate(-44.992 89.772 106.141)" class="st0" d="M85.3 101.7h8.9v8.9h-8.9z"/><path transform="rotate(-44.992 89.77 118.713)" class="st0" d="M85.3 114.3h8.9v8.9h-8.9z"/><path transform="rotate(-44.992 61.485 137.568)" class="st0" d="M57 133.1h8.9v8.9H57z"/><path transform="rotate(-44.992 61.484 150.139)" class="st0" d="M57 145.7h8.9v8.9H57z"/><path transform="rotate(-44.992 89.77 131.283)" class="st0" d="M85.3 126.8h8.9v8.9h-8.9z"/><path transform="rotate(-44.992 89.77 143.855)" class="st0" d="M85.3 139.4h8.9v8.9h-8.9z"/><path transform="rotate(-44.992 61.484 162.71)" class="st0" d="M57 158.3h8.9v8.9H57z"/><path transform="rotate(-44.992 89.77 156.427)" class="st0" d="M85.3 152h8.9v8.9h-8.9z"/><path transform="rotate(-44.992 118.076 112.428)" class="st0" d="M113.6 108h8.9v8.9h-8.9z"/><path transform="rotate(-44.992 118.076 124.998)" class="st0" d="M113.6 120.6h8.9v8.9h-8.9z"/><path transform="rotate(-44.992 118.074 137.57)" class="st0" d="M113.6 133.1h8.9v8.9h-8.9z"/><path transform="rotate(-44.992 118.073 150.14)" class="st0" d="M113.6 145.7h8.9v8.9h-8.9z"/><path transform="rotate(-44.992 118.073 162.711)" class="st0" d="M113.6 158.3h8.9v8.9h-8.9z"/></svg>