<svg id="Capa_1" xmlns="http://www.w3.org/2000/svg" width="250" height="250" viewBox="0 0 250 250"><style>.st0{fill:#2d2969}</style><path transform="rotate(-44.992 96.7 87.285)" class="st0" d="M92.3 82.8h8.9v8.9h-8.9z"/><path class="st0" d="M96.7 81l6.3 6.3-6.3 6.3 28.3-6.3z"/><path transform="rotate(-44.992 96.698 99.856)" class="st0" d="M92.3 95.4h8.9v8.9h-8.9z"/><path transform="rotate(-44.992 124.985 93.571)" class="st0" d="M120.5 89.1h8.9V98h-8.9z"/><path transform="rotate(-44.992 153.29 87.286)" class="st0" d="M148.9 82.8h8.9v8.9h-8.9z"/><path class="st0" d="M147 87.3l6.3-6.3-28.3 6.3 28.3 6.3z"/><path transform="rotate(-44.992 153.288 99.858)" class="st0" d="M148.9 95.4h8.9v8.9h-8.9z"/><path transform="rotate(-44.992 96.7 112.427)" class="st0" d="M92.3 108h8.9v8.9h-8.9z"/><path transform="rotate(-44.992 96.7 124.998)" class="st0" d="M92.3 120.6h8.9v8.9h-8.9z"/><path transform="rotate(-44.992 124.985 106.142)" class="st0" d="M120.5 101.7h8.9v8.9h-8.9z"/><path transform="rotate(-44.992 124.983 118.714)" class="st0" d="M120.5 114.3h8.9v8.9h-8.9z"/><path transform="rotate(-44.992 96.697 137.57)" class="st0" d="M92.3 133.1h8.9v8.9h-8.9z"/><path transform="rotate(-44.992 96.697 150.14)" class="st0" d="M92.3 145.7h8.9v8.9h-8.9z"/><path transform="rotate(-44.992 124.982 131.284)" class="st0" d="M120.5 126.8h8.9v8.9h-8.9z"/><path transform="rotate(-44.992 124.984 143.856)" class="st0" d="M120.5 139.4h8.9v8.9h-8.9z"/><path transform="rotate(-44.992 96.696 162.71)" class="st0" d="M92.3 158.3h8.9v8.9h-8.9z"/><path transform="rotate(-44.992 124.984 156.428)" class="st0" d="M120.5 152h8.9v8.9h-8.9z"/><path transform="rotate(-44.992 153.29 112.429)" class="st0" d="M148.9 108h8.9v8.9h-8.9z"/><path transform="rotate(-44.992 153.289 125)" class="st0" d="M148.9 120.6h8.9v8.9h-8.9z"/><path transform="rotate(-44.992 153.287 137.571)" class="st0" d="M148.9 133.1h8.9v8.9h-8.9z"/><path transform="rotate(-44.992 153.286 150.142)" class="st0" d="M148.9 145.7h8.9v8.9h-8.9z"/><path transform="rotate(-44.992 153.286 162.712)" class="st0" d="M148.9 158.3h8.9v8.9h-8.9z"/></svg>